<mxfile host="app.diagrams.net" modified="2024-06-28T00:07:45.611Z" agent="Mozilla/5.0 (Windows NT 10.0; Win64; x64; rv:109.0) Gecko/20100101 Firefox/115.0" etag="qx8eL_dbAlzxrKZ1aw8e" version="24.4.9" type="github">
  <diagram name="Page-1" id="pnKkA76Is5p4Ddxvps8q">
    <mxGraphModel dx="2674" dy="1864" grid="1" gridSize="10" guides="1" tooltips="1" connect="1" arrows="1" fold="1" page="1" pageScale="1" pageWidth="850" pageHeight="1100" math="0" shadow="0">
      <root>
        <mxCell id="0" />
        <mxCell id="1" parent="0" />
        <mxCell id="vCrRRUYNwniXk347K93_-133" value="AWS Cloud" style="points=[[0,0],[0.25,0],[0.5,0],[0.75,0],[1,0],[1,0.25],[1,0.5],[1,0.75],[1,1],[0.75,1],[0.5,1],[0.25,1],[0,1],[0,0.75],[0,0.5],[0,0.25]];outlineConnect=0;gradientColor=none;html=1;whiteSpace=wrap;fontSize=12;fontStyle=0;container=0;pointerEvents=0;collapsible=0;recursiveResize=0;shape=mxgraph.aws4.group;grIcon=mxgraph.aws4.group_aws_cloud_alt;strokeColor=#232F3E;fillColor=none;verticalAlign=top;align=left;spacingLeft=30;fontColor=#232F3E;dashed=0;" vertex="1" parent="1">
          <mxGeometry x="29.5" y="560" width="690.5" height="460" as="geometry" />
        </mxCell>
        <mxCell id="vCrRRUYNwniXk347K93_-116" value="AWS Cloud" style="points=[[0,0],[0.25,0],[0.5,0],[0.75,0],[1,0],[1,0.25],[1,0.5],[1,0.75],[1,1],[0.75,1],[0.5,1],[0.25,1],[0,1],[0,0.75],[0,0.5],[0,0.25]];outlineConnect=0;gradientColor=none;html=1;whiteSpace=wrap;fontSize=12;fontStyle=0;container=1;pointerEvents=0;collapsible=0;recursiveResize=0;shape=mxgraph.aws4.group;grIcon=mxgraph.aws4.group_aws_cloud_alt;strokeColor=#232F3E;fillColor=none;verticalAlign=top;align=left;spacingLeft=30;fontColor=#232F3E;dashed=0;" vertex="1" parent="1">
          <mxGeometry x="30" y="-180" width="1660" height="580" as="geometry" />
        </mxCell>
        <mxCell id="vCrRRUYNwniXk347K93_-124" value="" style="rounded=0;whiteSpace=wrap;html=1;strokeColor=#005E00;" vertex="1" parent="vCrRRUYNwniXk347K93_-116">
          <mxGeometry x="550" y="24" width="1070" height="496" as="geometry" />
        </mxCell>
        <mxCell id="vCrRRUYNwniXk347K93_-14" value="API Gateway" style="sketch=0;points=[[0,0,0],[0.25,0,0],[0.5,0,0],[0.75,0,0],[1,0,0],[0,1,0],[0.25,1,0],[0.5,1,0],[0.75,1,0],[1,1,0],[0,0.25,0],[0,0.5,0],[0,0.75,0],[1,0.25,0],[1,0.5,0],[1,0.75,0]];outlineConnect=0;fontColor=#232F3E;fillColor=#E7157B;strokeColor=#ffffff;dashed=0;verticalLabelPosition=bottom;verticalAlign=top;align=center;html=1;fontSize=12;fontStyle=0;aspect=fixed;shape=mxgraph.aws4.resourceIcon;resIcon=mxgraph.aws4.api_gateway;" vertex="1" parent="vCrRRUYNwniXk347K93_-116">
          <mxGeometry x="30" y="300.5" width="78" height="78" as="geometry" />
        </mxCell>
        <mxCell id="vCrRRUYNwniXk347K93_-120" value="&lt;div&gt;Managed by&lt;/div&gt;&lt;div&gt;Amazon Bedrock&lt;br&gt;&lt;/div&gt;" style="sketch=0;points=[[0,0,0],[0.25,0,0],[0.5,0,0],[0.75,0,0],[1,0,0],[0,1,0],[0.25,1,0],[0.5,1,0],[0.75,1,0],[1,1,0],[0,0.25,0],[0,0.5,0],[0,0.75,0],[1,0.25,0],[1,0.5,0],[1,0.75,0]];outlineConnect=0;fontColor=#232F3E;fillColor=#01A88D;strokeColor=#ffffff;dashed=0;verticalLabelPosition=bottom;verticalAlign=top;align=center;html=1;fontSize=12;fontStyle=0;aspect=fixed;shape=mxgraph.aws4.resourceIcon;resIcon=mxgraph.aws4.bedrock;" vertex="1" parent="vCrRRUYNwniXk347K93_-116">
          <mxGeometry x="583" y="30" width="48" height="48" as="geometry" />
        </mxCell>
        <mxCell id="vCrRRUYNwniXk347K93_-121" value="Amazon Polly" style="sketch=0;points=[[0,0,0],[0.25,0,0],[0.5,0,0],[0.75,0,0],[1,0,0],[0,1,0],[0.25,1,0],[0.5,1,0],[0.75,1,0],[1,1,0],[0,0.25,0],[0,0.5,0],[0,0.75,0],[1,0.25,0],[1,0.5,0],[1,0.75,0]];outlineConnect=0;fontColor=#232F3E;fillColor=#01A88D;strokeColor=#ffffff;dashed=0;verticalLabelPosition=bottom;verticalAlign=top;align=center;html=1;fontSize=12;fontStyle=0;aspect=fixed;shape=mxgraph.aws4.resourceIcon;resIcon=mxgraph.aws4.polly;" vertex="1" parent="vCrRRUYNwniXk347K93_-116">
          <mxGeometry x="426" y="460" width="78" height="78" as="geometry" />
        </mxCell>
        <mxCell id="vCrRRUYNwniXk347K93_-126" value="" style="shape=image;verticalLabelPosition=bottom;labelBackgroundColor=default;verticalAlign=top;aspect=fixed;imageAspect=0;image=data:image/png,iVBORw0KGgoAAAANSUhEUgAAADUAAAAwCAYAAACxKzLDAAAPRElEQVRoQ91ZCXSN1xb+Mg+mxFQRQQwVRARFQiYRQwwhE0GaxDxFi3otVTVXPC1KS1FExDO1atYIYgoS8xTVlhBFCEoSSWR8e5+bc/339ia5aq2ut96fFTfuP+3v7L2//e19DErowP/ZYfA2oJTrwX8XFxfD0NAQBgYG6mVS/v1Prd3fAiXBsMESjJGRkdrmoqIiNTjltf+zoJRGsvESTOrde9i45SeMjAiBzTu1hdf4Wnme//6nvKa3p5Rg2GD+NTY2RmFhEWZ+sRiJZ87BvVMHnDh9Fn6+PpgcOUI4hs8bGalC8p8CViEo7VArKmIwqlCLO3QMazZsQT1bG3xEIOzq1cWvv9/G0hXr8CjjCUZFDEKPrp7iWn0BaeSpnvHKGaxctHJBaYYak4CBuPn323exfFU0/rN9FxbNnYaIIcHi9QWFhTAh7wnAh49j1bpNcGzxLqZOHgcLc3Pxvb4hqO8i6MJdJijlQ2Xu8HfrYrcLY8NCAnD8dDImjx+B9m2dRDiamJiITxmaubm5cHbrjX3b16FJo4ZQ5mBZTlAu5JNXuXhGv7QSOi/na82IoOpbVoWhIrwr9BTfyDR9/tJVfDxjARrY2SJq9ieoXasmgsPGYezwUHTxcNWgc0kSL3Ny0CtoGDZ89yUaNawvQpCfVd7B97I38+mz46FNyMrPg7mxKUroh9ChqKRY5XH6MSKsT/NfIanrIDSoXO21DWXVKWXd+Wb1BhyIP4oxw0Lh18tHPJRXfWBEJCJHhcPL3UXtBb5PGp+ZlQXfwKGIWfUVGts3UL+0PFAyQvIolFv8HI0NHXvCvVY95HGZIBCmhq9LR05hAQISd2OBkxvaWL9DgIltaUHK9JSSknsHD8WE0RHo6eOJgoICWkkjYjQDhAydIDylBMUGyyLMoDp3D8aO2JVo2ther/CTnnpFIBzjNmCfhz9SszPRtIqVALTkRjJeFhXCiUCMb+oMvxM7McexE5ytqYxwJJQHSq44h8Kg4R8gYnAQunVxK2UxQ0HTvgHhRN0j0c3bjai7UFC8kulyKKdmzl8i6N2mjqp2lRd+SuZjz7SMi8YRr2CMO38YgfWaooqJKSbT391tGuHQ4zSk9h4hPDW7JYGqrieo4mIunoYIDh+HYaED4NvNSxhvSCvGTLh7fzzatHaEHVF6RQZXxM4y7Pg5TAy84g33rkECgZp2JRF+to1Erl198QRftHKDd8J2xHkEYMDpvfi8pSuFnx6gxMNLKXhAxHgBisNPWafKYzBZN6Sx5RVfeQ1/FtB7TYnRlt48j0nnDuJBwARMvHgU/WwbC7BXnmcgysn9NahTezHT0bX88JMhwFxTTCHAxoSOmkThFwgfL1X4GXGYaQlYZQlQGimBlwVKF6Aoypvlv12AiYEhjnuHYPT5eATVexdWJmaIPHsQ3jb2OJbxB+72GSnCbxaFXxtd4fdX5VCkzhGffkMwcexw9OnpLZKdCZXDUnlPReGlPK8BmksQrWAh1zny0Nzrp7H61hUkdBkAfzJ4q2sf/Em0bmdZBeZ0PvrWVUEUDtVqYlADB/QjopjFRGFVS5C+mig0lcNrkfrH/Yf4Zk0Mks9dQiVLSwT798L7VHR51QsFxVLsU91RJnhZ4JSeUudPKf2T9IUJ5elC8tDqW5dxpMtANKhUFfX3rEZMR1+idFvk8vvo4ZbGJmoyyirMR3DiHkS1di+b0uXL2OAl365F7JYdGBk+CGNHhOL2nTTMjvoa6Y8yMG/GFLi0b6N+uKhb5fSaXDuUh65Q/DcBWpd6DWd8hsDK1IzqUiE8j2zFw5xMmIniqyq46uJLjzSkL3OKi+iewahnUVldH0WdUhVaVWtw4NBRLPtuPdoRq40ID1ErAanZ9h9MwOrozahapTI+mxKJpk3s9dJzypwrolAzIg/HpKZg4+3LKCDjckkpxHkGCUAFZCh7LuXFU1x//hhFpYuibNFF1JLNdSwqwau2nXrN2E4BSjIdh1KnboEIJ1IYPXSwuFC2DjLE+BpegO/WxiIvP5+033D8nvkMUTeSYECGGFFyG9M1hWQY5wn/Pc+xM2qaWyKbFIClkbFqRenlN+i+lBcZFFYGVHvsUZnqEN/DnmUW9EjYimp0fRVTc1UksHfoH75XFFqy71rmU+x3D4A9yyRZfAmQxoyiZ2AYZnz8AVzbt1WLVGVi8wIou1w+l/w0HV2PbBGsmElaDJTYMLNA5dL4T+szCvse3sbUc/E46RuBhpWqiTDiBVAebJRsI1gmNf95PXa790erarXK5KG+x3/C7FbEflaqOsURYMCglF7o1j8UH384WtC3roKqbOENyCguwnw/M5Ip/X82sddCMv5LNz+MbeKMfO6OaWVH03exv5zFrm5D0JoMqEthw6teKDpilQf4Uy4gy6TWcTH4sXNfkU1H0+8KUftezbpwqW6Da1SEHa1qwv/kbt0yScl+DGrqpLHo6tlZQ/pod7Da9Yf9bUQAP7+aiLlJB7DcMxCRTVVkMvFCApb/kgQjE3NaqCIRiik9I1CdvFne0Xjf94inPPv06kn8mfsStei+2znZSOwaAg8iEab9oNI6pSGTnjx5UmJtbS2ezfmiBMU16RXljQmFkYmJStfJoYrSGF4UXnETun8GgZp/Ng5fu/tjAoHKJxAZ1BOxp/an3cQ2kjZOVFMaUQ7cy8nCraxnIhdfk6eK55gshtNzkogNp1w+hoF2DnCoWp104CEc8x4Ir4RtiPcIFDJpJskkDUGblpZWYmtrqxMUG3v9l98wfc4i9PB2x1CSShYW5hpFV3pZCWpe8s9YRsYzqFwiBwtalGHJcVhP4Xe93xi0oMLJ920lkFvvXKNcNIVKlDGlMSEQdVPuHnp0F7/2GoZJl44i2K4ZHKpUR+SFwwJUFwJ1kEAFn9qjKr7a2k/Kfc4XVg8cfpxTUnlfupKCBYtXIDc3j4AFoy8NVnhOoSSQskBxveGWIZxCMva3i0jxG4Pm1WroJArtUJTh98nlE7Q4+bChWnSV2O40NYVuh7fgKIWfAKWt0iX7CZotDT9topA16vLVG4hasgIvc3KxfNFs1KdBi7pgK8OPPPW1lqdCz+zDppsXEOsVBJcaNqJYci1ixtIOZdH5MlEcjMEut/7IKSrAwQepgtI9a9dHZ1IY5589Qrvq76D/iV3kKa3w06b0HgFhmDVtIlzeayM8ZWpKoaE1w4sYOwVB/XxJC3YVdYwZkD3F6noqrepCArCEWoaJzdoJZWBGxkffuY5hlNR8mFPCp/Yeidr0yXWJ6w4fzJJycZnSm+xfi82uvUgmvS6ufF12QT4sqH5xy9/7xA586eypSenaxdetR5AwlkOQD2m0IAMCwCAjxk7GB2OGoi2pDi5zgtaZaMio1Ozn+JWUgCOtoi15Q1l7kp4+RNrLTAGmc01bUZiVB9cupnY+WA8OpLYiu+AVqhJr5tM5WcP4Gj7Pdz/Ky8G2Tn1EaGp0vmywDCMeRi5buR41qluTePWHm2t7jRdnZ7+EV+8QbI9ZAfsGdoKiuWms6FDKJHnt7vu3sPPeTSGzuJsdWL+ZIAghdQjB5T8z6PcxinUPk0QE1SP13q1Ow9KlUI3gNGYUyhdv2roTMSRonVo6YBRJpty8PBw7mYSjJ07DqlpVfPvVXJiZmWpg4QfyaskVk2MreRGvLqcQF1FjKtQ3KOlvkFdzigsxPyUZ05p3QLh9SxGS/NvswDrUoVpmbWYpIkF4sDQHGSeH60XShoneg0SJUCsKKWj5BjaK6xB/ylkCT5K+XbMRtWpYw6OzC4YM6IfmzZr87V6qLI8+e5UHBwIxn1r1kY2dkEV50y4+Fjvd+qFF1RplBoL/yV2Y0dIFbWkQ85fBi6w38m5ZZBlcQOgYakFCxIxCrJY6RFSJLQ995+UyItgI0SEwcxLJ3Ce10P3YD4ggb/3LoT0a7lmDPaT9LlEL70FjsvS8l5hL6iKP3s/h+pFDOzFN4oVord0kKpdBaaRU74NHfIihNFpWtfOqjQFd9ygbRqVGlHtW2nmlrHOswpk4OCRDz+xHWMOWWEv91TbqfMeQGplNBfbss3QkpN+BK5HMLhLIyaQ2+hIo7gL0miaVNXjR3lhTGqqLDN6EQLhdMSbSYYb0ObYdD+jzeq/hiKSx2PQWHZH49AFqUo6FNWiBXkTlB0hR+B2nuR+pdL3nfrLNkCMyMU0qbfDYWFlTrly7Iaje4d3GGqHJde7M2Yto49QSlSpRsgtF/lcqUwpq2SDeI0DND6zHNRK+40kaTW/eEacIFItgBsX1iZtKMcx8k7mfNIKHmcNJ93Xx6MRQRPipNgJK8CIzC4GUc0uiZsC5VQs1KA45ntC69xiAHzauqHBCK4CVDmHEJIv+35zGzntJUXx4MQGfkac4t5amnIFdZSvqlEtwiuQSg5rXisJP37kfv4gbQt+gCDH3C+7fS70dyoBYuX80fT5RfBXRWLJnZAPJHsnKzkZP/3DErF6s1yxd1Ev64VkET2idSSZxk8jdso15ZRq+FOLk43t4RWHK0yRW7cx+M4n9nHWxn3bsKwvy5h92I2bzj+hOSn0Mzc4tLVR90L64I0T3MdixaZXwnpwuSXZkUN37h2HT90vfaNeDvczyqvG+tfjK2YO0Yl3k8N4XfV+JFD3rFwbI4Fj9r2jnIya0MjX03sq5/zAdcxYuQ0bGU1GMXTu0hV/ICMz5dBI83VS7Huo5OdM0geb9qZ4BEYheuUh4SuZgeeQh84vZ8P2k/eDcMuW5hnbxpVA1KCF49LnFpbcYwOi1QSCTWrlZlkQzwJkLliA9/TFtWg/C+JFhAhC/1JhClb3EK8Y7is9fvICrTyD2blsrQOmz6SYJSN8dR10LVKGnpNJQ7hDyav646wBWrN0oBjRzpk8WuaTcHo1POEk7HosRRHkYOSpMhKdK05Uh5EqtU9YuVQ9c9iFrobRR3qv3RrYSnDSOB5zfrNogBp3B/r1JQvXHg4ePMCtqKR5TmI6jIWh3b483klRKetdWOeWFrVLNVAhKPkj7ZRxKUlmcOJWMlTQH5D3fzKxsdKJ84z0p9p5kRH0lVEXFWp/zeoPSBU4Zknw+etN2dGjnjBYOTdXUz8CUC6KPUW97zRuD0gVO9EB0QrKfrnFaRbn0tkCU978VKGWi8kMZnPZOiBKMkgSkEdq7Icqk1yYAfYGLCa18sGrv6fXBKy+Vt/ZKV2RgeQaU1a4ow1Q533/T8P0vJrZt+MrdJeoAAAAASUVORK5CYII=;" vertex="1" parent="vCrRRUYNwniXk347K93_-116">
          <mxGeometry x="1030" y="350" width="41.96" height="38" as="geometry" />
        </mxCell>
        <mxCell id="vCrRRUYNwniXk347K93_-129" value="&lt;div&gt;Function&lt;/div&gt;&lt;div&gt;calls&lt;/div&gt;" style="edgeLabel;html=1;align=center;verticalAlign=middle;resizable=0;points=[];" vertex="1" connectable="0" parent="vCrRRUYNwniXk347K93_-116">
          <mxGeometry x="1030" y="210" as="geometry">
            <mxPoint x="8" y="-4" as="offset" />
          </mxGeometry>
        </mxCell>
        <mxCell id="vCrRRUYNwniXk347K93_-131" value="&lt;div&gt;Final&lt;/div&gt;&lt;div&gt;response&lt;br&gt;&lt;/div&gt;" style="edgeLabel;html=1;align=center;verticalAlign=middle;resizable=0;points=[];" vertex="1" connectable="0" parent="vCrRRUYNwniXk347K93_-116">
          <mxGeometry x="727" y="367" as="geometry" />
        </mxCell>
        <mxCell id="vCrRRUYNwniXk347K93_-28" style="edgeStyle=orthogonalEdgeStyle;rounded=0;orthogonalLoop=1;jettySize=auto;html=1;" edge="1" parent="1" source="vCrRRUYNwniXk347K93_-6" target="vCrRRUYNwniXk347K93_-9">
          <mxGeometry relative="1" as="geometry" />
        </mxCell>
        <mxCell id="vCrRRUYNwniXk347K93_-29" style="edgeStyle=orthogonalEdgeStyle;rounded=0;orthogonalLoop=1;jettySize=auto;html=1;" edge="1" parent="1" source="vCrRRUYNwniXk347K93_-6" target="vCrRRUYNwniXk347K93_-18">
          <mxGeometry relative="1" as="geometry" />
        </mxCell>
        <mxCell id="vCrRRUYNwniXk347K93_-32" style="edgeStyle=orthogonalEdgeStyle;rounded=0;orthogonalLoop=1;jettySize=auto;html=1;" edge="1" parent="1" source="vCrRRUYNwniXk347K93_-6" target="vCrRRUYNwniXk347K93_-31">
          <mxGeometry relative="1" as="geometry" />
        </mxCell>
        <mxCell id="vCrRRUYNwniXk347K93_-6" value="&lt;div&gt;AWS Lambda&lt;/div&gt;&lt;div&gt;Function&lt;/div&gt;&lt;div&gt;(Integrator)&lt;br&gt;&lt;/div&gt;" style="outlineConnect=0;dashed=0;verticalLabelPosition=bottom;verticalAlign=top;align=center;html=1;shape=mxgraph.aws3.lambda_function;fillColor=#F58534;gradientColor=none;" vertex="1" parent="1">
          <mxGeometry x="460" y="124" width="69" height="72" as="geometry" />
        </mxCell>
        <mxCell id="vCrRRUYNwniXk347K93_-26" style="edgeStyle=orthogonalEdgeStyle;rounded=0;orthogonalLoop=1;jettySize=auto;html=1;" edge="1" parent="1" source="vCrRRUYNwniXk347K93_-9" target="vCrRRUYNwniXk347K93_-12">
          <mxGeometry relative="1" as="geometry" />
        </mxCell>
        <mxCell id="vCrRRUYNwniXk347K93_-27" style="edgeStyle=orthogonalEdgeStyle;rounded=0;orthogonalLoop=1;jettySize=auto;html=1;" edge="1" parent="1" source="vCrRRUYNwniXk347K93_-9" target="vCrRRUYNwniXk347K93_-6">
          <mxGeometry relative="1" as="geometry" />
        </mxCell>
        <mxCell id="vCrRRUYNwniXk347K93_-9" value="Amazon Lex" style="sketch=0;points=[[0,0,0],[0.25,0,0],[0.5,0,0],[0.75,0,0],[1,0,0],[0,1,0],[0.25,1,0],[0.5,1,0],[0.75,1,0],[1,1,0],[0,0.25,0],[0,0.5,0],[0,0.75,0],[1,0.25,0],[1,0.5,0],[1,0.75,0]];outlineConnect=0;fontColor=#232F3E;fillColor=#01A88D;strokeColor=#ffffff;dashed=0;verticalLabelPosition=bottom;verticalAlign=top;align=center;html=1;fontSize=12;fontStyle=0;aspect=fixed;shape=mxgraph.aws4.resourceIcon;resIcon=mxgraph.aws4.lex;" vertex="1" parent="1">
          <mxGeometry x="320" y="121" width="78" height="78" as="geometry" />
        </mxCell>
        <mxCell id="vCrRRUYNwniXk347K93_-24" style="edgeStyle=orthogonalEdgeStyle;rounded=0;orthogonalLoop=1;jettySize=auto;html=1;" edge="1" parent="1" source="vCrRRUYNwniXk347K93_-12" target="vCrRRUYNwniXk347K93_-14">
          <mxGeometry relative="1" as="geometry" />
        </mxCell>
        <mxCell id="vCrRRUYNwniXk347K93_-25" style="edgeStyle=orthogonalEdgeStyle;rounded=0;orthogonalLoop=1;jettySize=auto;html=1;" edge="1" parent="1" source="vCrRRUYNwniXk347K93_-12" target="vCrRRUYNwniXk347K93_-9">
          <mxGeometry relative="1" as="geometry" />
        </mxCell>
        <mxCell id="vCrRRUYNwniXk347K93_-12" value="&lt;div&gt;AWS Lambda&lt;/div&gt;&lt;div&gt;Function&lt;/div&gt;&lt;div&gt;(Translator)&lt;br&gt;&lt;/div&gt;" style="outlineConnect=0;dashed=0;verticalLabelPosition=bottom;verticalAlign=top;align=center;html=1;shape=mxgraph.aws3.lambda_function;fillColor=#F58534;gradientColor=none;" vertex="1" parent="1">
          <mxGeometry x="190" y="123.5" width="69" height="72" as="geometry" />
        </mxCell>
        <mxCell id="vCrRRUYNwniXk347K93_-19" style="edgeStyle=orthogonalEdgeStyle;rounded=0;orthogonalLoop=1;jettySize=auto;html=1;" edge="1" parent="1" source="vCrRRUYNwniXk347K93_-13" target="vCrRRUYNwniXk347K93_-17">
          <mxGeometry relative="1" as="geometry" />
        </mxCell>
        <mxCell id="vCrRRUYNwniXk347K93_-13" value="Users" style="sketch=0;outlineConnect=0;gradientColor=none;fontColor=#545B64;strokeColor=none;fillColor=#879196;dashed=0;verticalLabelPosition=bottom;verticalAlign=top;align=center;html=1;fontSize=12;fontStyle=0;aspect=fixed;shape=mxgraph.aws4.illustration_notification;pointerEvents=1" vertex="1" parent="1">
          <mxGeometry x="-280" y="118" width="100" height="81" as="geometry" />
        </mxCell>
        <mxCell id="vCrRRUYNwniXk347K93_-22" style="edgeStyle=orthogonalEdgeStyle;rounded=0;orthogonalLoop=1;jettySize=auto;html=1;" edge="1" parent="1" source="vCrRRUYNwniXk347K93_-14" target="vCrRRUYNwniXk347K93_-17">
          <mxGeometry relative="1" as="geometry" />
        </mxCell>
        <mxCell id="vCrRRUYNwniXk347K93_-23" style="edgeStyle=orthogonalEdgeStyle;rounded=0;orthogonalLoop=1;jettySize=auto;html=1;" edge="1" parent="1" source="vCrRRUYNwniXk347K93_-14" target="vCrRRUYNwniXk347K93_-12">
          <mxGeometry relative="1" as="geometry" />
        </mxCell>
        <mxCell id="vCrRRUYNwniXk347K93_-20" style="edgeStyle=orthogonalEdgeStyle;rounded=0;orthogonalLoop=1;jettySize=auto;html=1;" edge="1" parent="1" source="vCrRRUYNwniXk347K93_-17" target="vCrRRUYNwniXk347K93_-13">
          <mxGeometry relative="1" as="geometry" />
        </mxCell>
        <mxCell id="vCrRRUYNwniXk347K93_-21" style="edgeStyle=orthogonalEdgeStyle;rounded=0;orthogonalLoop=1;jettySize=auto;html=1;" edge="1" parent="1" source="vCrRRUYNwniXk347K93_-17" target="vCrRRUYNwniXk347K93_-14">
          <mxGeometry relative="1" as="geometry" />
        </mxCell>
        <mxCell id="vCrRRUYNwniXk347K93_-35" value="Webhook" style="edgeLabel;html=1;align=center;verticalAlign=middle;resizable=0;points=[];" vertex="1" connectable="0" parent="vCrRRUYNwniXk347K93_-21">
          <mxGeometry x="-0.051" y="1" relative="1" as="geometry">
            <mxPoint x="-14" y="-8" as="offset" />
          </mxGeometry>
        </mxCell>
        <mxCell id="vCrRRUYNwniXk347K93_-17" value="WhatsApp" style="dashed=0;outlineConnect=0;html=1;align=center;labelPosition=center;verticalLabelPosition=bottom;verticalAlign=top;shape=mxgraph.weblogos.whatsapp;fillColor=#00E676;strokeColor=#dddddd" vertex="1" parent="1">
          <mxGeometry x="-120" y="121.2" width="74.4" height="74.8" as="geometry" />
        </mxCell>
        <mxCell id="vCrRRUYNwniXk347K93_-30" style="edgeStyle=orthogonalEdgeStyle;rounded=0;orthogonalLoop=1;jettySize=auto;html=1;" edge="1" parent="1" source="vCrRRUYNwniXk347K93_-18" target="vCrRRUYNwniXk347K93_-6">
          <mxGeometry relative="1" as="geometry" />
        </mxCell>
        <mxCell id="vCrRRUYNwniXk347K93_-18" value="" style="sketch=0;points=[[0,0,0],[0.25,0,0],[0.5,0,0],[0.75,0,0],[1,0,0],[0,1,0],[0.25,1,0],[0.5,1,0],[0.75,1,0],[1,1,0],[0,0.25,0],[0,0.5,0],[0,0.75,0],[1,0.25,0],[1,0.5,0],[1,0.75,0]];outlineConnect=0;fontColor=#232F3E;fillColor=#C925D1;strokeColor=#ffffff;dashed=0;verticalLabelPosition=bottom;verticalAlign=top;align=center;html=1;fontSize=12;fontStyle=0;aspect=fixed;shape=mxgraph.aws4.resourceIcon;resIcon=mxgraph.aws4.dynamodb;" vertex="1" parent="1">
          <mxGeometry x="455.5" y="-10" width="78" height="78" as="geometry" />
        </mxCell>
        <mxCell id="vCrRRUYNwniXk347K93_-33" style="edgeStyle=orthogonalEdgeStyle;rounded=0;orthogonalLoop=1;jettySize=auto;html=1;" edge="1" parent="1" source="vCrRRUYNwniXk347K93_-31" target="vCrRRUYNwniXk347K93_-6">
          <mxGeometry relative="1" as="geometry" />
        </mxCell>
        <mxCell id="vCrRRUYNwniXk347K93_-53" style="edgeStyle=orthogonalEdgeStyle;rounded=0;orthogonalLoop=1;jettySize=auto;html=1;" edge="1" parent="1" source="vCrRRUYNwniXk347K93_-31" target="vCrRRUYNwniXk347K93_-50">
          <mxGeometry relative="1" as="geometry" />
        </mxCell>
        <mxCell id="vCrRRUYNwniXk347K93_-31" value="Agents for &#xa;Amazon Bedrock" style="shape=image;verticalLabelPosition=bottom;verticalAlign=top;imageAspect=0;aspect=fixed;image=data:image/png,iVBORw0KGgoAAAANSUhEUgAAAUsAAAEBCAIAAAB+FhDDAAAAAXNSR0IArs4c6QAAAARnQU1BAACxjwv8YQUAAAAJcEhZcwAAFiUAABYlAUlSJPAAAD7HSURBVHhe7b0JnGNXded/rp6enqSnfam9urq6enF32+0V29gGYwNesA02xhAMIWAyAwlDmMlAMjNM5j+fZJiEycxkyJAJ4GAWOzjGgDe84N3GGC94aW+9Vi+1a9/Xp6f7P1d6VS2pqrpL3drrftEH6l4VVWqVfvecc++55xBKKXA4nB5Fp/0vh8PpRbjCOZxehiucw+lluMI5nF6GK5zD6WW4wjmcXoYrnMPpZbjCOZxehiucw+lluMI5nF6GK5zD6WW4wjmcXoYrnMPpZbjCOZxehiucw+lluMI5nF6GK7yDEARR+6rDIEQnCHptwOkqeI2X9oPisboGre5+QvRKJh4JzGRTce25dkN0OovNa3H3i4KYzSQyyVgqFiwWVe1pTsfDFd5OBEEw2ZwWe7/J5hB0ZSOpZjOZeGghFfWrBaU00zYEvcE5sMHq9AqgpwKhRVVVFFx9YoFZVLv2TZzOhiu8PaDfK8k2m6NPdrgIMegEoj2BUFCUfC4Ti6IxT7bHmKNbYcalx9lvttiI7ljsQGkRilTJpVLxSDIayGVT2hOcToUrvA3oRcnuGbY4vXqdnuhXiG9RSBSKhUwuEppOxyOqkteeaAmiweDo2yDbvHpBhMqlZxGmc4q+RioR8WcSUSWX0Z7gdB5c4S1FJ+hlm8tidxstTkF/gn01lLmq5nKZZNQ3nWlJZK4XRZPFaXF4jFbnYtSwOhRUNZ9Pp6LhOdR5US1o85xOgiu8RQh6vdFkNzvcZqtTNKC2Be2JEqqqFrIZ1LTeaMToV5tdNOZKNhcPzSZjYVXJaU80AYPJ7PBuMMl2US/VmO5iIZ/PZkqRhVWbWoIWlVw2m47HQwuZVEyb5HQMXOGtQDQYHd5h2erRGUSdrkrbRVpQMulYYDadjBCdTrb1ofduNNcKqVgopFLhmH+2GdvsaLpx9bG5B41Wh05XdYCKXkQ6HYv6Z5VMQqcXba5B2e4RJaP2dIlScM724GKBhVw6ht679gSnA+AKby56g8EkO2RHn8nqEKq1jaBNRvEkY/6CojCd4N9DEERRcg6Mmi2uSmOOFFFF2VQsMJ9JRZR8w4y5ZDQ7+keNslNkUXeVvNGtCPoOZ5OxwuJGAC5PoiQ7PAPoxuOyVZ4sU9I5zWeTEf9sPpNAo689wWkrXOHNQi8aJKMsu/vkZVpFikohnY7Gggv5dBRddG12EVwXrI4BVNJKxjyfSkbj/jk0/NrUyYKvymi2oHMhWew6UrX6oFeey8SjgTl0GSitfXn4LzPbPWarQ7Z5tKkKCnklm46g057PppaWBk674ApvPIKgRz/W6hqwONwCxrRQHdMW1VwqHg/Op1MxtbCqAAj6xAaDq38M43Y07BgDa0+UjXkmWZJfTDnZyBxNt3Og9MN1VT8cwbg6OHcom44dZw8f/434r7R6Bk0mq9Hi0GYXoeizY/CRiibD/kySB+fthCu8wRiMJot7SDY7RKNcdcpdQslmosHpTCKKJlKbOi7MmLsGzTaXyWSrXigAV4dkIpJEp71OY46m22CUXQOjJotTm1oEo4ZsGtcOllRXjhqOj4DoJZtnWLa70bBrs4swnedy4eAUvlDutLcLrvCGodeLesnErC4qR7dM2/lczDedzsTQhaXFE4tnCaLTYSxv8wzJdg/G6KRC6FRV87lUxD+TS8eU/Jr8YXT77X3DZptbR3Q1pjufToZ8R3LpZKFOvwBljkuG3TMsyXa93oA/WHuiBOo8k0rGQnOln8x13mq4whuAIIiCweDwjlhs7hqPGkFjm8+k8COeioXXYhhXBH+FzT1odrglyVrjGmBknkBjHl5ghnf1tYPtC5gsroFxyWzRphbBF4ghQyIwk0mf/EY9/nyrq98o22S2wNXuKbLgPBWJheezycTywJ7TPLjCTxVJMtv7RsyyQ280aVOLMBubZQFzLpNYo1t+HFh4bzBZ3f0WmwcXFPzbaU+UIvNCLhP1T6eS0RWDZ8kkO/tGLc5+bVxBDpU3fzibjheUU02D1+kEnd6APoLJbDEYbbplxhx1HvJP5fB35fNc562BK/zkEUSDQTR6hrdIcq1VRNAtj/qmsplELt3ISxrMmHv6zXavZLTUnF2zbfZ4FO0kLii4uJQnMXYwGC3uoU0rmW4lk4nHAtPZhm6GsRM1o8nqGpQtLlE01JzAlc/8cNXLpCKoc22W0zS4wk8GtKb4KXb1j1ocXm2qAlRaOp1KhOZTsYA21VCYMUcJOQfMtvKhdIUxpxhEZ2L+2XQ8hH9ZkfkXw1ZHrenGYCGfToT9s7lUtNCcG2yocwzL7a5+SbaKgrE2Sa6osjQ4/0wmk2xx1v16gyu8PohOpxdNzv4R2VZ7yk2LKBw1j3Y0sJBKRpqaYYqgMbe6+iyOfkmSib468lfYSVVeyVntntq8lCJVC4VsNhFeOJxPJ7XZpqE3sPwYNOboQayQFFAopFPRRHAunY4vOR2cxsIVXgd6gxHDYKvNazDJ2tQi+DYquXTMP4MfViWb1mabDC43RpPN6uyTbW7BIKDqtSdWAy1nJhkLLqCFV9UWXT5HY15+38wWjyhJtZEFxfUmFw/PJcKBYhHXSK7zBsMVviaYz2myuAbHTRa7NrUIvoHoc6JPnk5G0vGINttCBL3e6hiwuPvQJ1+eGKtBIZ9Dv9ifiPhz7cgbx8XIJNtY9q7NaRAM+IZqT5RgwUU2Gw/PJ8O+5Rl+nFOBK/wEEKLDoNc9sFG2r5ChyaDFVDw6f/hNbdgO2Jk5CsjZLzu8enYptTropSpLjgnONWlfYO3g67S5Bp19I2jVtakK0Ibnc6no/FQqFeFOe6PgCj8ekoklcrDEcqk2YWuJokpTMZ9vap82bh+CoEeP3eIZkAwmCgItFnQgoDeeigcjgelC4y6rnAp60eAZnrA4+rTxMtCGZ+LBZDSQjIW0Kc4pwBW+KmabCz+LBsmsjY/B4sWlqxqdo3AEPQ6D2WpzePQGUzYVF0RDJhFFhWtPdwA1CmcfP0KqXA6GisF5Mo5ux0FtgnOycIWvgNFi9Q5OSPLykBuoWsgruWI+a7a7y5MdpfAygiCgP3zqGSzNoFbhhaJaLBA9ywREJ748WYa92bkMqjwWmNWmOPVT9Z5yJJNlcNPOoU1n1sibFikquZBJo7vrO7LnVLI7WwCrGNOR8l5OkSqJiC84cyCdjBVpoTKrFxWvl8yeoU3jOy60OFf16jnHhytcQzRIfSPbhjbtkm0eXfWONLo5ipKLBqZnj7wR8U0VFF54sJFgNJEI++YPvxVl720OFyjtiRIYdwgGaWBs++DYTsls02Y5a4YrnGF1eoc3n21x9etW6uyRTSV8h98MLxzukM2qnoQWi+GF6YXDe8K+GW2qGgyLBjfu6B/bTqqLVXCOz3pXuGS2bth2bt/IaYJo0LH7lFWbPvl0cmrv72YPvpZrVRLLOieXSYTnj8xO7k5FazfS8U8jiKLV4R3Zerajb7TmAh9nNdbv2yTJtv7RbUPjO0WThQgo7iptK7lsYPbgzOTuPC/633Iyiej8kbf8R/fmUlWXdpiqCTEYTa7BDUMbT7c6+0l15gxnOevxDcKQ2zUwNrBxu+z0YpBXc1RTVJV4eA7NSCwwy2uAt5F4xDd94NXg/CFFyVTtwKGsid5ksXuGJ9CgL69Uw6lk3SlcxnBu81l276hekHQ6ocYtT8dCU/tf9U8dKPCqQ51B1DftO7I/Fpgr1hS3EHSCXrQ4PN6RTZ6RzXpx1ZSkdc46UrhJtvePbukb3mIwGEsnxtVueSYTmD2wMLW3kOPa7iyyqWhwbnL+0JuJsJ8WqrwqXKNZASlHX/+GLTb3oNCp7ZnbyLpQOPp1rsGN3g1brc4BYVnBQCWbCi0cnjn0OjMU3C3vVDLJqH9mn296XzoepYVKe06IXjRZXey6vrNfWKkP3HpmXSgcQzWne5jlny7bmImFZjHkjvpmeB2CzocWi8lYMOQ7FAkcyWeS1X47YXVp7e7lt9DXOb2vcCIIss2xvMUn2oQjb78Ynjuy1G+E0xXkUolIYNY/ezAenFOqirey2je6EzZUXGesAxtOaW2OWrHIQu4jewpKVuVueReCf8FsMhbxHQ3NHq48zqT4ca7eXuGsCy+9CvT04gEMuY/Tb4TTFeDqnE/HeXh1fNadwouE8iSWnqEI/GbkCVh/NpzDWU9whXM4vQxXOIfTy3CFczi9DFc4h9PLcIVzOL0MVziH08twhXM4vQxXOIfTy3CFczi9DFc4h9PLcIVzOL0MVziniyEUCir+J1d+FBWFFPldlCq4wuuHQlFl3bbKj6Kq1BYJ5BwXVaXH3r1C8VTKb6hqIR6cDcwcKD+CvkP5HO9IU0XvdyYkOl3f8Gare7A8LFI14jsaWZguD08OyWQxGLUO2Pj+KflcLl1V2ZuzGoKgF01mUdRqLeFKmcsmC3l+x7tZcIVzOL0M99I5nF6GK5zD6WW4wjmcXoYrnMPpZfhOW9sgggAWszY4OZJpqlb10+dwauAKbwPEZIRLzoILzgaHTZs6OfZNwk8eoine25yzKlzhbYBs3Qhf/RxxWLXxyULzCvzqOfjF4zS1ftM88O+rEzqgzwmlakHRvu4kuMJbDZEMcOMV5PrLtfGpQY/Owd/cSkMxbbxuEETRbHGIktlgsujF9rccpcViOh5NxQKdllTHFd5qiNUCn7ueXHKONj416IwfvvFdGopo4/WB0Wy1e0aMFpsoSCB0RBsjVDgtsmYbvpl9SraD4ia+l95+aE6h8dRaH8p6z4FH6+3wjsgOt2gwdoi8ERYs6AVcdPpGtxokkzbbAXAb3mpqbDhNZ+GhX8OTL5aHJ+a8HfCRy4nbUR6tQxtu9w65+jcI+to+8B0CCiqTigVnDnZI8yxuw9tNXoGjMzQYXuMD3pqETGVL3XWH0WStbBJOVbVYUNryUAt5qta6VIQQk2x3D28yGE/tKLRBcBveampteDQB3/8ZffHN8vCEkJFB+NPfJyMD5eF6s+GCXt+/cafZorkwhbwSXpjMtulin04Q7a4Bq1v7W1SCskonI6GZQ/lcmy1579twAjqWW7IExWH7t145J4comlj4vQhV85lkLJ9Nt+WRTcXQIddeSjVoyc0Wp2tok9huS977Cjewu9wWbYD/YB0xm61Gs1XohEPUBoFLGBHFFj0ql0vO6qDIZbvLMzRukGRtqh30spcuSmajyWzvHzOajikcobRYVAupeDgenFNyGVUtaE+0hGZ46SDq4fxdYGrJ5pMvBK++RePtcT4xCO8f37FkxpVMau7wW0q+bRsTNtdA34Zt5a+ZlIoqBhL4FcpbmwRIx0Oh2cPtctd7U+EGg1E0WV39o5L5eHljaiGfigdjwflCLtsynTdF4QNu+NLNxKNFp02F5vLw1Etw1yNtyZbtaIUXaSGXzuUzZpuTxYZLIqc0hSKfP9yWc/Je89JFg2R1egfGTx8c33F8eSOC3mBzDQ1tOsMztEkyod/O4/MTw3Ly3n0GXHCGNuZUUFALwbnJZDQIRdS1ZjuZu25zuwfH0aksz7SS3lG4IEoWu2dgbEf/2A6DaVnkoxbzuXQmGSsWakuCoc6t7sGhidNR5+wkhuv8hOgNIPF3aWXQHwzPHUpE/eix14p8qA0i7wWF6/UG2e4Z3LRzYHynJNfe1sL3OZtOBBeOhGYn/TP7gvOHc+l4sVBAn0r7jhIlnQ8MbtnlHprAuF3orv2kYhHyOZYb16RHoaVbFd1OQcmHFw4nYkGg1SK3e5jIW7u73t1xuE4QTRa7a3CDZFzBIS8WVYx80GXKJKPZdFybxShdMhtlu9XdL0ky0QlEV5v5qBYLqWgoFpwtNGEfrilxOP4LztwGctM+Ohjn79pG+lzlEbvK9tOH6cPPlYetpMPjcPyYzR58vTxEm4FeocXhBiJUbrylYsHw3JGWbbx1q8LRxpqtTod3VDSbdaT23IvtlefzaLrjgelsJqnNViNKJtnmsti9BqNMBP3in+AYtKgk45GofxqXiQZWRO/GjBdiMsHHryDXXFoecoUvcRyFI2WRmx0eHZqR6t314Nyh1my8dZ+Xjtq2urxDE7u8G7ajT14jb9Q2SjsZCwbnJkOzB1aTN6LkMtHArH9qX3jhCPPblQJ77ysgOtHq6BuZ2NU/tl0yW/k5MKde0M6gktPRancdwGxzewc3teaCSjcpnBBBtmGYvKt/5DTJbNPpql+8WlTySjoWCs4eCEzvx2VyLQ52Pp+JBlHneyP+o5lUXFWUWp0LIoZPIxNnDoxtN5pthPTO3iSnBZRFnoyGqjbeAEw2l2dos9j8ZJiu+bxa7O6RrWcPbkJzaoMabdMiipkF3HMHfNP70rEwrdOpzucykcCMf+qdSHAml4mrqrpM56XFZfOuwfGd6Nxrs42BQl0FDPR8iekyyiJnG2/VR2gmm9Mzgpa8uRtvXfBxQRM6tuP8/vGdGDijk67NlqFQKKqpZCwws3/+yDupaKBebVei5HNR3xT+nJhvOptOUtZSS3uqjE4nmG2uwc1nDE2cYcKFpiFIEpyzk2weW+MDJkZBOnazitMVoMjD84cTcT8tqbw8iSI3W5zeEbTkTXTXO3qnzeLwOrzDksm2fLsbXzUFNZ9MREJzKGxttnEIeoPdPSDb+0TJTAjG5LUvoFgs5rOJ0Mxkps6LTTU7bacI32nr5J22GgRR9Axukh397BO1tPFGaQbdz5mD+VxTNt4614aP77hwYOMOo2yvUVf5HDufZpfsZ4+81Qx5I2zR9U3NHXoD4/N8nr31NefnOp1OMtq8G047YebcMnAdb1ydFpsMAvfbuwNVUYLzh1JRH2GG9ZglN1kcfRu2NMmSd+KHgxBhw4536VaJTvOZZGB6/8zBN+KhhWZXC0edR3xH5w/uRhdLUWor7OFvj4fn6+46mlcgm9O+PnWsqHC+yd81lEWejATxU65NlZBkR9/o1maIvBMVbnF6RNG4fNc6m074ju6bOfh6LDR/Kk2n66VQUNCez+5/PTx3WMkc07laLGQSUW1QF6ksTTXIsXzqJUjwxsbdBBP53GQ85FvyCZnHTqnJYuvfsE00NljkHWnD2T+56oVheBOam5w98HoistBKbVeiqkrYPzUz+RquwUo2VSzko8G53Orn7avB7mbd/wTc9wQNhGgmS4PRk3889xrc+SBN8p74HQIV9SLaYb1oPP4DvdRkzF8ZYOInnlLCdhlGtzXWknfiTlvl7kWZyd2/bpewV0QQRJPNWchmspmTtJ9EYNt3pS9P4f0vwqmcHawdvtO2GlU7bbSIQlUKefzTlmeOA+pZjx+C6rNPFCMKMh71+6f2aVOnTCfa8ErY/mQq2VHyRtCeJyP+k5Y3wnKcCmrpUTz5R0vkzVkjJceTiHpJrzec8CGKYo28Eeau63Qmq8vu0coKnjqdrnCEUt58j9OhqMsuI586oqA3LpaaPHW6QOEcTseCrphaaNzJSAmV0OKyIs0nDVc4pwdhpSmtcuMfhtoT3Fw6Hpo/ksukCkrupB+4RlTWXScqgWLD/NZO32k7YZ4QpwV03U4bsVng09fBYmeYhvHGfnj0eVpxYopg+F2q23vyOtIZJKd32OpcvBFcKMYi88HZg+XhKcIVzjkx3adwtxO+/gUy0qeNGwTdvQ++cxcNnVQSxOoIguDwjDoHx8rDxiqce+kcTi/DFc7h9DLrQuGiZNL1UIcTzomhKqSSNJlp7KORFwpaRY/H4ZJkkmSbbO9LRH3JiF+b5dRJ98Xhej2rHik1uglMOgvBMFUaXJyzqXF4zypcj+I222yeIZPsKKo0Ew/5Z/arqqI9zakHnrXaVPhOW32IBjTbLu/I1r6RLShvnNEJxGRl5ZPL38DhrB96SuGCoEdte4a3eEdOk62uyi7COr3eZHFqAw5n3dAjCidEMFnszqFNnpEtst2tr849Ym1PUrFExKfT8WIJnPVFLyhcb5DQcveNbHO4B5ciNA2VKtlsgkU1h5IRf7FxyYAcTlfQ3QpHt9zi8A6On+4dPa2mOAbabSWfi8cDwdkDoblD2XprLXE4PUG3Khz9bYvdPTi+s29sq2SyaLOL0GIhEw8FZw+GZidTiXBnmm4iSWRskGzZSExGUlMBnsNpEN33wUIxmG3u/rEd3g3bjRbHsq5GxWwyGvFPBecnU7FgM67vNgTitMO/+ST526/Bf/kj+Ld/AFvH2BEup3GwTmGd99BeXAvpsvNwyWJzOAdR4cLySqwqLRTy6VQkujBdrn/cyZBzTyd/fkv5a5ovgD8Ijz4PT74IBbUDK7d0X8aL0QBbxutrJtMaDh6h8drafjzjhSmcEMHq9roHNgr6ZYlKKmUbaqlYLOLPxOtuadR6iEWGT19DLr9QG5egOQVm5uH+p+DltzutXze/W9Yo6ANPwc8fo+mqF7zeM150oEOvfMO2c/pGttbImwJVi4V0MhKcPeyf2p+OBru3dBmRRDKxAf7oE/CVT5MNDSvTxVnndLzCCejNZu/INtFoZoMKilTNZ5KRhWnf1DuJyELDW/m3BWI0wrk7MDIn113alrCN02N0usIJeuc6gdWgrISysvLJ0MLcwd1R/xRrFdpDEL2euZc3Xwv/82vkjC3aLKcuCGsdhQ5epz20l9dCOj0OrwHDctCRVCzkP7qne9NXauJw9gfA4IKtYlVLGfvH+sOw/xD99p3aVJvovjjcYYPPfxSGOu8mwnOvwMPP0Wzr4vAuU3g2nQjNHUbfXBt3J7UKjybhjb0QjsH73sU+mouU/jKlNoa+EDzwDH3it+X51sPvljUVfreMkU3H/Uf3zux/tdvlvTJv7Ie7HoH/cwd9+mVtBnVVau9EBAH6PXDLDeQLHyOjfAeOUx+drnB0MTCeCs1Nzux/LR7xabO9B3rkqkrfOQj/9DP6vbvp4WltvgQRdETUw3vOY9vsN7yfaZ7DWRsdb8MpemLJiH9GG/Y6NK+wdqI/vI/+7FFtahFiMMBwH3z4A/DHv0fO2o6y157gcFanZ2u8dDIrxOG330t//Wp5WIYlsZ61DW68EiZGag7NWBWhWR+8tgfufZxmWFouEUUwN6W/vIbDBldeTD5wQXlEE2l4/nVYtgY1kqJKEynt6wp4HF4vXOFtYC0KR1h/Ur0IH74MLrsAXPbK43GqFCGfg4NH4ZfPwJsHYHwEbv4QOKza0w2HCGCViV0ujzCggGQW4vHysCmEEnDbz+hCUBsuwhVeL1zhbWCNCi9DRAFO3wL4zedsZ7a6GvriG/C9u2HDIHzpZuJpdIuP9kGjMfjmbXSyaj8C4QqvFx7LdTpUUeGNA/DLZyGz0ud4wAMGfimtlmb1LTv1R8t3SbkNbwN12XCEjAzAJ66Gs04j0jIb/uSLcPv9sHGY2/BKSn3Lrm1837JT59HfwCt7am4WcS99/Sqc3ZGa2ADXvRcmxpY3lKfPvwp3PkJ9QbJ1HG65Hjwu7YlmIBmW1hd2vQc9i1wz795HE/CPd568wvndskW4wtvAWnfatm6Em66E0UFwWGqKwLDmeN+9CyZnyhvOLD63y9C8OpMYC1z9HnLujvKIJV0+9xrc+2R52BRUFRJJdnO+Gq7weuEKbwMnVDjxOmHzRrj+cjI+rE0tQlNZeOUtePg5ODzTsquy/H54o+D3w9c7aKvJzgm45Ub44k0ryPvoLPyvH8CP7qOTU917E74VNKdv2ak/oOW1PTrRhptsLod7sVs6hXwuHZ4/Uh72BqvZcLZVdtomuOmDZLD2UhQNhGHPIXjwGXp4VptqId1nw1nfMi9InXfKEEtBJMYSCipYd166TicI+mMhJdqqji2oeHLUKhyX9mdegtf2wtUXk3NPL09WQvcdhjsegIUgjdWW+GoN/G5ZU1l3XnqxqCr5/NKjx+S9ApIBLj6bZZtXyxsXX+oPs/Ow795N9x1pl7w5XQ2Pw9sPEQXisBGXXRuXoAWVZZ7/47/AD+6lMwvaLIdTJ1zhHQc6afToPHznLrjtHvr2QZrrvq70nM6BK7yDoEVKowl46XX44T302d9Rf0h7gsM5WbjC20FRhULtWRdVFNhT2lG77T403dosh3NqcIW3g5wCCyF2A7SEZrpffANuL5nuOG+iyGkYXOFtgB2H7t4L0/M0labROOw5CD99GH5wHz3UhrPuXmWpVVhHPbQX10I68Tx8PcDqrm2bgE2DEE+hc059taUOOoruy3gxiLBtExg6r6Dd/imaWPd9y9pOaa0lIBBwOljCTSwJaic2DGwZPC+9UfC89LZBBHSidKyq6aAX3vMudqnrv/9b8u2vk//3F/Dtr+OQyFoNIw6ni+AKL2l72zh89Ar488/DrX9JvvUfyZd+j9z4QTKmXfwgThtceAYMe8tDDqeLWKcKJ6OD5P0Xkk9cTf7ij+DH3yR/9WWCVvrs7cRi1r6jBuah83Cme+B9yxZZR3E4axhy+gRcdA7ZtlGbWjN072G49W46vU6zR7svDnda4Q9vguHO61v269/Bg79e733LGgIreTc6BJuG2C3C0zbC+DDoRBDwH8vibe2b1gz9Xz+iL+7WBusPfresqfCdtrVCDCLZMkYuexf54ifgH/8L/OWX4PM3wrWXwrZxIklE1BGdcDLy3ncE5nq3oRKnp+luhROTkWzbRC49j9x8Dfn6F+B//hn8+R/CH3wULjmHOKzEaCCinuiXtR9fBo3G6Svv0Eeeo//4L8vbhsH0PISi2tccTlfRfV46MZtg4yC4HKw79OmbYcANegFEEUS0z3VkONBwHCan4HdvwfO7Wd0/fB/Kj4vPYeUZ8OeXvw1jb5T9wanycH3CvfSmwuNwIMN9rK3HCD762PYJilyvB4MIRv0aVc0qVAdjcHQGgnE4dBReeAN/KtNzsViZyoJOAfzrm+Ddu5Z+LH3uFVYXbX1XX+AKbyrrUeGsHMKAB6wyM9SDXpgYAdkEJgMYjSd0uZegOQUCEZidh3cOw1MvLlrpIqisZbH2TdWQM7eik7+UC0VTOfjWD+nr+8rDdQtXeFNZLwpnjjHa6k2jMOSG0REwSyCJ7L9NpjVqmmay4A/DQoD992v7YHK6ZKVVYEeRVbXvVoNc/3742AdZH98SdPc+VkEpGC4P1y1c4U2lNxXOTrPcDnBawW4FrxMG+2BsiBlth42gqtcMTWdgIQgBFHYYXnqTtd1FK11AQ113JjkZ6oMv3ES2T2hj/OF/exu88jYtdtlWRcPpOoWzTxcGXB1IJrvc2PSOwllrDpcVrCVJb9kIE6PMROPDKhNjHX8P6gvDzDzM+OC3r0M4zmpQq2irC8wtPwXI1e9l+ecWrRE3nZyBb/2ILvBCK12ocJsVbr6mE/uWPd5zfcuIwwoYVNttTNsbR2GkH8zGkq22sKLWa4PGUrDgg2iSmevnXoF4GpQCCptmG1bDjDjt8IWPw5lbl7pD0gd/DT99hGYy5eF6pvsUzu+WLdLE83BiMZPzz4DP3gD/6uPwhzfALTeSKy8iOyfI+DDxOI4vb1b2JJKgbx+gv3iMfuVv4Ot/B//7R6xRNr47R+dpJEaTqQbKm3HWabBx6Ji85/3oIHB5c7qdZma8XH4BfPET5KKzyMQI8bpZzYPVQb+FBiN0zyR98Q161yPwZ38L//Uf4Nt3wj1PoNhY2XAUfKLRql6EhQ+7toHNoo2RfUd5HhunB2iWl86KbPznL5LTxrXxSrCwOZaASBTeOggvvQ1KnjWsLaiQytJ8S7sgkDO2wRc+Rvrc5SHN5uHvfgi797ex6gORtP18hDa1j+8a6D4v3WWDf/cZGNJ6Y3UQGIff91Qv9B5lVvFLn4TzdjKprwST97QPnvgNvD0J8RTbEm8f5A8+Au+/kBi1PXxW6vTvb0evoTxsDUQgYLez/idmEzhl2HWa9gTy/OuAoqJFiCdpnLUTbjHdp3CMAQe9YDy2SnYK+KHqmb5l5F2nw+c+yrrtrQRT+EIQnn4Z3tqHRhuNOVVa3ZaxDLFb4c8+R7Ycu1JK/+7H8PJbNRuezaOkbStsGoHLLgSbDF7nUs5sGdZROBBkZ/t7j8IzL7a+YGPXKby76NadNti9D/7hTnrvk6znVrVbghBJJGOD8HtXw9c+D5//KFx8FnHaiKEdzSI/cFGlO8f22PYcaqG8dTAxhkshfPnTuCaSbeM18kaIbCQbR8j4KLz3PLa1cfoWYq3YMuBwVqeJCqd5hb59AH72K7j1p3D/k/S1vXTGX7NVxnTe52Ie6ceuws8uvP8i0u8ipjoyXk4R9rt2bgZjRSjxu3cg06JGQsyZxN/++RvJBbtYSvyJKEsdvvpZ+ORVLNTkcE5E02+PMp1PLcADz8CtP4OfPwqv7qGz/pqtI9aar89Fzt4Ov38tfP2P4LrLiNtBbBbUv/YdzeOSc2G84pAsHIXfvd2aVmHMOd+ygR0ijmsF4ZZgFX+y+WOP6kCK3a579znwwYta8f5wupymK7wMVRSW3f3SG/CTX8Jtv4D7n6H7j9JUWnt6EbRpZMANN7wfvvEV+PLNcNkFxGpunuvOqkGcfRrb3FrirYNwZEb7utlYZLjyIjJ0rMAjVQv4LtGX34Lb74cf3nPsgYvOgaP4rPZ9+MplI/PYhzouo4PTabRI4WWoUmAn22/uh188CrfezVx3DNHnAzVlq9CisrtlZ2yD6z8Af/Jp+NClxCYvmdlGcvpm2DpO9IsGPKfAC7tZy6HmwxYXjKu3b9bG+NvTOXhlL/zofnbX5aFn6ZMvLj3gH/6ZZfu89DYNxWhR24YlXhe+P0TWcmw5nBVpqcKXoKpKj86hJYe/vwN+8hC8to8uBGt1riMYapIzTyM3XwP/35eYsW0orO3BtZeCXBHzz/rhnckWnYF7nPCR97E6zSWYfX7nIPzwXpbws6xvGU1n2dv1nbvgiRcgUfEunb6F/RwOZ3Xao/AyTOeBMKuycscv4Yf3wSPP01IrL+3pCsjoAHzw3Q024xMbYMs4ESpCgF/9BvKtOrHD0KNyPzyUgKdeOv41VXY39sFnYNZ3zIxbzXDBLlI69S23xWrSA0Q91FM/h9M5tPRu2QkhQ/3wnrPgI+9fnrVOZ/zw1f/RQANLvvIpuHAXEbTNKpZJ8pX/zk56WwLZOgb/8Ytk0YOgL7zBThbXsMNHPvx+uOHyJeecPvA0O60wiLBhmFWzahIOC5y/i5y7ozzi5+GNpbvvltUFi04tMvzt14iz9ryXJavf+xhVG/Nq2S/6/l9VBrH0Xx6C+59u3TH4OaeR//Cvy18zm/zPDzKtrgGyY4IdiQ94ykO67xD87x+zLbcv3bxaclHDoYk0uwL00DPauIVwhddLO730Gpi3eeUl8BdfqJQ3Cpqdtx08Sn/+aKPkzfjkNWA4FoGzLYAHn22dvHEVO3+XNkDiGYjGta9PSDzN7sMvIVva4D+jyyCf+PS+GRTZrcNjfhz7QLShY2+DQSNLmybETlE4k/eH3kc+dz0ZG9Kmyn+/dBpe2E3/07fKMw3jojOr/ulPvsyKPXHWiKhjIm8HRVWp7C6lNxjsriGj1WmUrd37MFkcor4yhb6IK5n25SnTEV46u/Jx7aXk41dp4xLshWG8d+vd9LcNbjZC0FP4/EeXln5aLMA3bqVvHtDGzYfZ8E9fSy6/oDykkSTcfi997tXy8PiQkUH4098nI1qaLdue+MZ3od8Nf/x7LSppQghMzsA/3U0PtypxoAJBNAyOny4ZLWz/r0cpKEp4YTIeaszl5fbbcHb0/ddfqZQ3LjlM3vEk/M33Gi5vxkVna1+Ueflt2HNY+7o1KAq7bLOEUTz5omKkiKs05HLgD4GvJY93JuHOB9oib0RV8ul4SK1w1HsMFoWoSi6zwonSydFmG048TtbTd3SgstkQBt7AsmIepweOalONg113+ea/B90xE0D/70/gN6+28io4u/v98avJdYtXtTI5uOMB+tjz5eHxIReeBZ+5jr1vJeiLb8D37qaJNlwpbReCKA1t3CnJVm3cWxQLhfDC0WiwYQto22w4MRvJdZfB178AGwar5J3NwmO/od/8flPkjbq+5lL8dcfkHY6zOL+1lR5YWv7zr9LAYo1HDFIuOGNJtCcA/fPKXa5EmjVsWU+ghfPP7E8nI0XaquSFVqGqaiQ43UB5I+2x4Shv+PBl8KH3giiy65OLsMzNR5+jP3lQGzcatpTc/tesOsUi7BDunsdbX8uFDPfDn9zMLoSWYCfMdz1EH/lNebgaZOtGVlej3720JtIfPwC/epYq626bUC+ZTGa7xe7S6434ERIqM5e6kEIhn0knEpGFXKrBdUfaoHBit8CNV8B7zmPXJyqgU/PwTz+DA1Nr7F5QL8yAX3UJ+ewN2rgE/fR/aHHFqDIsX/WWG8gFZ5aHrHe8LwiPvQBPvbD8Ln0Zdkfly5+C8eFjHZfm/fCN71H/em/YwDkOrVY42TAEn7oGtm2qaXtAj8zAP/2C7j+ijdcGC2g3j4IkwZ5JFs0eF5b0+s2vkg3HusbTJ1+C793VroYH7NLoH39y6XSQ5b1E07DvMLy+h7VMRM0nFxPsRvphxzhgBD7gJeKx029631Pw80ebVJ2S0xu0VOFM3r9/HZw+UZkNztJF8TN939N0ek6bWhvEKjNf4JydgJ/5yVm4437qX7V7ATPg5++CP/lUZT4s/cv/R99qTObQScDOCK9jocqSL8MseUGBTBaSKNpS55YyJiPYTLiQVW1YvLYXvvtTdqGdw1mdFimcWMxwyTnomTMnsyJ9msn77l/B0y/VW06UlTH6+BVwybnlzFOqFOHBp+G+J1ZLLGe/9GufI2drmdUI3b0Xvnlby/LYVoT0u+Az17OCdnVC5wPw17fShaA25nBWoRV76SzBg3X8u4Js2VAl70CYlTp44oW65b1tE/zhjUvyZjOiDraPszKGq4GOLv6/KnnutfbKG2HtmX50P334OeqPaFNrgJ0yfPP7XN6ctdB0hZN+D3ziKrj0fFLZbwA/pm8fZA0PflO3zMi2jfDpD8H5O2uLH7gdrA7xSrDY9X3vYhv4JViNpGiC9TzrAKg/CL94HB54ir0hJ4LOBVhbnP9zO53za1McznFprpdOJkbgIx+As7bWNB5kn+Z/fhAOTdd1TMXaze3YBNe+DyaGq+51l2ArxX/7Ln1nUhtXQCQJvvVnxLWYJYIu/a+epT++vzzsBFg/Y4eV7RRYzeC2w6YNbHbJJZldAAxn5gKsAkQs2ZoycpzeoFkKZ7vcm0bg41fBtmNlkhAaTcJdD8Orb0EsVZ+8MfD+5NVw3ulgWzUnmeKq8dAzNXXX2e7UuTvI127Rxvht6Qz88V+tdijVRtguoF4HuHix3gwUlipeKHm266YorBkLh1MPTfHS2b7ajVewVp6nbayV9x33wbMvsyZkdcnb7WRnbBefQxzWSnnTTLYq2WPX1hVuX0gifPhy7Wv8v6gF2L2vA+WNoBvCKqum0jQUoaEo9Ye0h9azjcubUzeNVziT98euhCvfTYb6qk7Fjs7B938Ov91db28TsmUMPns9vPe8mjrq9JW3MYyHQEW+h8cG1cE5M+CbRqHiRiqr0/TES9rXnO5HNJiMZmv5YTBZhGXVgdY5TbDhN1wOl53P+uBUQN/cBz+4B53zuuWN+vzyzfCundW+QII++yrc8QA8/Bz4KhSOv7Tm3jIa8KsuLlcyQ6iqwP4jsHeFWJ3TjQiiwdE37B3Zqj2GNqHgtec4JRqscNaH8KJzao0t21d7CPYerit9mlVK3zEB//4z0HcsDRth2+C3/QJ+fB+d9cOcHw4ePfZjzWYYqzpvhz4XVDQkg2yBORH5VtRL5rQAQohBMktmS/mhl0xQ8VHhII1+O6wWqN42ZxycgtmF+gJvuwU+dR35r19ijccr5b0QYPJ++a1yyWGWwT61wJLASrDeCWduA4ddG0oGeN+F7P55CZadGozAS2+VhxzOeqDRCk+m4Z2DtFBtqzePwQDG5GstysH6eH/iqqUSKEtorv5Lb1ZdTUGpJyqu4zgsx0Lxfg+8+wztaySXg9f30+Q6ukrN4TRY4eyo9sf3w9sHqkQ+PgQf/QB4tP77x4eMDsIXbiIfuEgbL8Jc/dvuZe0Na3yBcASCFbnZsgylOy0s9r747Ko+npE4PNqGAsCc5iEaZGGxHjZnRRoftFBfkGWz7Dm4FO6yTnpnboWr3kMW/ecVIQYD2TjEssfP2KpN4U/DRyJF73wIvvdTOrtS5apMHiqPkdC9Hy5VjDFJcF5FFjq+mP1HWJ5sJyE0o1VTSxD0ekLa+eLxt5stTsfgBn1FASxBx6PwWpryhtAjs/DLZ2Fmge1dl2Aiv+w8uOa97IuVYIH3hy+DP/3sUiVwhJlrdMLv+CW953E6v0oadjYHc76lLXq2yYerSb+bXbREd2AJ1PaDv9a+7gB0giDbnI7+jZK0ei59p2KQjH3D26x2T7tWKEHQW9yevtHNsmzXkcrjMR0lXONVNO3t2HsYHn8BAvGl29dM25ecDRuHK3fOyrByCBh4f/zKanmrMO+Hux6hT72oTa0EM86v74dwTBsjRgnO3gEfu0Ib4vdgyPDOIXp0Vhu3FSIIJtnav+G0gbHtdlefZOmyXv+oartnRHZ63KNbPCNbTFYHaaGodDq91eEdmjijf2irXjJrsyWKRTUe9eUzSW3MKdGsvw1rsvWb11hPsuSxqpHE7YDP3wCbS0nXixCvE266sibwpgUFDkzBD+6lj/1WmzoO+CsqOwoMeuHis2DjiDZEwnH43Zva121FMsruoU39Y2fIdg8RRJ3eYHcPdVdRQUFvlK1sSwWlbnV6vMOb7e4BFF752eaB64jZ6vSObPGMbpPMtupTMbWg5JKRQNQ/i19pc5wSTVx9mcjv/hXs3lt5U4J5zp+6jmzUeuKT8SH46i3kA+8uDxF28SuTg31H4dt30jf2a7PHBx31pXIo+DP7XGTLGOvaV4IZ8Hkf7KuvekzDwQ+o7HAPjG93uIf0FWk5oslsxM9rl6AXRc/gRv2xA1HBYJQ9gxODEzutzv7mRebo+LgGRgfHd1hdfTWhAS0UU7FYZOFIcG6ykG9R27kuorn+FRP5Hb+E3furkkzGBuDGK8j4CNk2Bl/9HCtmtAi7BhOJsRtU3/kp27FbI/EkC8WXKqLUgOb92Zfbm4hukm2D46f3b9gu1kTdFIoFQJEIVS0vOhhKQCeoheoMeUFnRJ9kYHxgbFvD27zjqoFrx9jWcxz9Y6TGU1CpUsgloj7/9L5YaKGo1pcuuU5oRY0XVlf0Mx+GXVuWX/mshO2rhWLws1/Rp+rOGyfbJ1iFpmXXTlhdJPT2v31HXeUKLXaPQTLHwwuFmo9y/Rgkk80zbHV4BLE6z48WoQjZdCIZ8yXCfowhtSc6Hskkm21Oh3eU6ATdspZpaiEbDc5H/TN1JTitBrrl6PYYTLW3CSn7sKiZRCwWms3E6yiesQ5pVRWnLWNwyw2waWS1XRm2r+aPsMLG9csbIdvG4d98ihVFqobdx7rnMXrPE9p4DRgM5r4NW40Wey6VQJEnYv7iyZaCke0u79BEzYYQg4KSSyeiwVhoRlW6Mm6UZJvdOYhxONs3XfY3zaaSseBsMuqv7CJYF/g58Y5M2NwVV4aWUIu5fCoe8ceDcw1ZR3qbVincZIRLz4crLoShvuV76ezvdHAavn83PVxfMcYlmPW+5Ubyrp3aeBF2bvfdn9LJaW28BmzOAdfgpnKojO5oNh0PzR3G/yk/u0aY1zq8yWiUaxqDlk8Wcqm4b3afku36oFF2eOyeEbN5hf6naMyzyYRvan8R45B6QG3bXP2uwQ2Cvjb9GT+qRUozUb9v9kCTSm73Hi1SOMJEfu2lcNkF4HaQRZ+L/W58AW8dYIH3KaSjsBT0m68jV1+sjUuwH/7zx+ldD5WHa0G2OD3DW8Tqi3FKLovmKBaaK+TXVFwFHUuHZ4Toly1ktJjPZaKBuWSkviz9TkZEpx196cFNpPQ5qnGnMcxBSxsJzKxRkCb0CgbGlx8ulH0BdA2CC5O55Jo7MXNaqXCEVUq76UNw2blLeS80HIOX3oRfPn3qZf3JWaeR/6T13C/DLp/d9gv65to25EvY3AOewXFd9b4XGt6iijJPhxeOZlPHq15sdXldg5v1ehFXl+WFaOKh+fDCkYLSg4UcJJPV0TdqsaPTXh0w0yIhNJdKhvzT6diqta4RDOk9QxNWVz/+JZe/dUo+EwvOYXivjTlrpqUKR4jbDte8Fy48m3jYrhj9zr+wtgSNgG22/fktlTlzdPd++Pvb6+raJ4iSSbY5+keNpiozwj6pQNDzxOg5GphZ3hrSJDswaMT/KxGE5XsN2UTUN7VH6UVtVyLb3E7viNFiq43MKeSVLCo8snBEXbbjjVGb1dnvcA8ajOjt12obl9dUPLBwZI825tRJqxWOEFmGnZvAYoa3J+s4EjsRxOuCWz5Kzq3IRb/rYfrzx7RBPegNks05iPZElKoLSOLHjQLKPBUPJiJ+dLnL886+EWf/mA4EistA9WcUA/hEaCEWnl8nZzlozC1OL8q15tyE4ptH1Xw2kwwt4FtX1jkuhWa70+YaNFocOtYuslreajGTSYTmDmXT3C0/edqg8CbBWoh84hpyzSXlIT08C9//eb1tkiqRJNnmGbY43IJY7bRTKKq5XDqVjoeVXNrRv6F0oL3CDadYYBYde3UxOX/9YDTbcMlDz73mJgg75SoUMolIPLxQpKrF0Wex9+l1AlR0pyyhKtkcRu8Y12gTnJOldxSOsAa917wPNg7C0Xl4+mXWC+3U0BsMJovL6uozW6pa/5aMOTvQxgBdMFQddJfJpZNzh96szQxZT7BMFYfb3j8iGeSauitF9Gdw1StSUS8uT5FQVTURmAv5j/CTsIbQUwpHWPMDIgBVG9hwV48BoqvPau+XTMtOtpeRy6QSkQVmo9rdUKUTkGSrxe61Ofpq1sHyp44snamUoIVCKhWLBWayqThbQDmNoNcU3iQwYtRLktM9bLK7RcOyMlUl8H1MhH2hucmiqrbxA0p0OpNsE/SGgprXEX0+m1Da2kEBX49kttrdI2aLXajo3F5JkRYwRI8GZjKxENpwbZbTCLjC60AQMTR3ynaXbPNqUxWgqvOZpG96X37ZTnvLMJitVptLdvQTHaFqAX3gfC6djgSS8XAbQwZRMrn6N5jZffIV0pZVJRfxTyUiAX4trBlwhdcHhpeCXm/1DtptfXpjVWIMC84BRZ6K+mez6fga02MahV5vkF19Nke/XpTQVOJflUARDWhpcyufScQxcMjnUi1+VTqdYLTYLQ6vbHMIenTUq9xyDGSSyXAiNJ9NJ3iOWpPgCj8ZmMoNRtfAqNniWr5XpOSz2XQ0EfKnE624FCHoRVSRbHObrW79Km4wu4alpNLJRDLqz2WTrdkjEI3s1o3F6hZR29V1OItFNZdJRP1z2VRE5RsWzYQr/ORBa2l1D5gsDrOl9k4b2y7OZ6LB2Uwy1rz8c1xoDGbZYvNYnJ7lWdw1oIuBqAray1gqFsAXpj3RBNCJMJlsNs+g0eJcXjpNyeeivqOpeEgtqJRy091cuMJPCdQY0Ys214DN7q1x2hH0PNFdjwXmstlEY91jnR6XFxNqW3Z4DKJUc/GDKbmQK+YVvYQee+2t1bLOw/NHlFwO7bn2RINAt9xgttqc/WabC3Vek8RSyCvpVDQZns+k49wtbw1c4Q0AP9aiweQaHDXJzuVZq+i0o7ueivgzjTgEwp+PkrY4+sw2N7rB+Ku1JxZRlGwiMJ+MB/F34atyeIclk3VZ0k6xiOF5Jh3yHVVyaSXXmPIYmltuceHqU5OfhnrGf348NIf/vZ7TBFoPV3jDEFF4nn6T2W6WnTX51cxq5tPxwBz6xku5rieBaDBY0DxaPUajZfndtUI+n4jMJWOhQi67lP4tmWS082aL3YivahlqsVC6aj2Vz2QLhZP3MvT4ygxG19BGCdc4be4Y7G6ebxrdmUYtJZy1wxXeSNBpR9fU4h6SrS5JMkK1MUedZ5KReGAhnY7W66OiERYNRodnSLa5V8gDQ8OdTSbCC5lEePnGlSCIgsFg94xKZtloWqG0K8vBTcfjgZm8ksWlSJtdGzr86Qazo2/IbHXpMGap/iejW57JxOL+2cxx7+RxmgdXeONBnYtGs90zaLK62E3SCoeVBcj5bCw4k4nHFCW/ln0mFnLrJVvfsNXpra4NzkBt53PpZMSXTsWU45apEEqhux2ddslmqL4AX0bJpvCHJEIL+VwWfQ5t9rigW253D8srZQFpexDB+Wym1QeHnEq4wpsFOu2yc0B2uCSjpWY/mTntmVQkOJtJxNTVfWOMsdEjsLmGrS4vLho15rFIC0ouEwv4cqnY2jfMUOeSUbZ4hsyyA3967XXuYumkLxVNhQPZTEU3uGXo2Xphdg+NG+XacwQkl0lH/dP46vLdX8em2+EKbyLs2Lx0zQo9WEEv6WrOhJUCyjweWUgnojW3LIgOLbfB7h0yWzyiZFxeEaGA6gnNZ1OxbDp5Ert36E6bZIfdMyCZrDq9oTo9XNN52DeVXWlXDNcaFDdrimB3Li8Ry1yUdDIamMLFS5vitBWu8KaDplK2ey12j9Fi0VW30UM7zLbHgvOJqE8tFMtOO8a1Fle/1eY2yiu0eVOVXDwcQBt5/JIpa0FvYOf5ZovDIJmXh9AU/YxMkpniVHLpAqwBFwbvkMmCbvny0rE0m0nGw/OZeLjA8087Bq7wVoA2GZ12q7NfdngwqCb6qnC6WCwq2WQ0NJ+JhXWi3j00IVtri8YiGHIrSiYWXEiEG3ZrGp0MVu7CNSDJdqbzZWdvTOfJeCQ0o6TTGL07B8ZNK6w7xXwmHYv4MtFQnvck6DC4wltH6ZaVzWrvM9vRadcvl9NqqCrLkEuGfYl4CP1zbbZxsJDAINm9IwaTTZQk3dpbl1B8bWynD93yNHfLOxKu8FaDckKP3WLvM5otupUqwyyBri/+cdC+x0P+VCKUa3LPPZ0gGE02q2vAyC6f1u4a1MDccqrmUql4zJ+MBNZJjapuhCu8DRC2R260Or2yq18vGFZseo3qLhZziUg4FQ9kEq07TEbPwmx1os5NspUdztXWVypRpPlcMhUPxUIL/CSsw+EKbxuE6IwW5rRbnF60nzhRni9ViFLz+Vw8OBtvXMhdFyxvBx0NR5/BZBFwAVrahKNQYId0iajvSCZ1vOM0TofAFd5mMDi3uQbs3iFBlAgVCFUVVUnFAtHAbL3pZQ0Ho3N8bbLVYzAaKdHhJ6WQSyWi/kTYx698dgtc4R2BZJZNsk0y2pR8OhELK9k6arw3FVyADGaLLNv1BlM+k0zGQ9wt7y64wjmcXmalfRQOh9MrcIVzOL0MVziH08twhXM4vQxXOIfTy3CFczi9DFc4h9PLcIVzOL0MVziH08twhXM4vQxXOIfTy3CFczi9DFc4h9PLcIVzOL0MVziH08twhXM4vQxXOIfTy3CFczi9DFc4h9O7APz/bfhCqLMrb6oAAAAASUVORK5CYII=;" vertex="1" parent="1">
          <mxGeometry x="603" y="120.5" width="101.75" height="79" as="geometry" />
        </mxCell>
        <mxCell id="vCrRRUYNwniXk347K93_-34" value="Amazon DynamoDB" style="text;strokeColor=none;align=center;fillColor=none;html=1;verticalAlign=middle;whiteSpace=wrap;rounded=0;" vertex="1" parent="1">
          <mxGeometry x="464.5" y="-50" width="60" height="30" as="geometry" />
        </mxCell>
        <mxCell id="vCrRRUYNwniXk347K93_-37" value="Prompt" style="shape=table;startSize=30;container=1;collapsible=0;childLayout=tableLayout;fillColor=#E6E6E6;" vertex="1" parent="1">
          <mxGeometry x="693" y="-26.5" width="130" height="147" as="geometry" />
        </mxCell>
        <mxCell id="vCrRRUYNwniXk347K93_-38" value="" style="shape=tableRow;horizontal=0;startSize=0;swimlaneHead=0;swimlaneBody=0;strokeColor=inherit;top=0;left=0;bottom=0;right=0;collapsible=0;dropTarget=0;fillColor=none;points=[[0,0.5],[1,0.5]];portConstraint=eastwest;" vertex="1" parent="vCrRRUYNwniXk347K93_-37">
          <mxGeometry y="30" width="130" height="27" as="geometry" />
        </mxCell>
        <mxCell id="vCrRRUYNwniXk347K93_-39" value="Conversation History" style="shape=partialRectangle;html=1;whiteSpace=wrap;connectable=0;strokeColor=inherit;overflow=hidden;fillColor=none;top=0;left=0;bottom=0;right=0;pointerEvents=1;" vertex="1" parent="vCrRRUYNwniXk347K93_-38">
          <mxGeometry width="130" height="27" as="geometry">
            <mxRectangle width="130" height="27" as="alternateBounds" />
          </mxGeometry>
        </mxCell>
        <mxCell id="vCrRRUYNwniXk347K93_-40" value="" style="shape=tableRow;horizontal=0;startSize=0;swimlaneHead=0;swimlaneBody=0;strokeColor=inherit;top=0;left=0;bottom=0;right=0;collapsible=0;dropTarget=0;fillColor=none;points=[[0,0.5],[1,0.5]];portConstraint=eastwest;" vertex="1" parent="vCrRRUYNwniXk347K93_-37">
          <mxGeometry y="57" width="130" height="35" as="geometry" />
        </mxCell>
        <mxCell id="vCrRRUYNwniXk347K93_-41" value="Action Groups, Knowledge Bases" style="shape=partialRectangle;html=1;whiteSpace=wrap;connectable=0;strokeColor=inherit;overflow=hidden;fillColor=none;top=0;left=0;bottom=0;right=0;pointerEvents=1;" vertex="1" parent="vCrRRUYNwniXk347K93_-40">
          <mxGeometry width="130" height="35" as="geometry">
            <mxRectangle width="130" height="35" as="alternateBounds" />
          </mxGeometry>
        </mxCell>
        <mxCell id="vCrRRUYNwniXk347K93_-42" value="" style="shape=tableRow;horizontal=0;startSize=0;swimlaneHead=0;swimlaneBody=0;strokeColor=inherit;top=0;left=0;bottom=0;right=0;collapsible=0;dropTarget=0;fillColor=none;points=[[0,0.5],[1,0.5]];portConstraint=eastwest;" vertex="1" parent="vCrRRUYNwniXk347K93_-37">
          <mxGeometry y="92" width="130" height="25" as="geometry" />
        </mxCell>
        <mxCell id="vCrRRUYNwniXk347K93_-43" value="Task (User Input)" style="shape=partialRectangle;html=1;whiteSpace=wrap;connectable=0;strokeColor=inherit;overflow=hidden;fillColor=none;top=0;left=0;bottom=0;right=0;pointerEvents=1;" vertex="1" parent="vCrRRUYNwniXk347K93_-42">
          <mxGeometry width="130" height="25" as="geometry">
            <mxRectangle width="130" height="25" as="alternateBounds" />
          </mxGeometry>
        </mxCell>
        <mxCell id="vCrRRUYNwniXk347K93_-44" value="" style="shape=tableRow;horizontal=0;startSize=0;swimlaneHead=0;swimlaneBody=0;strokeColor=inherit;top=0;left=0;bottom=0;right=0;collapsible=0;dropTarget=0;fillColor=none;points=[[0,0.5],[1,0.5]];portConstraint=eastwest;" vertex="1" parent="vCrRRUYNwniXk347K93_-37">
          <mxGeometry y="117" width="130" height="30" as="geometry" />
        </mxCell>
        <mxCell id="vCrRRUYNwniXk347K93_-45" value="Agent Instructions" style="shape=partialRectangle;html=1;whiteSpace=wrap;connectable=0;strokeColor=inherit;overflow=hidden;fillColor=none;top=0;left=0;bottom=0;right=0;pointerEvents=1;" vertex="1" parent="vCrRRUYNwniXk347K93_-44">
          <mxGeometry width="130" height="30" as="geometry">
            <mxRectangle width="130" height="30" as="alternateBounds" />
          </mxGeometry>
        </mxCell>
        <mxCell id="vCrRRUYNwniXk347K93_-63" style="edgeStyle=orthogonalEdgeStyle;rounded=0;orthogonalLoop=1;jettySize=auto;html=1;" edge="1" parent="1" source="vCrRRUYNwniXk347K93_-50" target="vCrRRUYNwniXk347K93_-31">
          <mxGeometry relative="1" as="geometry" />
        </mxCell>
        <mxCell id="vCrRRUYNwniXk347K93_-50" value="Amazon Bedrock &#xa;Foundation Model" style="shape=image;verticalLabelPosition=bottom;labelBackgroundColor=default;verticalAlign=top;aspect=fixed;imageAspect=0;image=data:image/png,iVBORw0KGgoAAAANSUhEUgAAAEUAAAAzCAYAAADB9sX1AAAR3ElEQVRoQ+1aeXTU53W9aJnRPtp3jaTRBtpAEgiDMQZhtthgjIvTJil2T0yT0zY5TRPHNqWHxmlP23OaeCEpdmsnqVM7bbCdYzC2YyAYDAhJgCS0S2iXRtuMdmm0jETv+8JgIUYLg2z4gy9HB5/Jb37z+93vvfvuu+9bdJUL99YNCCy6B8rNEXFXgSIh2z82gpEJKzROLvDTus0YwxMTE+jp7YOT0yJ4uHvAzU27YPF+V4AiYExcncTg+Djyu5rRNNiLMA8fPBgWAzdnFzgvcsKia688OTmJ0bExmM09OJdXAI2rKxLjDYiJ1kOjcYWLi8ttg3NXgDI2OYEr/Wa801COij4TxhgpOhctDF467DSkwuDtr8CRZe4mGLkF+OWbbyMoKBBW67gCIik+Dps35WDJ4iQVPbez7igoAkb9QA8+bqnByW4jsrwDkBEQpqKkZ2QY+Z1NaLMMYU2oHpm6UJhqm/GHT0+jtrYBaalL8MDq++Dq6oKq6isouFiE9o5ObFi/Fg/lrEVoSLDDUXNHQJlgwWtlilzqbkdZbxcs1lHoPLyxNjASCT4B0GncmEpjqOnrwuWeTjT0dAFVrbDWd8CZIbA4KRHZyzOgj4rkizujs9OEiqpqFBWXouZKHYKDA5GemoJl6SnQ6yMJnOstBY5dUCR8JccXMZddnJzhsuj2wtH2RAJG75gFFb0mlBKQ1uF+uLtqkeUfinT+Bbp5wtXJ6foLyPXm0WF8UlOGD998BwGTLnjska3IyloGH28vPt/nzzVOPmpobMZPX/o5TD3kJEZKArkmeUkS0tNSEBjgf8P1s6FkF5RmhrQ88Bi/GejmgWgPHTxcNdfJ7pZg58VCpBbmvpH3vEgwSsztGLKOIdk3COtCY5CgC5z1lp1dJrx04FVEhIfh23uegrOzxMvNq5t88+KBg+QUZ3VNX1+/iqT7spdjaXoqvx8KrXbuKmUXlGNNlTjSegWNI4NI1gVhd0wqkvyC4eRgxFgZddUk0LevFOOk2YgnIpOwJTJeEejUyJgJmU6TGQd+9p8ICw3Bnm/uVjxib5nN3fi3nx6AISYamzasU8Ac/8MpHDt5GrH6KHxrz5OIiozk559Ho7372AVllOnTQ73QOTIEIcNoEl+guycjxbE0sjAqTrbV48XKPOxLX4s03xDyhlaV2vmsWwUlmlyzZWMOYmL06KWWuVRYoiJt7/PfQ8bSNOoa91l/dkailXweJyDyr4Z57sqQtK0+AjY4PgofEqIXOWEuqIZJmqfa6/FGzUUcXP0o/LXu8wZEflNAefmV1xAWFoJvPf3kjJFiYqT867+/ghgBZXMO4uMMStMI+T6/78d49gffRcayNHh6eDgGykzfmiRD1PZ343xXC1otg9geEY9obz94uLjOGEnCJ1Je360vxb9kbyU/zXytvd+Vl331tV8ilOnzF7v/DM7kCbuc0tODA//xOiIjwpCz7gHEMo2EgGvrGvHs37+AZ77/N4yU1IUHRUizdagf5/iS5whMui4AmyITEcqS6jJDOkjEtbAES8XZFJUEDYXYXNE19aWHhoZw4tRZeLHi3L9qBbTcAHtr2GLB2dw86Hx8GCWx8Pfz+3JAmZpC5T0dKKWO2BSZAB+mkfQsVspwDQkuiOV1KjHL58PkFrnG00UDrch3Ks/58JR8t6yrDSaW50AvLySyWrk72wfG1vTbyvX4uBV1dQ14Zu+P8Nwz36V2SYWHhwOcYvMSZttN4RorI8BGlhdNRlzuboPwTai7F54wpKmIsK1efl7GSKlluV/s48+U84cfy71mClddZWqOEwAxM1wImO3eAsbrNZdwur0BcfzeXy9egUSfwDmrofRJFssIFW8t9u7/Z+x99m+ReY1Tpmqc6VFnv/rwZSd5pYg2VzspIcJOUkiASND5I5I65oSxnmW3iz2KM7tbDwWKO3sSWyR0Uq4L2X7cWsuqNoht+iRsjUhAlKfu+jOJdinoalURJS8dx9SUjTlUV4JC/tYAyT2IQGZT+W7UJ85J1qJ08/Iv4v0jH+HM+Xz8yWPb8Nj2ryhB5+4+cwduF5TPuCOXKLBGKL8NXr5YEaKH3tP3+s70jY/gAh/y9y212MGHS/MLxciklS8zji6+/PnOZoa3C7ZECdd4qYeX0t47OqIUqpR7EYVh7t7wpii0rbMdTfhdSxWMQwOIYrTFk8CFkk+zc84OikSgxl31SvJbTyctV9WxkVwldkMIr18aGK42sZuK9lxuPs4SiJ7uPsTFRsPf3xd1jU0QfoqMCMfK5VnIzEiHp+fNlcguKBW9nSghV5iGBxDI8pkdEg09wbFxhPBCGytPw0Avkhgpwh+2ki0vndfRjBMUf9FMkw3hceSAgBtKugAkS8ByniIIBZRDTRUqOhYzTXosw5TmgA+fYTU3xpcSoKy7A7kEXcsKNsk8c+JfM3/Tg9d8J34ZAiacceh3Ryj5m+Du5qYINy01GX5+vmhqbkF1TS1aWo0YGRlFSHAQtn1lM6ta8A39kV1Q5KV7Ri3o45/Iq1BPH3jzgeZTMWT3OgnYZ20NaOG/D1LGL2VfI+Q712rgrv+qtliR9sbQWJgpHiWNY7z8lOHkQr3Uy2cqJcEXcdNEDUskFdN2GOd/71uyEsFWZ7x7+Ci9FQ3TJFH1P1KNbMtkNitgzp0vQGFRKXZ/bRdWr8qGNyubbX1hXbJUgZqBbvgx5AO4i7YoExKXaiIRMrU6KdeNaflyeZ5y3b5BTgqhiu4mCO1MyT42kmI1+fJeEr0SmS4EWqKm2NyGIPLYLuExXtM/OMgKQzfuWp8zMTGJgYEBJfuFS8R/Kbpciv9649eKeHeQZwLYMH7hoNiLCgUIbcR2RpCQsLer7P4ijPKzMQLVOtSHQw2limsej0lh+R7HJ/Ra8vjSfeQjSaVAvvx95I7HCcAEq9ULJWd5Tyueik1FGiNy+pLfHBoaRi6NKXHmDIZolTaict/+33cQZ4jFo9u23jlQJELaWbUOVORjkmn2UIRBVZjjLVdQyahqo/hKZ+e8JTKO0eWBw3TipKt+wpBCXgpS4OWZWnGirQ5/RaJN9QvBr1iq2wjmpvB45FAvTU9xidi+/n68+94HOMHGUFoFcej8fHU4zKokqveOgiI6RJpNIXEzUyKYBN0+bsE/lZ/H/XzplUFRfNFgpXOq+8x4s6YQmwnQClYef4IkxCq8c8JYp3jrLwlMMwH5oKVa+bqrAiOwMUrKvC+0U/SP1WpFF+2HakZHSVkFjMY2dHaZ0c32Ycf2rXiEZOvv7/fFpo9EhPgxddz9YfYewikGltdgtgKyLEwL+Vys1BpWsIPc7UGS6mp5Ke52NCudaKBfVF/CP2asRyS9WpvIE5NKtMx/E7AfZW5QzWVRTzukcrXyXuFePvhmYhbC2dlPX8PDw2huMSr7MpdEe4EW5p9/44k/gsLqtKCcInk7NWylehWwLyokFwyNjVKF+iE7OBIxtBqnLvmeVLkiXnemsxFdg/28LgqrQqMV7wgo30tZTYEY8LlxTe/2HK99j6n1D8vWs1PXKrM7V36PQGpZ5vdn0jbgb85ULfv7B3Dm3Hlyyrt4aMOD2P7wloWJFJHjQxR3XXxI2S0pozatIilyWexGhvYEr4tkSRd3zZ/pYm8pm1KkfGUBhd0o1ocbEMXo+E1tCXdehxyW9RB+V66rGTCr9BGt/PX4pSrN8hg5Hfy+WByLCcb26GQlDmdb5eVVeOs3hxBHHbMgnCKAiAFVRAf+GGX7w1SuWQERChxHl/DN0cYqfEQSXc402sF75lLJ/qSqAA9TsyRT9otivsRUqSZ//JCaRETj/1DXyGZs0y9W6tmXEmA+eqqsvBJvvX0I8dQxCwJKOYnySHMVck0tWB+kx4aIOBioXj3Y/TqyhEAH2O8cLDlH9eqGtWEGpJBw5bP8zhbkUYs0MerEs0ljxbmf6RXLiMjj//chlXMKK9afcj7kLJ0W67ZUnNkaPnnG0rJK/Pqt/1OKd+eOR26/JEtzJ2w/wrIaw/CWCHFjKz9VoImUH6LjNilTAf5PFK2XMr9v3keJgFPst97krj8QrKdO8UQz7y8VJDMogrzhrl7U5gaOkqh11DjSLPy2sRzhrFZfM6TDnXzS2tqG3x87qazIZTSUgjkwm75aje04dvxTfPDxMex56uvzU7TC8C3UE/InK90/RAkqG/rywuPUDCK7xReZvmTne3iPI83VijDl5ZJIsptpVtvzZYWYhWwPVl3EVZakILYUvryvH/9tZ7O3M3oJy7Q3CbVLNaKjBFsAiWA1y2UKSxuwOzYNehmisRl8/8jHaDEaEcIxx/LMZZwBJSvhJiZUUXEJ8gsKYWzrUAOzr+56lMAF3WBx2pX5l/nD+fwzWgYQyrzNocgycHo33c0XC8FEopWXEh1h63gFFJHsAoo0jlJOBZRNTDN7oMj14rccpd6oZYSIak3l9dLbHKy8QM5KUKlZzR7HzN+LZ6oKIQ/TSmhg6RcR9ziBi2Epl8F7pUwMLxSikQ2gmNQptAqiORSrqa1XQ7MRC7t/irZV961gbxR7U6rZBSWPoXyZkztX9iDJvoGIZ0kUj8QW+BLGYlw3M5LEYpTSupKlVPLcdo0Qp0z5RLPIhwKMvNhsJNjPe4pqlRbAi9dK8/c61a+FbaGAH8JnWBcWi5Xs2gXEAlqiHUzlOAKYSekvnGNb/QODuFRUjDNn89DW1o4Af38KNhNiY/VYu2a1Si3pou0thxpCMYOK6bf8lka0KErxOnZwp8QmnA/zz5eM5XdOsvwerC1SPdNX9UtIqBxRzODR2ruvpMnRj47h56++wUHakxRqm5SfMttyCBTZTSOjpIo5nsomTGa/srszGdfzBWH6dRJtI9YJisBWHrnQ0OjSqW74VoAfGxtn81eP5/a9gB/+4DvX7UiHQBGeMDE0O8gJVj6caAebISQcIGQ7wqrhTUXpNOX8iL0fE49FBuoVNIhyqD9u1c3vp9lU39AELx7OkUnfrRy1mDriEFDEuPZ0xLgWLjjV0UC+6ICGLywt+brwWIcjQeY+FynE3mf53J+1Ubn5c+mIqeDKTPid9w5Tivtj28Ob1Xx4vssGynPX5j7CJQ4Nw4Twjhtrld0oZU/OjAjjS0Q4sv44IazDL9j4vb5mJ6uURNf8k6DTZLo2IQyddUJoN0qvDcOeeW4/nuWIw+EJoQzEpVGT3fRVRpBjYNgeUiLlNJ38V6suYH9GDmJZOkXILcQsWYxoK3lHo9XcVE3Grh0DKy4pwysc0O/b+31VdRyeJTsSETN9Z0zMIXaxr1ScRywF1lZOCZMp4/3EVhQ+miNqujhLlpeafupA5jolJeUQ3zWYbpr0MVp6s3I/SZsW2gRnaREcO3EKE/RU9j3/d8qznetcnEPV51YBU5YgU0jOtZ1ir1JCDRTN9mAtu98MErgM6mdbcsTi5QOvITwsDHue3n39KIWAcvpMLj6hrDd1d3OkuhJbtzwEDSuhqNZPjp9EM5Xt8syl2LVzO103nk8haHOtLwUUeQipWGIpdLPFr2cl+oxHM0S96in4dlF/JFIkzpROzR0dePGlgwgJDMS3CYpO97mBJEctWuikiYotLL6MVkaHmNbeHK/GREchJXkxDJz7iC8rETJXVMqzfmmgTN2dIXKMHOKRUUUzZbrT5FV1+C8rKFydYBA1K41kH6V8JTvy822NKDj6KTRd/chKSEJGRpo6suXl5cl5tBPTpxv5Fy7h/cMf4goPCa7mEF56niWU95E8/TTX7Hh65NwRUGwPIY1nFc+/XeDpJuNgn5otJ9EGiCBA0glX0UBq5+cW6hzfbgssVc0wNRrVQeKExHikMQoEvEaedWugjrGMcPIYEICVK7PIHXHqXJwj646CYkurPkqAvPZGfMpehg9EW0CLUQLRTiMriR3w2nA5FxcES08/TyVdVjwiKSNeyOjoGIYGh3imNgDr161RESKnIeeTJjMBdsdBmfpg0gHndzSihKLRnSV7C03sOPZT0zWNjDwLaQEc/uAjuJInHliziiSbrbhkIdZdBYqQsbQEopPEjNLSmLJHvmI4ydhCokR14IyM242OqWDeVaAsxC4vxD3ugWIHxXug3ANlfsn1/7df7+B8YxsrAAAAAElFTkSuQmCC;" vertex="1" parent="1">
          <mxGeometry x="803" y="123" width="102.15" height="75.5" as="geometry" />
        </mxCell>
        <mxCell id="vCrRRUYNwniXk347K93_-54" value="ReAct" style="shape=table;startSize=30;container=1;collapsible=0;childLayout=tableLayout;fillColor=#E6E6E6;" vertex="1" parent="1">
          <mxGeometry x="933" y="68" width="70" height="172" as="geometry" />
        </mxCell>
        <mxCell id="vCrRRUYNwniXk347K93_-55" value="" style="shape=tableRow;horizontal=0;startSize=0;swimlaneHead=0;swimlaneBody=0;strokeColor=inherit;top=0;left=0;bottom=0;right=0;collapsible=0;dropTarget=0;fillColor=none;points=[[0,0.5],[1,0.5]];portConstraint=eastwest;" vertex="1" parent="vCrRRUYNwniXk347K93_-54">
          <mxGeometry y="30" width="70" height="36" as="geometry" />
        </mxCell>
        <mxCell id="vCrRRUYNwniXk347K93_-56" value="Step 1" style="shape=partialRectangle;html=1;whiteSpace=wrap;connectable=0;strokeColor=inherit;overflow=hidden;fillColor=none;top=0;left=0;bottom=0;right=0;pointerEvents=1;" vertex="1" parent="vCrRRUYNwniXk347K93_-55">
          <mxGeometry width="70" height="36" as="geometry">
            <mxRectangle width="70" height="36" as="alternateBounds" />
          </mxGeometry>
        </mxCell>
        <mxCell id="vCrRRUYNwniXk347K93_-57" value="" style="shape=tableRow;horizontal=0;startSize=0;swimlaneHead=0;swimlaneBody=0;strokeColor=inherit;top=0;left=0;bottom=0;right=0;collapsible=0;dropTarget=0;fillColor=none;points=[[0,0.5],[1,0.5]];portConstraint=eastwest;" vertex="1" parent="vCrRRUYNwniXk347K93_-54">
          <mxGeometry y="66" width="70" height="35" as="geometry" />
        </mxCell>
        <mxCell id="vCrRRUYNwniXk347K93_-58" value="Step 2" style="shape=partialRectangle;html=1;whiteSpace=wrap;connectable=0;strokeColor=inherit;overflow=hidden;fillColor=none;top=0;left=0;bottom=0;right=0;pointerEvents=1;" vertex="1" parent="vCrRRUYNwniXk347K93_-57">
          <mxGeometry width="70" height="35" as="geometry">
            <mxRectangle width="70" height="35" as="alternateBounds" />
          </mxGeometry>
        </mxCell>
        <mxCell id="vCrRRUYNwniXk347K93_-59" value="" style="shape=tableRow;horizontal=0;startSize=0;swimlaneHead=0;swimlaneBody=0;strokeColor=inherit;top=0;left=0;bottom=0;right=0;collapsible=0;dropTarget=0;fillColor=none;points=[[0,0.5],[1,0.5]];portConstraint=eastwest;" vertex="1" parent="vCrRRUYNwniXk347K93_-54">
          <mxGeometry y="101" width="70" height="36" as="geometry" />
        </mxCell>
        <mxCell id="vCrRRUYNwniXk347K93_-60" value="..." style="shape=partialRectangle;html=1;whiteSpace=wrap;connectable=0;strokeColor=inherit;overflow=hidden;fillColor=none;top=0;left=0;bottom=0;right=0;pointerEvents=1;" vertex="1" parent="vCrRRUYNwniXk347K93_-59">
          <mxGeometry width="70" height="36" as="geometry">
            <mxRectangle width="70" height="36" as="alternateBounds" />
          </mxGeometry>
        </mxCell>
        <mxCell id="vCrRRUYNwniXk347K93_-61" value="" style="shape=tableRow;horizontal=0;startSize=0;swimlaneHead=0;swimlaneBody=0;strokeColor=inherit;top=0;left=0;bottom=0;right=0;collapsible=0;dropTarget=0;fillColor=none;points=[[0,0.5],[1,0.5]];portConstraint=eastwest;" vertex="1" parent="vCrRRUYNwniXk347K93_-54">
          <mxGeometry y="137" width="70" height="35" as="geometry" />
        </mxCell>
        <mxCell id="vCrRRUYNwniXk347K93_-62" value="Step n" style="shape=partialRectangle;html=1;whiteSpace=wrap;connectable=0;strokeColor=inherit;overflow=hidden;fillColor=none;top=0;left=0;bottom=0;right=0;pointerEvents=1;" vertex="1" parent="vCrRRUYNwniXk347K93_-61">
          <mxGeometry width="70" height="35" as="geometry">
            <mxRectangle width="70" height="35" as="alternateBounds" />
          </mxGeometry>
        </mxCell>
        <mxCell id="vCrRRUYNwniXk347K93_-64" style="edgeStyle=orthogonalEdgeStyle;rounded=0;orthogonalLoop=1;jettySize=auto;html=1;entryX=-0.014;entryY=0.743;entryDx=0;entryDy=0;entryPerimeter=0;" edge="1" parent="1" source="vCrRRUYNwniXk347K93_-50" target="vCrRRUYNwniXk347K93_-57">
          <mxGeometry relative="1" as="geometry" />
        </mxCell>
        <mxCell id="vCrRRUYNwniXk347K93_-90" style="edgeStyle=orthogonalEdgeStyle;rounded=0;orthogonalLoop=1;jettySize=auto;html=1;" edge="1" parent="1" source="vCrRRUYNwniXk347K93_-65" target="vCrRRUYNwniXk347K93_-89">
          <mxGeometry relative="1" as="geometry" />
        </mxCell>
        <mxCell id="vCrRRUYNwniXk347K93_-113" style="edgeStyle=orthogonalEdgeStyle;rounded=0;orthogonalLoop=1;jettySize=auto;html=1;" edge="1" parent="1" source="vCrRRUYNwniXk347K93_-65">
          <mxGeometry relative="1" as="geometry">
            <mxPoint x="1003" y="140" as="targetPoint" />
            <Array as="points">
              <mxPoint x="1053" y="46" />
              <mxPoint x="1053" y="140" />
              <mxPoint x="1003" y="140" />
            </Array>
          </mxGeometry>
        </mxCell>
        <mxCell id="vCrRRUYNwniXk347K93_-65" value="Action Groups" style="shape=image;verticalLabelPosition=bottom;labelBackgroundColor=default;verticalAlign=top;aspect=fixed;imageAspect=0;image=data:image/png,iVBORw0KGgoAAAANSUhEUgAAAH4AAABSCAYAAACSTWDFAAAU3ElEQVR4Xu1dCXxN17r/JzIQ81hjVI2tIYQYEmMkCAlian86XVr0avW2rravfa/vuq2+21u3dKCKGquUKlpCUUrRqnmqmSAxR4ghc3j/b52zjp3IcBLnnJwMSyN69t5rr7X+65u/9R2Xe2wobkVuBVyKgS9ymKsJFwNfNHEvBr6I4l4MfDHwRXUFiui8rZbxWvl3cXFBsSFg292i11R+O6rlCngZ2N279/iTBjVYR42yEL5HIBZD2tXVhT+uFmJyFPhWAy9rL5TuqIEVQqydakpWA3/37l0F+tWYa5i3YDHi4+NRokQJtWuLW+5XQLh6UlIy+ob2hF/rVuSipvV1FGFZDXxKSirc3d0w6bMv8fc3/gelvEojOSWZbED9V9xysQLC5t24lklJSQjr3QM/fr/AeYFPTU0hhbvh3//5HOMnTMTY1/6KgA5tkZLCzymjipt1KyDiUmR6TOx1vPPuBLTz88XyJfOUGNXXrOvp4e6ymuJTU1Ph5uaGiZOm4s23x2PVDwvRp1fww729CD995UoMmvl2hL9/O6wg8E7L6jXwH308BW/993tYsvArDOjXB6lpaXCjrNdN2L5JY70HN9cSSLt3V4kC9Zn598PifZd9u5NqUigXXR1oAj3suOV5AVgoPvLMOXTo2hsB7f2w4rv5zqvVp6P4d/6Jpd/OxsD+oQ8AryYn7IyAXE68g6qepfhvk7nysIqL0ZcQm5yESh6epn5lU/Evqka2wMaufRiBb9epJ/wpLoXijXOz6wDMneeN1WcCvB44JRX/uCAxLQV+6xagZcVHMKdtL7hxI8hmyCv40r/eUJ8c34PPj/yBld2GoGn5KkgjFZWQzSVvdnIOUOiAl41kBGfw76vw/dGd6PJoU6zvOgiu/COY5JU1675FkRy7dxMm7/0FTWs+hp1BQ+FpFjXCWZy9FTrgBRiR5yLXl0edwICN38KnWh1sCHySLLmkotaH1f6lD3mP9NN36wqsPLYHHwaE4q0mbZFKb6JQfTHFW7f1bcbqBRRpqWS7vusX4PDVaESQGkNq1LOAklEBlP/XfuqsFD/j5yLBU5XS6Ip916/Af+18eLh74FDIMNQqVcYiCpwZ/EJF8UKBmqL3xF5G69Wz4PuIN3YHP6M+F8AEjDShVrMMzhjo0WAJ1xDKzexedQ/70OAP27kWcw9sw+zAIRhWrxm1/DRq+/ctDOv2vmPvygp4pzfnlB2fiXKXImYdN8AHh//Au9tX44MOvfFfj7dTipeAoRWv23QEJaYmo0rJ0uk0/eg7N1G5pBdK0Umklbg7vDfBfK/WIQR8Yesiz9dfOoOQdV8j7LEWWN6xn3oHmb1Ts/t05lyXEHSgObd88dyCqdULxQuFCvBhW5ZjVeSf2N7nBbStVF19LhQv92y6EoW//B6BKwm3MbBeU8ynth9Ht++wHWuwknpBzVKl8b5PFzzPa3LvcN57ifcOePQJWgY9TTJc+QPEXHTFtaQEeK+aiQrunjgT+qJpg4nP24k9iWkkEIlxnDx9Bs1bd0Lnjv5Yu3Kxsu+liY3viGYTGa/NNKFGP8r33WT3p/u8iEfLlFcyX64npKWi5dqvcepmDGqXqYCoaxfxS8hw/BoTjX/8sQbNazXgtWukVlcc6z0cvX5dhkOxl1CnbCVExV7E0sCnMLBOI9VfCYHfbLI3pFiJjr+N6LBRqOxZUjmJ8mo5OGLBNcXHxd3EqjXrUbt2TXTp2KHgUryW0T5UuA7FxeAMga9Tupxiy6LpX0q4g3qrZqBxucoIrOaNT2mOfd4pHFtizmPpyX1YTJv88xP7sOniaWyiUhi+9QfU9CqDXtXrKdNtQrsQig7R3gk8Y9iCsLyz7c/fYNe1S5aNJnSj9YiMQGonkjIN8zm0JBxLu5tEr7F1u9+7aZ0yNptTfMcNi7CNbPoogW9crpIy8ZT2zp/AX77D5nNHiYy78DTsIWUfvxWLpzYuAaidg964x6t7Y0+PZ5XI+JkiQ33ORdoU/DQ6V61tUvpM5oDqt9Hq2Th75xYu9B2pdAQV6MhkokbQnVnrt9UGMLnRsvZk2gR4o4wfQEpdfvoAdoaOQGt67QQoJQo4o/OU1+MPbsOFO3F4oZEvBtZuqCT21BP7sezcEdQrUxFvN22P+qUrIDrhFt47tA1Rt29geENfDCab15qvpuordAl7r/oK1T29cJI6hXgHFcBZyEmtNN5MScLBG1fV5ikIbt7cbAbhiKXd3dXaZ+cGtgnwEqTRWv17h7dj/PY1+Jd/qGLN8rm7Sth40J1qNPWMk8vpXsXuCZoogIFr56Fn3SewpvOAbO14FfY0K4Yhm5dhffRx0ysLWyaJmLNcm29p5Qyp09jiVLMLqzdS/A4qbe3IflvSjt8R9DSpnVzdbGJpJ49ab/5R/nXl8TNxBU2R+t/3o3r37zU6cUbv3oBp+zfjyy4DMbK+j9InsrLjtVKVQBNRxMMFcpTeNetbzMeCzv5l7dy4npHkpjsvnMbEdr0wrokfCY/mdIkHLQWbUbwGVYD0+3kh9l6MxLKgpxBeq+EDnjuTiDaz5QxZu5l9bvxM/AKyMaLib+HxiK84KTf8Sc+dKIL3mAiaVfqSZnvJfF6AjyO7v9TvJZTk84WpfX5iL17dsgJTOvXH6AYtLWa2XSheWL2mXLHl1108g54065pVrYXfqKGXpYKWRlAe1ldvfMfIXesxc/8W/IPa/vhmHUzavlmpy4x6tfhIouhpGDEbN1MScYq2fwVzHEEZCiqNzOR6NimIzh/m1YDK/N04iUnHduPN31bhMwI/pmErtS6Cid2AN4lLU+hUAA7f9iNWHN2FUCpxSynvhQ0JIHm1sY2gv0sFccLun1GDCsyBns+hEmP+glp2zg8NfCL9CY1Wz0FcciIiCXzFLAJIwllEVsqGyGfLzyqGpAH++NguvCHAU8aP4drbHXidEKE8dVywOJpmrWjTNylfGUsDwuDlSpb6kMAb4/EfHtyKVYz8+Yl3UNn22Sd7pKN4snrR7DXwck1Y/9DtEajs5ok3nmiHFhWqqgWXhbOEk81Zpc6oDxiBH7dtJX0k/fGKLSlep159t2hWlhk42nt2+nYcqtO29nJztwRrrNq+OdwkC3+OMt7bq2yu+pXnFKvPALy8bvOVaHRdN19yo5Tv4Bm6jcc2boNW5CrSLBzAMDZn2gAOA15y7rJKvTJp7Sb/vLBg7a+3BejGviXfLzeiQ7xlSXdTCfycByh+W8wFdKEXsHrp8iafAz2KLgz1Ps+o35jGreGrNwAdUtpKsUU6ma3WxO7A/2fyVLzx9j/x4zJGxXr3tNW47d5PdqxeXv47gfen3/9JssfJLbviM2rHM08dwDXG/UGuJRxgHBM+fCpWU2N1JtC1SBIlTmS8TVm95M+70yM04cPJ+ODDSQgO6oqqVSqrZMvcUJ3dEc7AiuMTEtDKpzneHPuK8tJlRvHyyG9XLyDgJyaQMsS7NKCv6iWSomrGqf1YcOYwom9d5/w98DQjhf/XojMe4WaQ5ixzt5bi9YbNtR0/c9bXGPfOeHh4eNC1zpM0Tqz1ipYfd+smQnoGIWLZN5TfPLZ0L4Wsfm46Vq+AJ2sPoAgY1MAHi9r3QTKdQaKbSNtw+SyG/fETopgzAMYW5jDB5C/kANor6cjNnNW77Aa83inJycn488gx025XMtwZpp3FGLgp0+i5Kl+uLB6rVzcHiifwP83BAFL892aKP3XrBj49vgtzIw/hFkO/1ctWxKiGLWkf+6IicwAexkqx9apZC7x+r9UUb+uBOro/7bLNSqvXMn4oQf3QpxP+fWSHkvHJZPEVK1RTNvHLBL0aM4cKsozX62A18Oli2eZskbyBZ5INwi0seXbUE5SxbKeAiXbjZiXjZW6i1XelVl+DSSI36IO4feMKqlKTf5Ua/QvkAjWYHaSVKPEQGt3IeVsH2z5lLcXrDCCrgbfVMPUGSkhMxLIVEejWJQA1a1S3HC2y1Xsy9pOTVr/pchS6rZsnx4BQieCPaeyLl+q3RHUD4KLIyU924U57jT+nfq0FPtcUn9OLrb2ud9zRYyd4aLAzxrz8IiZ/9D5lMa0DAxewtj9r78sOePEIxtKFO5aZPvWYNfQK2X1Vs9YumbuWfH0zR3Imx42ev7XA51qrt3aBc7pPn8HbvWc/uocMRHi/3pgz4zO7JxtmBD4nX70cyFQsPacJOcn1B3z1tgrS2Gp+muL37juILsFMFhjUD19Nm+wwildBmggGaRidOxM2whKkEYBVHp7UpTHLcFvN2RH9pKP4rSsZncs8SJNvFJ8V8PY+UJAxHi9BGknJLm8JyxYU2s58G2ngJ/K84luMzkmQxibxeFvtWiPwgb3CMWhAX8z8YpLdCwPcz8BJRQO6Zi/G30RLRvYKSxP1Q+Lxktd4MfYKJrYPMWfgmFLfMjaHa/Vaxu/ctQ9tA4Lx9NBBWDBnmmL1Kl5vpwMFOudOsn5Df12OLfTGpUi6V2FBXhnJgCfXj9kJmN0+FP1q1X/4DBxbrY+m+MjIsxjHkiod2rXBuNdftjvFy/i1fLvN0zuXmKFrOtqlrvCnYLN6mYOooqnc2F5MXxe/Q3Zmp8MpPrsNZM+Il+5bJ3PYaiM7az85zdPhwBs9gBYN05B4ac+FNG6seKniJe+15wsd3LfwLMl90MGl7Agp34EXFitlPe3tDbtLFiis8CJZ/LM8zStZugp0zeEL8g4wz8FFCgHR4eRXpRZm+gWr1PGszhI6HHgHE4Hldfrs/IrokwjnMS+ULMXsX1PxJFO7L+Ml01ZV3zBcUYqn0+oBppHKGG8lJaq4h/go6jKbSOcj5rtWr9mPVMq8cSMOniU9UK5sWbtTfCrDs3LYcjXz/fuu/wbPMJ/u41ZdVTEF45l603FvF5Rx8zAUcYA67SvOH30czJkYhFFkdv9lCY4yZyCSZxdrMnXMaShea/X79h9Cj9AhGBgeimmffWR3rV47OAT4Pj/Nw+jmnTC1TfcsFfo/eCLoJEOyKdwIj9J/35zVtSpLGreTtxY8UnboRgyiSPG1vMpZTiflO8VrO37P3gPo1D0MTw7uj9nTP7W7Ha+Bj+DxolBW0RjV1B9ftAlSRRLlsKUqmkhHxzye0J10dAcOXD3P3GpmGKmz+OQAjNiN4DGt91p0RGnKTn3syxn2gVGJ8yHwh2/G4iy9krWdCfj8ctmmo3jm+49qGoAv/YJU/X2xfT0I+vs88Pm/O9bRBeYG/+qPojOrdpVh+tV+nqxde+ksbvJ3IFOufujY36I56zBtfkbsjMALxf8Zdw3neFq5ljn9PLO8QIcrd84C/EvN/DGtTTBiWU5FTuJMY3GG0dT2q5Qqi4U8ABJM4I3tAl2hYg1sJEcIZ3LGEp4OcnGSgE6BA75rj/4YPNDkq7fGnNNZL1qDva+RZ85wjfcrpY0sO4IyPpQU/1LzjgQ+CENZZ2do3ccxYtc6XKZsnB7Qjyy9uTpBo5u8R8SAZOZ027gY+y5FYjFLswzxbmwRFcUUn4PQM8r4gG59KOPDGY//1ByPzzplV/vxjRtE/q2LBj2gvJj9/vp+XT5NZHwYD3SOaNoBM/x6oOfm77Hh/Cm4MnU8ha7cw5SNjZhUKc9JCRf9vOgCIg5WnKc5uGYuAinvf+422KSU8uX2ijFYo0PkluLV/fzLoZaJZvUHDx1G/8HPo29YL5WBo6Nn1kw0L/foVOgNsRcQ9MMMjCSrn07gj1NzD6B5F0OHzhSevP0r06tlSYxyUTadLuIQzxq93547Bh+erZOqE7oVBIo3Eo3DgbfY8ax/L5WfPJmf7+XFCteMKu0/cAiz5i1ESU9xrJjdKrSp7/BrUHoEdkH/vr3Taf9RUefxyZQZJsXb7FwRACSfz6dFU4wYxgKLmmXL5zduYsScGVhUJRGjnmiPLynjpS2nUyc2OYFJlc2zNSvF+2esl2us6GHPOENOG71AUHxmk9CndBYsXIJnnxmBUuVNHidpbqzmEH/9Ol574zXFGURUqM+pef/2+w50pEnoQTat2Zac10vghgpjnP/HpfPVRpEmteXOn4hEy7+9gpjnOmHkY76Y3rYHknldWLhRnmfMoJWF1Y4Q4RD9fv0eXan8TWsdpMaZ3xk71gKv5qHzBh3N6vUg9SCMi3zh4iUcYRKmHNXSJC/XZWPU9a6DBvXrpaPI2Os3II4gAdVysoP3y+aoVqUKmjd73DJRoc7UhERM3bkVf4/agVFN2tGcC1ZKnPjvl7EaVy+WRmlolu/62LVsCK0f7Lp+GUFU7qSoAgeFWTTrhj/WzFKUIb/YfW6At2Q6ORr4nNiWva5nlPFaq5f3fcIqEq9v+g5D6JxZ3CFUuXFFdOgKGyrxkiLnJ1oEz7Cw020CX5fu0NYMhiz2D8v3ytnWAp+OqzkD8Hrgshuz0jVtrdWL504oXjJyYmjLt+aXKpynOTeJRYNep52eWZt56iBep9l3l+JkFytxSLEHb7pzpeXn4Ulrgc9X5c5eFJ1Tvxk9dy81C1B2fBIDL550wW68fA5hpPr4xHg8TeDH8qcx6+5J5u1Zavxf0MEzjd+MQaGORZ374ynvJuqVRtHl7Kxej1d+O1yrzwkge13PCniTo8Zks68n+KN5KvYka+2DqUverKObci8NF+WULA9NlmOlzuk0+Z6i40ZX0C522doLMRv1mzFIM5Ksfmrr7hbFLI3gS+kzSdD4gpS9msmYcj7eg2xdwpth/BqU5/g1K1KmVbiEnK5xlmZk9a1YzsUpgzT5tVgZw7Kv+nTGp76B2Q4np7y1/JpLdu9tSeAPXL/KsOxI54rH59diaa3+R7pnw/l9Of403eRrU6QAglExE3tdlWyjWSjfbSdmr0TvdB2f/FTislo7GaOUZROhNYUlXG7T1DzWe5hSPI3f9GF8vsjJeDHJQtYvVHIdZNnZtwfTsvJr41r9XuoqJRmHPx36AiuOmVKsM4sjFBngtRwU+bw0+gRuM8nC3cW5v7/GarANNyZzflJbsCtzCYzmW8a+igzweVnEgv1M9odEigzwRntb5F5hbqoSpyEjODP/QpEBvjADnZe5FQOfl1UrBM8UA18IQMzLFIqBz8uqFYJnioEvBCDmZQrFwOdl1QrBM8XAFwIQ8zKFYuDzsmqF4Jn/B+K4DcXEbvTPAAAAAElFTkSuQmCC;" vertex="1" parent="1">
          <mxGeometry x="1113" y="12" width="104.44" height="67.97" as="geometry" />
        </mxCell>
        <mxCell id="vCrRRUYNwniXk347K93_-95" style="edgeStyle=orthogonalEdgeStyle;rounded=0;orthogonalLoop=1;jettySize=auto;html=1;" edge="1" parent="1" source="vCrRRUYNwniXk347K93_-66" target="vCrRRUYNwniXk347K93_-92">
          <mxGeometry relative="1" as="geometry" />
        </mxCell>
        <mxCell id="vCrRRUYNwniXk347K93_-115" style="edgeStyle=orthogonalEdgeStyle;rounded=0;orthogonalLoop=1;jettySize=auto;html=1;entryX=1;entryY=0.5;entryDx=0;entryDy=0;" edge="1" parent="1" source="vCrRRUYNwniXk347K93_-66" target="vCrRRUYNwniXk347K93_-57">
          <mxGeometry relative="1" as="geometry">
            <Array as="points">
              <mxPoint x="1053" y="250" />
              <mxPoint x="1053" y="152" />
            </Array>
          </mxGeometry>
        </mxCell>
        <mxCell id="vCrRRUYNwniXk347K93_-66" value="Knowledge Bases" style="shape=image;verticalLabelPosition=bottom;labelBackgroundColor=default;verticalAlign=top;aspect=fixed;imageAspect=0;image=data:image/png,iVBORw0KGgoAAAANSUhEUgAAAFYAAABfCAYAAAByWTA/AAAcpElEQVR4Xu1dB1hVRxb+EUSKXUFAEbDRVCwh2FCxRtNM0U0zxU02JtFUjWsSN3E3bWOKMZqiRmN6NcUaGwrYCyIWQGwoClJFAWm6/5n35uXyggICalaun9+Tx71z7/zzn/+cOTPnanOeB2qPakfAphbYasdUNVgLbM3gWgtsDeF6dQCrZd7GxgbnzJJvY+ixfG885Hz5Tj7P4TzqwMbys/W5NQVcee1eUSmwBlRAtatTRz1zyflzpQAzdkTAK+G5tgbA1fk2vFYPjNVglAdEdf/+igBrBFT+LSBpQI/k5qDgXAk6NGhiAdiWgEnoIryV84sJYt06tordu7JOIrCxC3+ug5Jz5xRz65jZrJzIFQL4sgNrBFVYJojZEpTswrP4ODEG/9m7EcUlJZjSsRcm+AXDwdYORQTajuAKkAKagLUrOw1P71iN8OMHEebeBq936YsezTzUYBQTYGGzlosrAe5lA/ZiZr/4+AE8vzMC+04chBPZJ+fm52Sgv3cgZnUfiIBGzRUbZQCE3e/Gb8OUmAgUnM2FK88/mZ0O2NljnF93vBjYE24Ozmb95aBdIfbWOLAXM/utmSl4fc9G/HJ4j9LGUW274PWgUJw8m4eJ0eFYfywBDpSENzuH4qkO3RF7Kh1PbV+F8CNxsHWqj6mdQjHGJxDfH03A1NgoZHEw3Ju0wCsde+Phtp0Vu63Ze7nkoUaBtUzqlLen/vGPdDa9IB9Td6/H3IOxOHvmFDq5+2AqTf+2Vu0tPiSvuAhvx23FywQMPD+0tR92ZqXiNMHt4+WP6V0HoHvTFpbzD7CdNzhIn+7fQc9XjH5s67XOfdHbpWVpeeAznOefmpaHGgPWGBIZndPcg7vI0k04RKcDu7p4nEx8u2t/OFJLtfORjtuKq+IgCKsf37YS204eRT17B/yLAzDJP0SZuGajhFzi4ORYkXIYL++KwqbkRNhQEsb7dsO/AnuhWT3Hy+rcagxY6aQGV/69Pi0Z/4pdjzVH9gKO9eHp3AhHyb41g+9FWIvWKCguhr2trQJHO52i8yWwr2OHbZmpCFkyFyPadMJPvW9R7DeFZraWe8jPcj/R4Vyyfc6BXXiNDE7PPonWzVuSvaG4zztAtW98ruoOs3R7NQasDvRzigrwdPRaLEjcCRQWoJuHN+aFDMPsA7H4kGa+eMhoDKcUGD2+lhCJGmzIxI3pxxG6dB5Gtu+Kb3oONwFoZqgeBN2hYokc+IMAHJeTibfitmD+/mjKQwkGenbA2136o7M4SDmnBkOxGgO2WEIkMmopw6EbV34Jj0YueDWoD+5q7a/M/pGtKzB39yYsHXY/hrl5KzMV/RXZkE7biS6bZ1UbCGyfZfNxZ9sgfN/rJvW9DU+qY55M6BhXD441C5edOISXqelbj+3HQJ+OWNV/pOV+NaW1NQZsUck5AmuD35IP4I5VX2FcUF86nDAU0rEImx7fvhqzd2/A0qEEloyV2NXOLAUW9pkHR4DtLYxt10UBaz0rE6eoBoGDIRbyfVI82ytGd0pAsNnB7T+dBb9Fs9GHg7g2bJQaPIlE9OBUtyTUGLDiWGQ2JcDeSsaO69QH7xFYYXI9MvZxhk1z6MQWDx2NoS28lHmXsHdTKA9nec7rPF8mBwLWxYAVQERzZV6WwehhwNofsJtWAn7nUL8xlpCdA6jhh85ko81vH6MfJxMCrLaQvxxjNbC/0juPWEnGEqgZ3QaggExyYDQwetNSfEnv/dtND+NmjzYK2AKy1uXXD3GmuBAZI8ahaT0HRaTyGCsMFtl5hRYwdctyjPK7Xk2J36CzdKvfCEPJ0pMFeVjM+Ld/y7YIJ7AiGzJF/ssCqxk7nl5ZgC0SkyeTdzEiOELn0sPVEy4MheQoJMv9ls3DaQKbOPxhNKprrzp+MWDP8RrhqziiuzctwcKEaGy8+R8qxnX79WOkctKgEjNKZmzIWB+sHfC3vx6w2qOrGJMACmNvX/U1njAzVjkYdtGobQKOAJhPNvtSS8+UFOHgjQ+jCePWijBWIgFJwsxliPXIup/g5dKKVmGHeMa+YZxYTAnsgaN5p/HAhsUIJXvDw0aqHIUEBaLPNcHaatNY66mrmLV0bnVKEgaRhc9RX9/u0g9nGa8KCGKHQiTRUNFISfnJv70XzcGp4gIcuvERC2MlBpao4A5zVKBmTgqYPxItMgCizc/HRGJ2YrRykgMI4rc9b4KLgxOO5J6CDxkc5tEWq/vfqRI7kseVwTc+e3U5sWoB9k+zLIkxCdyJ/DP49+6NmMNYcoinLz4KHgIv54bq2YW5OjwSQOVYnXoEt0X+Aht2VhgrsyVpe2PGCfQhk+9u3w1fMY4Vna7Le2imWWexkvJy1KysDZ2XHKLBe09lojMnGf5NXPFdr5vRibGsHDpzZoyHq4PBVQbWCKp+oDOc+cw9EINXOfPJoI6CjGEqih/1MY7gjCXz2jYwdVqOdTTZ9+K349ejcWoSEcJ5vjgYe4InjJLf91++AD2oj7+E3oYWbE+iC81y40KzcXqrVhjMqw1nORg3RCxE5JF96nnGdeiGf3Jq3NKpgZIFHa6pKNpsDVVhb5WB1ewTzslU8jNmqqYTpANpx1QH/sbU31hmmlanJuEDpvtOncqAPUEdxYnCDe5e+OlYIn6W7Bbzsa2buqsO/51TV9FXmSwIm1OZHgxd851q06eZO6Z1CcMdnqaEjTBOkt76OYxgaK+vdf1UUSHmHYrFtL1bcCIrBe683zNMNT7WrivqM1JRJFE5iqpAarq2ysDKw0iwLeY5LHIh1jE4R10H3OMTgKd9r2OA7mZ5SnEgH+7fyYR2NLK5UgDGqWBA35KpvvEE9GECKuYvh7YErb/HKSuTd0Xi8wRmr9jzMb7dVTpR9FPlb3l/J4JjvNZa97VFHWQm7M19mzGHiXUwDOvMOHo+p9ldKRPGqXVV4K0ysDoBLTlUr8Wz4WxbF0v63o4QMkszyrRUwmmqeQoqIP1jy+/4nYPwZMee9No90dgcAYg2as2V603OzcRcOX5i7nUCc7WH05Ph49qa0sL8QVIckjkB6NjYFZ/1GAYPZrXUmpiVY7JeBorlKsS4HWsQQYv5d8hwFT1IOCihW1VnZFUGVgfamTRl78Vz4M7MVcLwMYxJJTNlMlF9yLmF5mhhHJdVZsVEIeLmhxHKqadkt+oy1rQO2vUMSaxCLzZKsD+ZKw7zqOPgfejt0MDRGacZs/b1CsCqfnealmaE2+YBsV7B0M8xl8mgR9f9iGm9b8YzTGHqRcqqOrBqAdaUvM4jsHPhWs8J+2/8u+qYmP7zZJcs9r0Y0EM9tHgGcTqPMsc6V6a0Q+5TuQKdDRNWf8RM2LqUI3iHyzItOVDaCQmLBGjN/Ak71+F9/p3M8yRRHsx4eTu1fA8nCAGNmlnyr7pttV5mHmVlGWxPpOnJqF8I7E2Y4BtcasXhikqBNlNZFWjNJEcrxwZYyThRVgc+oB6eYqLah8DFMNniTA3Upq5zBUuZKxji5oVz50ymK+31Xv0Nthzei6aUk5cCQ2ju3S2rsHKOsE3A/eFoPO7iufcH9MRIpgTHb1+JpNzTOExgPRnW6Wm1tdUIwGLyYiEzOVMbL8AyBJvgd93VB2waGdthyTxKgDgRe6RnpMC5YVM8Rg0c2y4IPkxsa+ZJh8ZuYxKGc/vlwx7AYDoPkQIBSzidTA2WBcMZXJqRaOE65hJe5frWUHemFyVHq/KENsjkYPZe8y0SGP+KHIiQTyJ73+AsT69aiPavYNrQgfcMpSZLqKZjaLnfLDJ2XOTPeJtS8BydrXGN7LIz1hi7ykMKi04W5KLjsgVIM3v7Z+m1nyCoOkg3hkXC5n/uXIsMntuVnZ0TPJhzezcL8NKeHBEMr6bKqgMXFW3oFN/jBONJtqnDMGGeaPsnBOcwnVdP11Z4kPlWbRV7qbk3rf0RRzJPKNAD3HzwO63Jg/Ii58gM8CNGBiIFbzEdqTVW7m6c1V2K3lZaY0vtC2DOtYTOQ4CQDrbj1LUembOczqObOQ8qHRBdk3MkzBGP/rOEOZwsXE9T38I4Fg6OipET/YOVw1PTTYImqwSSmHlr3xZMYWL8ZsbDv4WOUJMD4wqCkVkWz8/r79iwCAu5ejCG+p7LcOw7WsBjnftgZreBKjwTaXovbjueXfs9XmMkM9n/ehTScnQuQzRYbRIxOMGKsrjSwF6o4WxmpFosnMlQpz4OUeNkt4ryynIBO7mAIY0saWcwxJFV2RndB6EvV1BnUOMmcY9AYS4Z16oD3mUGrAcBF0uQNa96XPOK5sJjN+r3KCa6v+15Y6kVBG3WGgANigxo4PLPcIxMzh31LHMFOWj3yyyEtPBG1KC7VTdkEH7hwE7n/ccy7LvbvCZWaqB0HyqKqPm8SgOrdFIyV9SsVWvWIXzdegwdHIbAjv4oaODIBUE7NOcaq5wnoy950kmxEXiHKwayiDghIESt+wtbdPC/hynE8YwnwzndtGfY9HpQf+4j6GZZmpGV2l7MFcjSzA/UQq2DpjEzbY4zHlpfxzA3O5+5il5eftyrkI9EtmNTty4Gu3jiFepwMAfQuGqRn5+PnTG7sXJNBNxauGLMg/dYdt5UVg4qDayAKoeYyfARd2PZ8tVwcnaEd2tPhPXqgUED+yE45Dq0bGmaIMixis5l0rbVeJMZrsEePkrvJNWnlrDN+7DkPNlH8BIXHu3s7ZmEeQSukmPgsYirELdweWcU8wzfWS3NlEUkHV4dYkZrLCVkFVOX4tzCqLHJ9AUJOWmIHvEoujg0RnJKKqKjdyFqw2asCY/Anr3xKCIhPNzcsDlqOVxdmluIVBnSXhRYIxOMDksz5ZY7RmN7dAzC+vVWD7Rrzz6cLy6Bp2dLdOvaGf369sbA/qHo3JHLzob5dzEfXORB78MyzZJUZlRNMmTdKnPEE8ji5/vMO8zgJowsmvJIauz3DIuMa166s8ZnlVupNs17E3YRyMbU9NZ1HZUvWLApCi1TTmPZynCsi9qApKRk5Ss8W3qgR0h3xCccQGFREdat/BUuzZspYLUzq2gWrEKMNa7DaymQz1tH3o8dHO2dW8LhUK8e1m/cgoj1m9RnbOxexrBZaNSsCbp07og+PUPQq3cI+vQIRsOGzCiZD2lHgBYLyGfn/KmLZ5gseZ15gOkMuVQoxVANTPDcQQ38kfsKNLDWDNLPJm0Zp6TnC4qwL34/VqyLxIoV4YjfvQ8HTxyHPS2jQ/u26N3zepKjD3r1DIZnq5boP2QEko4mY+O6ZWRsM3Ub4wyuIrJQIcZKQydOpKJ+A2fUd3a23GTEqPuxafN2xGwNRwtXV0s/i4qKyeA4/L6KjIjcgOiYWKQkp8DWvi78fTugb58eCOXf669jOObjbbnuLGNg30WfIokOB0VnVZJmNLV2EEOyB9f/ijuZpPmOiWu9/C3PJWwSibW1/SM/Kw1mcFBjdu3G4mUrER6xHgn7DyAv+xQ33TVC504BGNgvFAPDQtE1qBMa8zvj0W/wrTiWfAK7t0fA0dEBBYWFyMo6hcaNGsLBoV6FEuMXBVaYJE5q2YrVeGzcRMW0Zk2bKlP38WmN5SvWKMBnz3oHvh3aqd83bNCATDBlmfSRxQ5FRm3Eb0t+x4aNW5GQeAAlZwvg6uFOtgRjAOVC2OLn74s+W37FTsavt7m3x/g2QehPULfR6QRzhfU2auyP1FgJx8TM7bhCYTwOHU7C6rWRWLl6LS0pFokHDjGXcA5e3q3R4/ruuGHIAA5qTw6mV6nr8vLykEngTuXk4OTJdEyc/ArS0jMwbOhApKWl43DSUWRyoIK7d8Xnn86CfT2uxRlYXJb2XhTYIupMXXrRN9+egamvTiOgHigsLOZDZHFzWg7TrU6w5+/PFhQoQN1auKjRF61q3boVmlOf2pKRbTgI7u5u6nfZWdk4ePgIItdvVlHF7j1xZEM2nOs7I8jfD/U6tUHgdUGYMnwEGpAhckSfzsDgJZ/hFu4snBdyg6UfBbzvjp2xqp3NW3dg774EpJ5MUyzz40CH9u6htF403s3NFTk5p3GUJn74yFE+QxLN/RiSj59Aenqmui6dYBaSnSIRIiXC1EZ8hkbsm4Du6uKCDWuXKAKJpVwsA1Yhxr4/aw6enfASFsybpUKrpKRjytSOcCTT0jLUiB49dlwBJA8qDJVBKcqnOfNwbFAf9TjKTRo3hg/ZI4xpxajB0dERubm5bCcZW7btwEmyw5aTDifqtTO1OURYNigM3boHoZW3J9hdZLDzUdTwSGr51m3RdDSJyOd9hEVObE/al79NmzThnjs7JNOkhbnJx1MIbA7O8H7naS1Ej/MSBziTHE2bNObAc1WXIZaHh5vSWQ8SoSX/LZ/ynDfddg93KZVgPYGVa4y6W2nGihSIuU2fORvPPPsCvv36U/ztzlvLakd9d/bsWWSTySkpJ5kryKROHccJhjPiCIQdqalpyOD3qQQw//QZ1KFk1COITuygHZl/jqDWFRkR7WQn8vPy1ZbL5pSf7mSeg4MDdlCvhXWir8IsLTuFhUX05IWKSTJVymNMKs7MZEmuaEFrEg8vg+otwHOQxao8W3moAREWWkuL7qiQJCT0BkWWjRHLlJ8xOvRLBva9Dz5RjP36i9kKWHFOor2mYTNFUmr6Z859Xgh5iQ/TyfD0zEwyLxOHjiQpEzxC0xRncYqDkpqWhjNnctU9xFFImwUFhcjnoAliDtzEIaYu8iPhmZzTgDIiwIkDdafJt6IUeRG0VmSe+p2rSaLKO0yOUHYtypmmSYeKVvIL0GfAjRbGNqhvSmVerL/lSoGFsc+9iG++nIO7RnKubmay9YxHPY56MNND6U8NennAi76dog4eo6wI4E88PUmZ4byP31deX57lx58XYdp7M/HEo2Nwx4ib4ErQBDgnJ8c/BrsMBPVzGZ9Px6YXM2u134FS0zvsRtXvDeuWVh9jlRSUApb5ULvSqwPWfbGeUOjflwbezAxJuJhXD4zt+HfpRalwwM7Nayxfz53/JR4Z+zS+ofXcNer2UrdVu2LMM0PLIKrktuw/KP2E1kvmZbFZ9+GqArY8s9OMtp7ra2CkM917DSITnRC9iXkG87Hgi2/x4CPj8enH0/HA6LtontRlOil9VHRmVJnn+8sBezGW5NFxBfcZAvn8x5jRaNfWm2FetgqtFi1diQ+nv8kkyb00z/KtpyIg/l8x9mKdyc3NQ8/+w3Gc4ZuEWDaUivNkZ316b8ntTnvjFTwy5r5aYCvKGq1rwlSRAjHt1155AYkHD6lM09bt0Zj96Rf4eMY0ldarZWwFkTU6jC4hYX/S2M+osQ9RY+fPnoEH77+7FtgK4mqJD4Wx3XoOVBOIzRG/M540baKYM+9zPP7UJIZg0/HQA7WMrSiuFmDFE3ftMUDNtratX2kB9pO5CzB2/ETM/+T9WsZWGFXzpEIH5bXAVga5cs41amwtsLXA/gmBS8wVXJ6gvJaxtYy9NMZKovu5iVPw1eefqLTh5QrK/28Za1yamTzxWXz25dd44N5RKldqTHxUI2GvjXBLr+vsi9uPbdt3qpVVby/Pctd7qgL0NREVVAWgS732mgBWrxR8v/A3zJw5By9PeV6txddqbBXXvLTG/vfdmfjncxPw+VdfYPQ9I2s1troWE01RwUvmqEDWvK7dOFaWv2twMfHaAzZ0IDfjcTExMnzxlV1M/H9wXjoqkhRm5+D+3JdXhNgdEYqxVd4JU/by97XFWHHin3/1vdqwIQuYsrOyhvYVXBvAXqrVyXUVSsKI85rw/BR8ueDamtLWGLA63HqDuw1fmPgMPvviGzxw37U3pZVdjY8/OUltMfrwg7fUXq8qSYEW6L374rkbMBr9QnupnXzlCXdVRvpqmnkZnVfXEL7PhrvKY7aurbrzqgpAl3rt1QSs8Vkk3BInFlUd4dalglOV665WYKt1U5xoimxWW7M2Cj/+9BvGPHQvrusWpPZLye6/mjiuVmCrlbEW5zWNzuv5a895lZ4g9OMEobh6JwjXarilrUcsV6z2PIv9pBBFJk1VigpKbZWv5P7YS5WJq0kKLrUPFZ4gXMrG40t9qKsJWP0sQrCFvyxRtb+yi1wqiaqFsboGQRYTZau8OC/jju7ytsBXBuQrDaxxJ7re6p+bm4+gYGosAd6zM6rqcawuoBONlaqZhT9+gdtuGaZeMyLFD7rGVMo7ZNNaWUdlQTdu49Sb4rZE/q6iENkUJ3u3qmNTXFlb+Y11CvLcxoKVkNChrAErQuSaRVUvR9JRwTvvf4TJL/4HU16coKa0zZo1tTRuBFPVAEhhh7mipLKFvdJWeds45y/4GmMefarS2zitgTSCaF17q/skTksqeWJZ5Pf4kxNV6BkVzgI61q1VWQqksQ9nz8eTz7ygSn+kHqoF66YC/HzRMdAXvu3b8dNPFaBJTVVZh7zN2PL2Sym2sKq0MP5svfFYrOGbBR+rykLJi0q+4vX/TsecD98tcxtnWUwUC9NmLbe2lFIZHlZAlOK//YmHWHB3EHHxiYhm1WPSMdansQz0LHc/SmX4isU/qAodae+SKxP/0Bi+1JbFvpu3blfFvgksOz+RmorcnDPyThI0athQFaIFsBbW36+DKlIL4KeqEGzapMx6KOmIBsFYFqQf2LhVXrZ0urm1wOnTp9Urp6XQTm+Vlz0OWu9NLNRlUCyrl0qcMmrPclk7m5GRhb1x8YgXAFmUl5B4UNWbSfHfOXl1Cq9tyVpfqRsOYGF1gH8HDLthkColNZbZX8h/VKis3vpiKdyVEs/9HFkZVSkOlkSNfJfDzp9nZ53IbClmE5ClllUA7xToz8I2T9ZmNVNvi7c+5J1aUpEov5Mqx5C+N5CleUz+9MZh3kMGKSs7G1tYN/v+26+RsXdbFja1Jlq3KcV4SceSEReXgPj9B0mKRMTs3qNqyaRYpISZK3lWKUcNJDGkGj2ocwACAvxYB+ylSj7LsqjyHHKFyuqlEYkEZPAvVIF4miWcYkoHDh5GTOweVTCswRYwSij8DjQhF9fmaOPthaBOgQp03w5tVam9yItIjT6Elf5d+YoTroju2LjKUrQ3jxr7d2qsVGGP5q4c45GekcGy0nRV0r+bf2P5YgqxMCk7zWJFJN9TAkduZPbippN2bbzh69uepaR8dRXrdGXA3WkVZR26fkxr8R+ycuG3S1aIsbohfdM/hN/0jd7GXhZbUlJPKsBjdu3BHrJaOrqfZifl60V89WkdxoQuzZuzs60UY/zYWRNzvHD7XQ/xf+uwx6aI5awyZy0XR1aignHPTMY7b05VaUwp9kjkYEqx8j6yUoqRheX0onwhWlO4sCCkM99XIy98kHYDyUSRrSYsTC7rMEmU+W3IZfgDuaYikU6FgL0Q7cvytKZQ7MJgy+gfP5HCiu9jCuw4vvliX3yC0m2pKM+l6XKk0JygiEZK2X67dj6mel3+LDJ0nO9IkPDrDEuWzvAaW9bWis63JQtlYDq0b8NkURe0pj5KXa3xjR4Wi7DUzZpqYq3LP8vz+lWSgvIuNv7emtV/ZrepA2V5ZLn2JGtnj9Nkhc3yJiFhn5TDi3OS9wZIWCFMknm6sFje9iGaLQ5THIpouFR5SwGz9SHtCxPVG7mlqNqKiRUp/6wMForVvGnpdytVtoVyzi+reaOUXCj8kWblBQ1S5W16hZPp/+cw/Z8HULG0AGx9aFPWJmucuNQEgBfqfo0DezHcjaBbz3rkPd3G98iW1Y6lKNnwRiQNaFVNuar8uqLAliclFzMmowO5nEysKOBXDbAVfeC/ynm1wNbQSNUCWwtsDSFQQ83+DzAyqBDGNqWAAAAAAElFTkSuQmCC;" vertex="1" parent="1">
          <mxGeometry x="1113" y="199" width="91.88" height="101.5" as="geometry" />
        </mxCell>
        <mxCell id="vCrRRUYNwniXk347K93_-71" value="Functions" style="shape=table;startSize=30;container=1;collapsible=0;childLayout=tableLayout;fillColor=#E6E6E6;" vertex="1" parent="1">
          <mxGeometry x="1103" y="-90" width="100" height="90" as="geometry" />
        </mxCell>
        <mxCell id="vCrRRUYNwniXk347K93_-72" value="" style="shape=tableRow;horizontal=0;startSize=0;swimlaneHead=0;swimlaneBody=0;strokeColor=inherit;top=0;left=0;bottom=0;right=0;collapsible=0;dropTarget=0;fillColor=none;points=[[0,0.5],[1,0.5]];portConstraint=eastwest;" vertex="1" parent="vCrRRUYNwniXk347K93_-71">
          <mxGeometry y="30" width="100" height="20" as="geometry" />
        </mxCell>
        <mxCell id="vCrRRUYNwniXk347K93_-73" value="Function 1" style="shape=partialRectangle;html=1;whiteSpace=wrap;connectable=0;strokeColor=inherit;overflow=hidden;fillColor=none;top=0;left=0;bottom=0;right=0;pointerEvents=1;" vertex="1" parent="vCrRRUYNwniXk347K93_-72">
          <mxGeometry width="100" height="20" as="geometry">
            <mxRectangle width="100" height="20" as="alternateBounds" />
          </mxGeometry>
        </mxCell>
        <mxCell id="vCrRRUYNwniXk347K93_-74" value="" style="shape=tableRow;horizontal=0;startSize=0;swimlaneHead=0;swimlaneBody=0;strokeColor=inherit;top=0;left=0;bottom=0;right=0;collapsible=0;dropTarget=0;fillColor=none;points=[[0,0.5],[1,0.5]];portConstraint=eastwest;" vertex="1" parent="vCrRRUYNwniXk347K93_-71">
          <mxGeometry y="50" width="100" height="20" as="geometry" />
        </mxCell>
        <mxCell id="vCrRRUYNwniXk347K93_-75" value="Function 2" style="shape=partialRectangle;html=1;whiteSpace=wrap;connectable=0;strokeColor=inherit;overflow=hidden;fillColor=none;top=0;left=0;bottom=0;right=0;pointerEvents=1;" vertex="1" parent="vCrRRUYNwniXk347K93_-74">
          <mxGeometry width="100" height="20" as="geometry">
            <mxRectangle width="100" height="20" as="alternateBounds" />
          </mxGeometry>
        </mxCell>
        <mxCell id="vCrRRUYNwniXk347K93_-76" value="" style="shape=tableRow;horizontal=0;startSize=0;swimlaneHead=0;swimlaneBody=0;strokeColor=inherit;top=0;left=0;bottom=0;right=0;collapsible=0;dropTarget=0;fillColor=none;points=[[0,0.5],[1,0.5]];portConstraint=eastwest;" vertex="1" parent="vCrRRUYNwniXk347K93_-71">
          <mxGeometry y="70" width="100" height="20" as="geometry" />
        </mxCell>
        <mxCell id="vCrRRUYNwniXk347K93_-77" value="Function 3" style="shape=partialRectangle;html=1;whiteSpace=wrap;connectable=0;strokeColor=inherit;overflow=hidden;fillColor=none;top=0;left=0;bottom=0;right=0;pointerEvents=1;" vertex="1" parent="vCrRRUYNwniXk347K93_-76">
          <mxGeometry width="100" height="20" as="geometry">
            <mxRectangle width="100" height="20" as="alternateBounds" />
          </mxGeometry>
        </mxCell>
        <mxCell id="vCrRRUYNwniXk347K93_-91" style="edgeStyle=orthogonalEdgeStyle;rounded=0;orthogonalLoop=1;jettySize=auto;html=1;" edge="1" parent="1" source="vCrRRUYNwniXk347K93_-89" target="vCrRRUYNwniXk347K93_-65">
          <mxGeometry relative="1" as="geometry" />
        </mxCell>
        <mxCell id="vCrRRUYNwniXk347K93_-101" style="edgeStyle=orthogonalEdgeStyle;rounded=0;orthogonalLoop=1;jettySize=auto;html=1;" edge="1" parent="1" source="vCrRRUYNwniXk347K93_-89" target="vCrRRUYNwniXk347K93_-100">
          <mxGeometry relative="1" as="geometry" />
        </mxCell>
        <mxCell id="vCrRRUYNwniXk347K93_-89" value="&lt;div&gt;AWS Lambda&lt;/div&gt;&lt;div&gt;Function&lt;/div&gt;&lt;div&gt;(API caller)&lt;br&gt;&lt;/div&gt;" style="outlineConnect=0;dashed=0;verticalLabelPosition=bottom;verticalAlign=top;align=center;html=1;shape=mxgraph.aws3.lambda_function;fillColor=#F58534;gradientColor=none;" vertex="1" parent="1">
          <mxGeometry x="1280.75" y="10" width="69" height="72" as="geometry" />
        </mxCell>
        <mxCell id="vCrRRUYNwniXk347K93_-96" style="edgeStyle=orthogonalEdgeStyle;rounded=0;orthogonalLoop=1;jettySize=auto;html=1;entryX=1;entryY=0.5;entryDx=0;entryDy=0;" edge="1" parent="1" source="vCrRRUYNwniXk347K93_-92" target="vCrRRUYNwniXk347K93_-66">
          <mxGeometry relative="1" as="geometry" />
        </mxCell>
        <mxCell id="vCrRRUYNwniXk347K93_-92" value="&lt;div&gt;Amazon Opensearch&lt;/div&gt;&lt;div&gt;Serverless&lt;br&gt;&lt;/div&gt;" style="sketch=0;points=[[0,0,0],[0.25,0,0],[0.5,0,0],[0.75,0,0],[1,0,0],[0,1,0],[0.25,1,0],[0.5,1,0],[0.75,1,0],[1,1,0],[0,0.25,0],[0,0.5,0],[0,0.75,0],[1,0.25,0],[1,0.5,0],[1,0.75,0]];outlineConnect=0;fontColor=#232F3E;fillColor=#8C4FFF;strokeColor=#ffffff;dashed=0;verticalLabelPosition=bottom;verticalAlign=top;align=center;html=1;fontSize=12;fontStyle=0;aspect=fixed;shape=mxgraph.aws4.resourceIcon;resIcon=mxgraph.aws4.elasticsearch_service;" vertex="1" parent="1">
          <mxGeometry x="1253" y="210" width="78" height="78" as="geometry" />
        </mxCell>
        <mxCell id="vCrRRUYNwniXk347K93_-98" style="edgeStyle=orthogonalEdgeStyle;rounded=0;orthogonalLoop=1;jettySize=auto;html=1;" edge="1" parent="1" source="vCrRRUYNwniXk347K93_-97" target="vCrRRUYNwniXk347K93_-92">
          <mxGeometry relative="1" as="geometry" />
        </mxCell>
        <mxCell id="vCrRRUYNwniXk347K93_-97" value="&lt;div&gt;Amazon S3&lt;/div&gt;&lt;div&gt;(Document Repository)&lt;br&gt;&lt;/div&gt;" style="sketch=0;points=[[0,0,0],[0.25,0,0],[0.5,0,0],[0.75,0,0],[1,0,0],[0,1,0],[0.25,1,0],[0.5,1,0],[0.75,1,0],[1,1,0],[0,0.25,0],[0,0.5,0],[0,0.75,0],[1,0.25,0],[1,0.5,0],[1,0.75,0]];outlineConnect=0;fontColor=#232F3E;fillColor=#7AA116;strokeColor=#ffffff;dashed=0;verticalLabelPosition=bottom;verticalAlign=top;align=center;html=1;fontSize=12;fontStyle=0;aspect=fixed;shape=mxgraph.aws4.resourceIcon;resIcon=mxgraph.aws4.s3;" vertex="1" parent="1">
          <mxGeometry x="1437" y="210" width="78" height="78" as="geometry" />
        </mxCell>
        <mxCell id="vCrRRUYNwniXk347K93_-105" style="edgeStyle=orthogonalEdgeStyle;rounded=0;orthogonalLoop=1;jettySize=auto;html=1;" edge="1" parent="1" source="vCrRRUYNwniXk347K93_-100" target="vCrRRUYNwniXk347K93_-89">
          <mxGeometry relative="1" as="geometry" />
        </mxCell>
        <mxCell id="vCrRRUYNwniXk347K93_-100" value="Databases, data lake, IoT, other actions" style="whiteSpace=wrap;html=1;" vertex="1" parent="1">
          <mxGeometry x="1411.5" y="16" width="126.5" height="60" as="geometry" />
        </mxCell>
        <mxCell id="vCrRRUYNwniXk347K93_-110" style="edgeStyle=orthogonalEdgeStyle;rounded=0;orthogonalLoop=1;jettySize=auto;html=1;" edge="1" parent="1" source="vCrRRUYNwniXk347K93_-107" target="vCrRRUYNwniXk347K93_-97">
          <mxGeometry relative="1" as="geometry" />
        </mxCell>
        <mxCell id="vCrRRUYNwniXk347K93_-107" value="Context data" style="sketch=0;outlineConnect=0;fontColor=#232F3E;gradientColor=none;fillColor=#232F3D;strokeColor=none;dashed=0;verticalLabelPosition=bottom;verticalAlign=top;align=center;html=1;fontSize=12;fontStyle=0;aspect=fixed;pointerEvents=1;shape=mxgraph.aws4.document;" vertex="1" parent="1">
          <mxGeometry x="1577" y="213.25" width="52.25" height="71.5" as="geometry" />
        </mxCell>
        <mxCell id="vCrRRUYNwniXk347K93_-108" value="Embedding &#xa;Model" style="shape=image;verticalLabelPosition=bottom;labelBackgroundColor=default;verticalAlign=top;aspect=fixed;imageAspect=0;image=data:image/png,iVBORw0KGgoAAAANSUhEUgAAADUAAAAwCAYAAACxKzLDAAAPRElEQVRoQ91ZCXSN1xb+Mg+mxFQRQQwVRARFQiYRQwwhE0GaxDxFi3otVTVXPC1KS1FExDO1atYIYgoS8xTVlhBFCEoSSWR8e5+bc/339ia5aq2ut96fFTfuP+3v7L2//e19DErowP/ZYfA2oJTrwX8XFxfD0NAQBgYG6mVS/v1Prd3fAiXBsMESjJGRkdrmoqIiNTjltf+zoJRGsvESTOrde9i45SeMjAiBzTu1hdf4Wnme//6nvKa3p5Rg2GD+NTY2RmFhEWZ+sRiJZ87BvVMHnDh9Fn6+PpgcOUI4hs8bGalC8p8CViEo7VArKmIwqlCLO3QMazZsQT1bG3xEIOzq1cWvv9/G0hXr8CjjCUZFDEKPrp7iWn0BaeSpnvHKGaxctHJBaYYak4CBuPn323exfFU0/rN9FxbNnYaIIcHi9QWFhTAh7wnAh49j1bpNcGzxLqZOHgcLc3Pxvb4hqO8i6MJdJijlQ2Xu8HfrYrcLY8NCAnD8dDImjx+B9m2dRDiamJiITxmaubm5cHbrjX3b16FJo4ZQ5mBZTlAu5JNXuXhGv7QSOi/na82IoOpbVoWhIrwr9BTfyDR9/tJVfDxjARrY2SJq9ieoXasmgsPGYezwUHTxcNWgc0kSL3Ny0CtoGDZ89yUaNawvQpCfVd7B97I38+mz46FNyMrPg7mxKUroh9ChqKRY5XH6MSKsT/NfIanrIDSoXO21DWXVKWXd+Wb1BhyIP4oxw0Lh18tHPJRXfWBEJCJHhcPL3UXtBb5PGp+ZlQXfwKGIWfUVGts3UL+0PFAyQvIolFv8HI0NHXvCvVY95HGZIBCmhq9LR05hAQISd2OBkxvaWL9DgIltaUHK9JSSknsHD8WE0RHo6eOJgoICWkkjYjQDhAydIDylBMUGyyLMoDp3D8aO2JVo2ther/CTnnpFIBzjNmCfhz9SszPRtIqVALTkRjJeFhXCiUCMb+oMvxM7McexE5ytqYxwJJQHSq44h8Kg4R8gYnAQunVxK2UxQ0HTvgHhRN0j0c3bjai7UFC8kulyKKdmzl8i6N2mjqp2lRd+SuZjz7SMi8YRr2CMO38YgfWaooqJKSbT391tGuHQ4zSk9h4hPDW7JYGqrieo4mIunoYIDh+HYaED4NvNSxhvSCvGTLh7fzzatHaEHVF6RQZXxM4y7Pg5TAy84g33rkECgZp2JRF+to1Erl198QRftHKDd8J2xHkEYMDpvfi8pSuFnx6gxMNLKXhAxHgBisNPWafKYzBZN6Sx5RVfeQ1/FtB7TYnRlt48j0nnDuJBwARMvHgU/WwbC7BXnmcgysn9NahTezHT0bX88JMhwFxTTCHAxoSOmkThFwgfL1X4GXGYaQlYZQlQGimBlwVKF6Aoypvlv12AiYEhjnuHYPT5eATVexdWJmaIPHsQ3jb2OJbxB+72GSnCbxaFXxtd4fdX5VCkzhGffkMwcexw9OnpLZKdCZXDUnlPReGlPK8BmksQrWAh1zny0Nzrp7H61hUkdBkAfzJ4q2sf/Em0bmdZBeZ0PvrWVUEUDtVqYlADB/QjopjFRGFVS5C+mig0lcNrkfrH/Yf4Zk0Mks9dQiVLSwT798L7VHR51QsFxVLsU91RJnhZ4JSeUudPKf2T9IUJ5elC8tDqW5dxpMtANKhUFfX3rEZMR1+idFvk8vvo4ZbGJmoyyirMR3DiHkS1di+b0uXL2OAl365F7JYdGBk+CGNHhOL2nTTMjvoa6Y8yMG/GFLi0b6N+uKhb5fSaXDuUh65Q/DcBWpd6DWd8hsDK1IzqUiE8j2zFw5xMmIniqyq46uJLjzSkL3OKi+iewahnUVldH0WdUhVaVWtw4NBRLPtuPdoRq40ID1ErAanZ9h9MwOrozahapTI+mxKJpk3s9dJzypwrolAzIg/HpKZg4+3LKCDjckkpxHkGCUAFZCh7LuXFU1x//hhFpYuibNFF1JLNdSwqwau2nXrN2E4BSjIdh1KnboEIJ1IYPXSwuFC2DjLE+BpegO/WxiIvP5+033D8nvkMUTeSYECGGFFyG9M1hWQY5wn/Pc+xM2qaWyKbFIClkbFqRenlN+i+lBcZFFYGVHvsUZnqEN/DnmUW9EjYimp0fRVTc1UksHfoH75XFFqy71rmU+x3D4A9yyRZfAmQxoyiZ2AYZnz8AVzbt1WLVGVi8wIou1w+l/w0HV2PbBGsmElaDJTYMLNA5dL4T+szCvse3sbUc/E46RuBhpWqiTDiBVAebJRsI1gmNf95PXa790erarXK5KG+x3/C7FbEflaqOsURYMCglF7o1j8UH384WtC3roKqbOENyCguwnw/M5Ip/X82sddCMv5LNz+MbeKMfO6OaWVH03exv5zFrm5D0JoMqEthw6teKDpilQf4Uy4gy6TWcTH4sXNfkU1H0+8KUftezbpwqW6Da1SEHa1qwv/kbt0yScl+DGrqpLHo6tlZQ/pod7Da9Yf9bUQAP7+aiLlJB7DcMxCRTVVkMvFCApb/kgQjE3NaqCIRiik9I1CdvFne0Xjf94inPPv06kn8mfsStei+2znZSOwaAg8iEab9oNI6pSGTnjx5UmJtbS2ezfmiBMU16RXljQmFkYmJStfJoYrSGF4UXnETun8GgZp/Ng5fu/tjAoHKJxAZ1BOxp/an3cQ2kjZOVFMaUQ7cy8nCraxnIhdfk6eK55gshtNzkogNp1w+hoF2DnCoWp104CEc8x4Ir4RtiPcIFDJpJskkDUGblpZWYmtrqxMUG3v9l98wfc4i9PB2x1CSShYW5hpFV3pZCWpe8s9YRsYzqFwiBwtalGHJcVhP4Xe93xi0oMLJ920lkFvvXKNcNIVKlDGlMSEQdVPuHnp0F7/2GoZJl44i2K4ZHKpUR+SFwwJUFwJ1kEAFn9qjKr7a2k/Kfc4XVg8cfpxTUnlfupKCBYtXIDc3j4AFoy8NVnhOoSSQskBxveGWIZxCMva3i0jxG4Pm1WroJArtUJTh98nlE7Q4+bChWnSV2O40NYVuh7fgKIWfAKWt0iX7CZotDT9topA16vLVG4hasgIvc3KxfNFs1KdBi7pgK8OPPPW1lqdCz+zDppsXEOsVBJcaNqJYci1ixtIOZdH5MlEcjMEut/7IKSrAwQepgtI9a9dHZ1IY5589Qrvq76D/iV3kKa3w06b0HgFhmDVtIlzeayM8ZWpKoaE1w4sYOwVB/XxJC3YVdYwZkD3F6noqrepCArCEWoaJzdoJZWBGxkffuY5hlNR8mFPCp/Yeidr0yXWJ6w4fzJJycZnSm+xfi82uvUgmvS6ufF12QT4sqH5xy9/7xA586eypSenaxdetR5AwlkOQD2m0IAMCwCAjxk7GB2OGoi2pDi5zgtaZaMio1Ozn+JWUgCOtoi15Q1l7kp4+RNrLTAGmc01bUZiVB9cupnY+WA8OpLYiu+AVqhJr5tM5WcP4Gj7Pdz/Ky8G2Tn1EaGp0vmywDCMeRi5buR41qluTePWHm2t7jRdnZ7+EV+8QbI9ZAfsGdoKiuWms6FDKJHnt7vu3sPPeTSGzuJsdWL+ZIAghdQjB5T8z6PcxinUPk0QE1SP13q1Ow9KlUI3gNGYUyhdv2roTMSRonVo6YBRJpty8PBw7mYSjJ07DqlpVfPvVXJiZmWpg4QfyaskVk2MreRGvLqcQF1FjKtQ3KOlvkFdzigsxPyUZ05p3QLh9SxGS/NvswDrUoVpmbWYpIkF4sDQHGSeH60XShoneg0SJUCsKKWj5BjaK6xB/ylkCT5K+XbMRtWpYw6OzC4YM6IfmzZr87V6qLI8+e5UHBwIxn1r1kY2dkEV50y4+Fjvd+qFF1RplBoL/yV2Y0dIFbWkQ85fBi6w38m5ZZBlcQOgYakFCxIxCrJY6RFSJLQ995+UyItgI0SEwcxLJ3Ce10P3YD4ggb/3LoT0a7lmDPaT9LlEL70FjsvS8l5hL6iKP3s/h+pFDOzFN4oVord0kKpdBaaRU74NHfIihNFpWtfOqjQFd9ygbRqVGlHtW2nmlrHOswpk4OCRDz+xHWMOWWEv91TbqfMeQGplNBfbss3QkpN+BK5HMLhLIyaQ2+hIo7gL0miaVNXjR3lhTGqqLDN6EQLhdMSbSYYb0ObYdD+jzeq/hiKSx2PQWHZH49AFqUo6FNWiBXkTlB0hR+B2nuR+pdL3nfrLNkCMyMU0qbfDYWFlTrly7Iaje4d3GGqHJde7M2Yto49QSlSpRsgtF/lcqUwpq2SDeI0DND6zHNRK+40kaTW/eEacIFItgBsX1iZtKMcx8k7mfNIKHmcNJ93Xx6MRQRPipNgJK8CIzC4GUc0uiZsC5VQs1KA45ntC69xiAHzauqHBCK4CVDmHEJIv+35zGzntJUXx4MQGfkac4t5amnIFdZSvqlEtwiuQSg5rXisJP37kfv4gbQt+gCDH3C+7fS70dyoBYuX80fT5RfBXRWLJnZAPJHsnKzkZP/3DErF6s1yxd1Ev64VkET2idSSZxk8jdso15ZRq+FOLk43t4RWHK0yRW7cx+M4n9nHWxn3bsKwvy5h92I2bzj+hOSn0Mzc4tLVR90L64I0T3MdixaZXwnpwuSXZkUN37h2HT90vfaNeDvczyqvG+tfjK2YO0Yl3k8N4XfV+JFD3rFwbI4Fj9r2jnIya0MjX03sq5/zAdcxYuQ0bGU1GMXTu0hV/ICMz5dBI83VS7Huo5OdM0geb9qZ4BEYheuUh4SuZgeeQh84vZ8P2k/eDcMuW5hnbxpVA1KCF49LnFpbcYwOi1QSCTWrlZlkQzwJkLliA9/TFtWg/C+JFhAhC/1JhClb3EK8Y7is9fvICrTyD2blsrQOmz6SYJSN8dR10LVKGnpNJQ7hDyav646wBWrN0oBjRzpk8WuaTcHo1POEk7HosRRHkYOSpMhKdK05Uh5EqtU9YuVQ9c9iFrobRR3qv3RrYSnDSOB5zfrNogBp3B/r1JQvXHg4ePMCtqKR5TmI6jIWh3b483klRKetdWOeWFrVLNVAhKPkj7ZRxKUlmcOJWMlTQH5D3fzKxsdKJ84z0p9p5kRH0lVEXFWp/zeoPSBU4Zknw+etN2dGjnjBYOTdXUz8CUC6KPUW97zRuD0gVO9EB0QrKfrnFaRbn0tkCU978VKGWi8kMZnPZOiBKMkgSkEdq7Icqk1yYAfYGLCa18sGrv6fXBKy+Vt/ZKV2RgeQaU1a4ow1Q533/T8P0vJrZt+MrdJeoAAAAASUVORK5CYII=;" vertex="1" parent="1">
          <mxGeometry x="1365.5" y="158.5" width="53" height="48" as="geometry" />
        </mxCell>
        <mxCell id="vCrRRUYNwniXk347K93_-112" style="edgeStyle=orthogonalEdgeStyle;rounded=0;orthogonalLoop=1;jettySize=auto;html=1;entryX=0;entryY=0.5;entryDx=0;entryDy=0;" edge="1" parent="1" source="vCrRRUYNwniXk347K93_-57" target="vCrRRUYNwniXk347K93_-65">
          <mxGeometry relative="1" as="geometry">
            <Array as="points">
              <mxPoint x="1053" y="140" />
              <mxPoint x="1053" y="46" />
            </Array>
          </mxGeometry>
        </mxCell>
        <mxCell id="vCrRRUYNwniXk347K93_-114" style="edgeStyle=orthogonalEdgeStyle;rounded=0;orthogonalLoop=1;jettySize=auto;html=1;entryX=0;entryY=0.5;entryDx=0;entryDy=0;" edge="1" parent="1" source="vCrRRUYNwniXk347K93_-57" target="vCrRRUYNwniXk347K93_-66">
          <mxGeometry relative="1" as="geometry">
            <Array as="points">
              <mxPoint x="1053" y="152" />
              <mxPoint x="1053" y="250" />
            </Array>
          </mxGeometry>
        </mxCell>
        <mxCell id="vCrRRUYNwniXk347K93_-125" value="&lt;div&gt;Query&lt;/div&gt;&lt;div&gt;embeddings&lt;br&gt;&lt;/div&gt;" style="edgeLabel;html=1;align=center;verticalAlign=middle;resizable=0;points=[];" vertex="1" connectable="0" parent="vCrRRUYNwniXk347K93_-114">
          <mxGeometry x="-0.0831" y="1" relative="1" as="geometry">
            <mxPoint x="-4" y="26" as="offset" />
          </mxGeometry>
        </mxCell>
        <mxCell id="vCrRRUYNwniXk347K93_-128" value="" style="edgeStyle=orthogonalEdgeStyle;rounded=0;orthogonalLoop=1;jettySize=auto;html=1;" edge="1" parent="1">
          <mxGeometry relative="1" as="geometry">
            <mxPoint x="494.9999999999998" y="270" as="sourcePoint" />
            <mxPoint x="495" y="250" as="targetPoint" />
          </mxGeometry>
        </mxCell>
        <mxCell id="vCrRRUYNwniXk347K93_-132" value="" style="edgeStyle=orthogonalEdgeStyle;rounded=0;orthogonalLoop=1;jettySize=auto;html=1;entryX=0.5;entryY=0;entryDx=0;entryDy=0;entryPerimeter=0;" edge="1" parent="1">
          <mxGeometry relative="1" as="geometry">
            <mxPoint x="495" y="258" as="sourcePoint" />
            <mxPoint x="494.9999999999998" y="278" as="targetPoint" />
          </mxGeometry>
        </mxCell>
        <mxCell id="vCrRRUYNwniXk347K93_-141" style="edgeStyle=orthogonalEdgeStyle;rounded=0;orthogonalLoop=1;jettySize=auto;html=1;" edge="1" parent="1" source="vCrRRUYNwniXk347K93_-144" target="vCrRRUYNwniXk347K93_-147">
          <mxGeometry relative="1" as="geometry" />
        </mxCell>
        <mxCell id="vCrRRUYNwniXk347K93_-142" style="edgeStyle=orthogonalEdgeStyle;rounded=0;orthogonalLoop=1;jettySize=auto;html=1;" edge="1" parent="1" source="vCrRRUYNwniXk347K93_-144" target="vCrRRUYNwniXk347K93_-160">
          <mxGeometry relative="1" as="geometry" />
        </mxCell>
        <mxCell id="vCrRRUYNwniXk347K93_-143" style="edgeStyle=orthogonalEdgeStyle;rounded=0;orthogonalLoop=1;jettySize=auto;html=1;" edge="1" parent="1" source="vCrRRUYNwniXk347K93_-144">
          <mxGeometry relative="1" as="geometry">
            <mxPoint x="602.5" y="789.9999999999995" as="targetPoint" />
          </mxGeometry>
        </mxCell>
        <mxCell id="vCrRRUYNwniXk347K93_-144" value="&lt;div&gt;AWS Lambda&lt;/div&gt;&lt;div&gt;Function&lt;/div&gt;&lt;div&gt;(Integrator)&lt;br&gt;&lt;/div&gt;" style="outlineConnect=0;dashed=0;verticalLabelPosition=bottom;verticalAlign=top;align=center;html=1;shape=mxgraph.aws3.lambda_function;fillColor=#F58534;gradientColor=none;" vertex="1" parent="1">
          <mxGeometry x="459.5" y="754" width="69" height="72" as="geometry" />
        </mxCell>
        <mxCell id="vCrRRUYNwniXk347K93_-145" style="edgeStyle=orthogonalEdgeStyle;rounded=0;orthogonalLoop=1;jettySize=auto;html=1;" edge="1" parent="1" source="vCrRRUYNwniXk347K93_-147" target="vCrRRUYNwniXk347K93_-150">
          <mxGeometry relative="1" as="geometry" />
        </mxCell>
        <mxCell id="vCrRRUYNwniXk347K93_-146" style="edgeStyle=orthogonalEdgeStyle;rounded=0;orthogonalLoop=1;jettySize=auto;html=1;" edge="1" parent="1" source="vCrRRUYNwniXk347K93_-147" target="vCrRRUYNwniXk347K93_-144">
          <mxGeometry relative="1" as="geometry" />
        </mxCell>
        <mxCell id="vCrRRUYNwniXk347K93_-147" value="Amazon Lex" style="sketch=0;points=[[0,0,0],[0.25,0,0],[0.5,0,0],[0.75,0,0],[1,0,0],[0,1,0],[0.25,1,0],[0.5,1,0],[0.75,1,0],[1,1,0],[0,0.25,0],[0,0.5,0],[0,0.75,0],[1,0.25,0],[1,0.5,0],[1,0.75,0]];outlineConnect=0;fontColor=#232F3E;fillColor=#01A88D;strokeColor=#ffffff;dashed=0;verticalLabelPosition=bottom;verticalAlign=top;align=center;html=1;fontSize=12;fontStyle=0;aspect=fixed;shape=mxgraph.aws4.resourceIcon;resIcon=mxgraph.aws4.lex;" vertex="1" parent="1">
          <mxGeometry x="319.5" y="751" width="78" height="78" as="geometry" />
        </mxCell>
        <mxCell id="vCrRRUYNwniXk347K93_-148" style="edgeStyle=orthogonalEdgeStyle;rounded=0;orthogonalLoop=1;jettySize=auto;html=1;" edge="1" parent="1" source="vCrRRUYNwniXk347K93_-150" target="vCrRRUYNwniXk347K93_-135">
          <mxGeometry relative="1" as="geometry" />
        </mxCell>
        <mxCell id="vCrRRUYNwniXk347K93_-149" style="edgeStyle=orthogonalEdgeStyle;rounded=0;orthogonalLoop=1;jettySize=auto;html=1;" edge="1" parent="1" source="vCrRRUYNwniXk347K93_-150" target="vCrRRUYNwniXk347K93_-147">
          <mxGeometry relative="1" as="geometry" />
        </mxCell>
        <mxCell id="vCrRRUYNwniXk347K93_-150" value="&lt;div&gt;AWS Lambda&lt;/div&gt;&lt;div&gt;Function&lt;/div&gt;&lt;div&gt;(Translator)&lt;br&gt;&lt;/div&gt;" style="outlineConnect=0;dashed=0;verticalLabelPosition=bottom;verticalAlign=top;align=center;html=1;shape=mxgraph.aws3.lambda_function;fillColor=#F58534;gradientColor=none;" vertex="1" parent="1">
          <mxGeometry x="189.5" y="753.5" width="69" height="72" as="geometry" />
        </mxCell>
        <mxCell id="vCrRRUYNwniXk347K93_-151" style="edgeStyle=orthogonalEdgeStyle;rounded=0;orthogonalLoop=1;jettySize=auto;html=1;" edge="1" parent="1" source="vCrRRUYNwniXk347K93_-152" target="vCrRRUYNwniXk347K93_-158">
          <mxGeometry relative="1" as="geometry" />
        </mxCell>
        <mxCell id="vCrRRUYNwniXk347K93_-152" value="Users" style="sketch=0;outlineConnect=0;gradientColor=none;fontColor=#545B64;strokeColor=none;fillColor=#879196;dashed=0;verticalLabelPosition=bottom;verticalAlign=top;align=center;html=1;fontSize=12;fontStyle=0;aspect=fixed;shape=mxgraph.aws4.illustration_notification;pointerEvents=1" vertex="1" parent="1">
          <mxGeometry x="-280.5" y="748" width="100" height="81" as="geometry" />
        </mxCell>
        <mxCell id="vCrRRUYNwniXk347K93_-153" style="edgeStyle=orthogonalEdgeStyle;rounded=0;orthogonalLoop=1;jettySize=auto;html=1;" edge="1" parent="1" source="vCrRRUYNwniXk347K93_-135" target="vCrRRUYNwniXk347K93_-158">
          <mxGeometry relative="1" as="geometry" />
        </mxCell>
        <mxCell id="vCrRRUYNwniXk347K93_-154" style="edgeStyle=orthogonalEdgeStyle;rounded=0;orthogonalLoop=1;jettySize=auto;html=1;" edge="1" parent="1" source="vCrRRUYNwniXk347K93_-135" target="vCrRRUYNwniXk347K93_-150">
          <mxGeometry relative="1" as="geometry" />
        </mxCell>
        <mxCell id="vCrRRUYNwniXk347K93_-155" style="edgeStyle=orthogonalEdgeStyle;rounded=0;orthogonalLoop=1;jettySize=auto;html=1;" edge="1" parent="1" source="vCrRRUYNwniXk347K93_-158" target="vCrRRUYNwniXk347K93_-152">
          <mxGeometry relative="1" as="geometry" />
        </mxCell>
        <mxCell id="vCrRRUYNwniXk347K93_-156" style="edgeStyle=orthogonalEdgeStyle;rounded=0;orthogonalLoop=1;jettySize=auto;html=1;" edge="1" parent="1" source="vCrRRUYNwniXk347K93_-158" target="vCrRRUYNwniXk347K93_-135">
          <mxGeometry relative="1" as="geometry" />
        </mxCell>
        <mxCell id="vCrRRUYNwniXk347K93_-157" value="Webhook" style="edgeLabel;html=1;align=center;verticalAlign=middle;resizable=0;points=[];" vertex="1" connectable="0" parent="vCrRRUYNwniXk347K93_-156">
          <mxGeometry x="-0.051" y="1" relative="1" as="geometry">
            <mxPoint x="-14" y="-8" as="offset" />
          </mxGeometry>
        </mxCell>
        <mxCell id="vCrRRUYNwniXk347K93_-158" value="WhatsApp" style="dashed=0;outlineConnect=0;html=1;align=center;labelPosition=center;verticalLabelPosition=bottom;verticalAlign=top;shape=mxgraph.weblogos.whatsapp;fillColor=#00E676;strokeColor=#dddddd" vertex="1" parent="1">
          <mxGeometry x="-120.5" y="751.2" width="74.4" height="74.8" as="geometry" />
        </mxCell>
        <mxCell id="vCrRRUYNwniXk347K93_-159" style="edgeStyle=orthogonalEdgeStyle;rounded=0;orthogonalLoop=1;jettySize=auto;html=1;" edge="1" parent="1" source="vCrRRUYNwniXk347K93_-160" target="vCrRRUYNwniXk347K93_-144">
          <mxGeometry relative="1" as="geometry" />
        </mxCell>
        <mxCell id="vCrRRUYNwniXk347K93_-160" value="" style="sketch=0;points=[[0,0,0],[0.25,0,0],[0.5,0,0],[0.75,0,0],[1,0,0],[0,1,0],[0.25,1,0],[0.5,1,0],[0.75,1,0],[1,1,0],[0,0.25,0],[0,0.5,0],[0,0.75,0],[1,0.25,0],[1,0.5,0],[1,0.75,0]];outlineConnect=0;fontColor=#232F3E;fillColor=#C925D1;strokeColor=#ffffff;dashed=0;verticalLabelPosition=bottom;verticalAlign=top;align=center;html=1;fontSize=12;fontStyle=0;aspect=fixed;shape=mxgraph.aws4.resourceIcon;resIcon=mxgraph.aws4.dynamodb;" vertex="1" parent="1">
          <mxGeometry x="455" y="620" width="78" height="78" as="geometry" />
        </mxCell>
        <mxCell id="vCrRRUYNwniXk347K93_-161" style="edgeStyle=orthogonalEdgeStyle;rounded=0;orthogonalLoop=1;jettySize=auto;html=1;" edge="1" parent="1" target="vCrRRUYNwniXk347K93_-144">
          <mxGeometry relative="1" as="geometry">
            <mxPoint x="602.5" y="789.9999999999995" as="sourcePoint" />
          </mxGeometry>
        </mxCell>
        <mxCell id="vCrRRUYNwniXk347K93_-164" value="Amazon DynamoDB" style="text;strokeColor=none;align=center;fillColor=none;html=1;verticalAlign=middle;whiteSpace=wrap;rounded=0;" vertex="1" parent="1">
          <mxGeometry x="464" y="580" width="60" height="30" as="geometry" />
        </mxCell>
        <mxCell id="vCrRRUYNwniXk347K93_-214" value="" style="edgeStyle=orthogonalEdgeStyle;rounded=0;orthogonalLoop=1;jettySize=auto;html=1;" edge="1" parent="1">
          <mxGeometry relative="1" as="geometry">
            <mxPoint x="494.4999999999998" y="900" as="sourcePoint" />
            <mxPoint x="494.5" y="880" as="targetPoint" />
          </mxGeometry>
        </mxCell>
        <mxCell id="vCrRRUYNwniXk347K93_-215" value="" style="edgeStyle=orthogonalEdgeStyle;rounded=0;orthogonalLoop=1;jettySize=auto;html=1;entryX=0.5;entryY=0;entryDx=0;entryDy=0;entryPerimeter=0;" edge="1" parent="1">
          <mxGeometry relative="1" as="geometry">
            <mxPoint x="494.5" y="888" as="sourcePoint" />
            <mxPoint x="494.4999999999998" y="908" as="targetPoint" />
          </mxGeometry>
        </mxCell>
        <mxCell id="vCrRRUYNwniXk347K93_-216" value="" style="rounded=0;whiteSpace=wrap;html=1;strokeColor=#005E00;" vertex="1" parent="1">
          <mxGeometry x="-176" y="1130" width="1070" height="496" as="geometry" />
        </mxCell>
        <mxCell id="vCrRRUYNwniXk347K93_-217" value="&lt;div&gt;Managed by&lt;/div&gt;&lt;div&gt;Amazon Bedrock&lt;br&gt;&lt;/div&gt;" style="sketch=0;points=[[0,0,0],[0.25,0,0],[0.5,0,0],[0.75,0,0],[1,0,0],[0,1,0],[0.25,1,0],[0.5,1,0],[0.75,1,0],[1,1,0],[0,0.25,0],[0,0.5,0],[0,0.75,0],[1,0.25,0],[1,0.5,0],[1,0.75,0]];outlineConnect=0;fontColor=#232F3E;fillColor=#01A88D;strokeColor=#ffffff;dashed=0;verticalLabelPosition=bottom;verticalAlign=top;align=center;html=1;fontSize=12;fontStyle=0;aspect=fixed;shape=mxgraph.aws4.resourceIcon;resIcon=mxgraph.aws4.bedrock;" vertex="1" parent="1">
          <mxGeometry x="-94.1" y="1136" width="48" height="48" as="geometry" />
        </mxCell>
        <mxCell id="vCrRRUYNwniXk347K93_-218" value="" style="shape=image;verticalLabelPosition=bottom;labelBackgroundColor=default;verticalAlign=top;aspect=fixed;imageAspect=0;image=data:image/png,iVBORw0KGgoAAAANSUhEUgAAADUAAAAwCAYAAACxKzLDAAAPRElEQVRoQ91ZCXSN1xb+Mg+mxFQRQQwVRARFQiYRQwwhE0GaxDxFi3otVTVXPC1KS1FExDO1atYIYgoS8xTVlhBFCEoSSWR8e5+bc/339ia5aq2ut96fFTfuP+3v7L2//e19DErowP/ZYfA2oJTrwX8XFxfD0NAQBgYG6mVS/v1Prd3fAiXBsMESjJGRkdrmoqIiNTjltf+zoJRGsvESTOrde9i45SeMjAiBzTu1hdf4Wnme//6nvKa3p5Rg2GD+NTY2RmFhEWZ+sRiJZ87BvVMHnDh9Fn6+PpgcOUI4hs8bGalC8p8CViEo7VArKmIwqlCLO3QMazZsQT1bG3xEIOzq1cWvv9/G0hXr8CjjCUZFDEKPrp7iWn0BaeSpnvHKGaxctHJBaYYak4CBuPn323exfFU0/rN9FxbNnYaIIcHi9QWFhTAh7wnAh49j1bpNcGzxLqZOHgcLc3Pxvb4hqO8i6MJdJijlQ2Xu8HfrYrcLY8NCAnD8dDImjx+B9m2dRDiamJiITxmaubm5cHbrjX3b16FJo4ZQ5mBZTlAu5JNXuXhGv7QSOi/na82IoOpbVoWhIrwr9BTfyDR9/tJVfDxjARrY2SJq9ieoXasmgsPGYezwUHTxcNWgc0kSL3Ny0CtoGDZ89yUaNawvQpCfVd7B97I38+mz46FNyMrPg7mxKUroh9ChqKRY5XH6MSKsT/NfIanrIDSoXO21DWXVKWXd+Wb1BhyIP4oxw0Lh18tHPJRXfWBEJCJHhcPL3UXtBb5PGp+ZlQXfwKGIWfUVGts3UL+0PFAyQvIolFv8HI0NHXvCvVY95HGZIBCmhq9LR05hAQISd2OBkxvaWL9DgIltaUHK9JSSknsHD8WE0RHo6eOJgoICWkkjYjQDhAydIDylBMUGyyLMoDp3D8aO2JVo2ther/CTnnpFIBzjNmCfhz9SszPRtIqVALTkRjJeFhXCiUCMb+oMvxM7McexE5ytqYxwJJQHSq44h8Kg4R8gYnAQunVxK2UxQ0HTvgHhRN0j0c3bjai7UFC8kulyKKdmzl8i6N2mjqp2lRd+SuZjz7SMi8YRr2CMO38YgfWaooqJKSbT391tGuHQ4zSk9h4hPDW7JYGqrieo4mIunoYIDh+HYaED4NvNSxhvSCvGTLh7fzzatHaEHVF6RQZXxM4y7Pg5TAy84g33rkECgZp2JRF+to1Erl198QRftHKDd8J2xHkEYMDpvfi8pSuFnx6gxMNLKXhAxHgBisNPWafKYzBZN6Sx5RVfeQ1/FtB7TYnRlt48j0nnDuJBwARMvHgU/WwbC7BXnmcgysn9NahTezHT0bX88JMhwFxTTCHAxoSOmkThFwgfL1X4GXGYaQlYZQlQGimBlwVKF6Aoypvlv12AiYEhjnuHYPT5eATVexdWJmaIPHsQ3jb2OJbxB+72GSnCbxaFXxtd4fdX5VCkzhGffkMwcexw9OnpLZKdCZXDUnlPReGlPK8BmksQrWAh1zny0Nzrp7H61hUkdBkAfzJ4q2sf/Em0bmdZBeZ0PvrWVUEUDtVqYlADB/QjopjFRGFVS5C+mig0lcNrkfrH/Yf4Zk0Mks9dQiVLSwT798L7VHR51QsFxVLsU91RJnhZ4JSeUudPKf2T9IUJ5elC8tDqW5dxpMtANKhUFfX3rEZMR1+idFvk8vvo4ZbGJmoyyirMR3DiHkS1di+b0uXL2OAl365F7JYdGBk+CGNHhOL2nTTMjvoa6Y8yMG/GFLi0b6N+uKhb5fSaXDuUh65Q/DcBWpd6DWd8hsDK1IzqUiE8j2zFw5xMmIniqyq46uJLjzSkL3OKi+iewahnUVldH0WdUhVaVWtw4NBRLPtuPdoRq40ID1ErAanZ9h9MwOrozahapTI+mxKJpk3s9dJzypwrolAzIg/HpKZg4+3LKCDjckkpxHkGCUAFZCh7LuXFU1x//hhFpYuibNFF1JLNdSwqwau2nXrN2E4BSjIdh1KnboEIJ1IYPXSwuFC2DjLE+BpegO/WxiIvP5+033D8nvkMUTeSYECGGFFyG9M1hWQY5wn/Pc+xM2qaWyKbFIClkbFqRenlN+i+lBcZFFYGVHvsUZnqEN/DnmUW9EjYimp0fRVTc1UksHfoH75XFFqy71rmU+x3D4A9yyRZfAmQxoyiZ2AYZnz8AVzbt1WLVGVi8wIou1w+l/w0HV2PbBGsmElaDJTYMLNA5dL4T+szCvse3sbUc/E46RuBhpWqiTDiBVAebJRsI1gmNf95PXa790erarXK5KG+x3/C7FbEflaqOsURYMCglF7o1j8UH384WtC3roKqbOENyCguwnw/M5Ip/X82sddCMv5LNz+MbeKMfO6OaWVH03exv5zFrm5D0JoMqEthw6teKDpilQf4Uy4gy6TWcTH4sXNfkU1H0+8KUftezbpwqW6Da1SEHa1qwv/kbt0yScl+DGrqpLHo6tlZQ/pod7Da9Yf9bUQAP7+aiLlJB7DcMxCRTVVkMvFCApb/kgQjE3NaqCIRiik9I1CdvFne0Xjf94inPPv06kn8mfsStei+2znZSOwaAg8iEab9oNI6pSGTnjx5UmJtbS2ezfmiBMU16RXljQmFkYmJStfJoYrSGF4UXnETun8GgZp/Ng5fu/tjAoHKJxAZ1BOxp/an3cQ2kjZOVFMaUQ7cy8nCraxnIhdfk6eK55gshtNzkogNp1w+hoF2DnCoWp104CEc8x4Ir4RtiPcIFDJpJskkDUGblpZWYmtrqxMUG3v9l98wfc4i9PB2x1CSShYW5hpFV3pZCWpe8s9YRsYzqFwiBwtalGHJcVhP4Xe93xi0oMLJ920lkFvvXKNcNIVKlDGlMSEQdVPuHnp0F7/2GoZJl44i2K4ZHKpUR+SFwwJUFwJ1kEAFn9qjKr7a2k/Kfc4XVg8cfpxTUnlfupKCBYtXIDc3j4AFoy8NVnhOoSSQskBxveGWIZxCMva3i0jxG4Pm1WroJArtUJTh98nlE7Q4+bChWnSV2O40NYVuh7fgKIWfAKWt0iX7CZotDT9topA16vLVG4hasgIvc3KxfNFs1KdBi7pgK8OPPPW1lqdCz+zDppsXEOsVBJcaNqJYci1ixtIOZdH5MlEcjMEut/7IKSrAwQepgtI9a9dHZ1IY5589Qrvq76D/iV3kKa3w06b0HgFhmDVtIlzeayM8ZWpKoaE1w4sYOwVB/XxJC3YVdYwZkD3F6noqrepCArCEWoaJzdoJZWBGxkffuY5hlNR8mFPCp/Yeidr0yXWJ6w4fzJJycZnSm+xfi82uvUgmvS6ufF12QT4sqH5xy9/7xA586eypSenaxdetR5AwlkOQD2m0IAMCwCAjxk7GB2OGoi2pDi5zgtaZaMio1Ozn+JWUgCOtoi15Q1l7kp4+RNrLTAGmc01bUZiVB9cupnY+WA8OpLYiu+AVqhJr5tM5WcP4Gj7Pdz/Ky8G2Tn1EaGp0vmywDCMeRi5buR41qluTePWHm2t7jRdnZ7+EV+8QbI9ZAfsGdoKiuWms6FDKJHnt7vu3sPPeTSGzuJsdWL+ZIAghdQjB5T8z6PcxinUPk0QE1SP13q1Ow9KlUI3gNGYUyhdv2roTMSRonVo6YBRJpty8PBw7mYSjJ07DqlpVfPvVXJiZmWpg4QfyaskVk2MreRGvLqcQF1FjKtQ3KOlvkFdzigsxPyUZ05p3QLh9SxGS/NvswDrUoVpmbWYpIkF4sDQHGSeH60XShoneg0SJUCsKKWj5BjaK6xB/ylkCT5K+XbMRtWpYw6OzC4YM6IfmzZr87V6qLI8+e5UHBwIxn1r1kY2dkEV50y4+Fjvd+qFF1RplBoL/yV2Y0dIFbWkQ85fBi6w38m5ZZBlcQOgYakFCxIxCrJY6RFSJLQ995+UyItgI0SEwcxLJ3Ce10P3YD4ggb/3LoT0a7lmDPaT9LlEL70FjsvS8l5hL6iKP3s/h+pFDOzFN4oVord0kKpdBaaRU74NHfIihNFpWtfOqjQFd9ygbRqVGlHtW2nmlrHOswpk4OCRDz+xHWMOWWEv91TbqfMeQGplNBfbss3QkpN+BK5HMLhLIyaQ2+hIo7gL0miaVNXjR3lhTGqqLDN6EQLhdMSbSYYb0ObYdD+jzeq/hiKSx2PQWHZH49AFqUo6FNWiBXkTlB0hR+B2nuR+pdL3nfrLNkCMyMU0qbfDYWFlTrly7Iaje4d3GGqHJde7M2Yto49QSlSpRsgtF/lcqUwpq2SDeI0DND6zHNRK+40kaTW/eEacIFItgBsX1iZtKMcx8k7mfNIKHmcNJ93Xx6MRQRPipNgJK8CIzC4GUc0uiZsC5VQs1KA45ntC69xiAHzauqHBCK4CVDmHEJIv+35zGzntJUXx4MQGfkac4t5amnIFdZSvqlEtwiuQSg5rXisJP37kfv4gbQt+gCDH3C+7fS70dyoBYuX80fT5RfBXRWLJnZAPJHsnKzkZP/3DErF6s1yxd1Ev64VkET2idSSZxk8jdso15ZRq+FOLk43t4RWHK0yRW7cx+M4n9nHWxn3bsKwvy5h92I2bzj+hOSn0Mzc4tLVR90L64I0T3MdixaZXwnpwuSXZkUN37h2HT90vfaNeDvczyqvG+tfjK2YO0Yl3k8N4XfV+JFD3rFwbI4Fj9r2jnIya0MjX03sq5/zAdcxYuQ0bGU1GMXTu0hV/ICMz5dBI83VS7Huo5OdM0geb9qZ4BEYheuUh4SuZgeeQh84vZ8P2k/eDcMuW5hnbxpVA1KCF49LnFpbcYwOi1QSCTWrlZlkQzwJkLliA9/TFtWg/C+JFhAhC/1JhClb3EK8Y7is9fvICrTyD2blsrQOmz6SYJSN8dR10LVKGnpNJQ7hDyav646wBWrN0oBjRzpk8WuaTcHo1POEk7HosRRHkYOSpMhKdK05Uh5EqtU9YuVQ9c9iFrobRR3qv3RrYSnDSOB5zfrNogBp3B/r1JQvXHg4ePMCtqKR5TmI6jIWh3b483klRKetdWOeWFrVLNVAhKPkj7ZRxKUlmcOJWMlTQH5D3fzKxsdKJ84z0p9p5kRH0lVEXFWp/zeoPSBU4Zknw+etN2dGjnjBYOTdXUz8CUC6KPUW97zRuD0gVO9EB0QrKfrnFaRbn0tkCU978VKGWi8kMZnPZOiBKMkgSkEdq7Icqk1yYAfYGLCa18sGrv6fXBKy+Vt/ZKV2RgeQaU1a4ow1Q533/T8P0vJrZt+MrdJeoAAAAASUVORK5CYII=;" vertex="1" parent="1">
          <mxGeometry x="303.99999999999994" y="1456" width="41.96" height="38" as="geometry" />
        </mxCell>
        <mxCell id="vCrRRUYNwniXk347K93_-219" value="&lt;div&gt;Function&lt;/div&gt;&lt;div&gt;calls&lt;/div&gt;" style="edgeLabel;html=1;align=center;verticalAlign=middle;resizable=0;points=[];" vertex="1" connectable="0" parent="1">
          <mxGeometry x="303.99999999999994" y="1316" as="geometry">
            <mxPoint x="8" y="-4" as="offset" />
          </mxGeometry>
        </mxCell>
        <mxCell id="vCrRRUYNwniXk347K93_-220" value="&lt;div&gt;Final&lt;/div&gt;&lt;div&gt;response&lt;br&gt;&lt;/div&gt;" style="edgeLabel;html=1;align=center;verticalAlign=middle;resizable=0;points=[];" vertex="1" connectable="0" parent="1">
          <mxGeometry x="1" y="1473" as="geometry" />
        </mxCell>
        <mxCell id="vCrRRUYNwniXk347K93_-221" style="edgeStyle=orthogonalEdgeStyle;rounded=0;orthogonalLoop=1;jettySize=auto;html=1;" edge="1" parent="1" source="vCrRRUYNwniXk347K93_-222" target="vCrRRUYNwniXk347K93_-233">
          <mxGeometry relative="1" as="geometry" />
        </mxCell>
        <mxCell id="vCrRRUYNwniXk347K93_-222" value="Agents for &#xa;Amazon Bedrock" style="shape=image;verticalLabelPosition=bottom;verticalAlign=top;imageAspect=0;aspect=fixed;image=data:image/png,iVBORw0KGgoAAAANSUhEUgAAAUsAAAEBCAIAAAB+FhDDAAAAAXNSR0IArs4c6QAAAARnQU1BAACxjwv8YQUAAAAJcEhZcwAAFiUAABYlAUlSJPAAAD7HSURBVHhe7b0JnGNXded/rp6enqSnfam9urq6enF32+0V29gGYwNesA02xhAMIWAyAwlDmMlAMjNM5j+fZJiEycxkyJAJ4GAWOzjGgDe84N3GGC94aW+9Vi+1a9/Xp6f7P1d6VS2pqrpL3drrftEH6l4VVWqVfvecc++55xBKKXA4nB5Fp/0vh8PpRbjCOZxehiucw+lluMI5nF6GK5zD6WW4wjmcXoYrnMPpZbjCOZxehiucw+lluMI5nF6GK5zD6WW4wjmcXoYrnMPpZbjCOZxehiucw+lluMI5nF6GK7yDEARR+6rDIEQnCHptwOkqeI2X9oPisboGre5+QvRKJh4JzGRTce25dkN0OovNa3H3i4KYzSQyyVgqFiwWVe1pTsfDFd5OBEEw2ZwWe7/J5hB0ZSOpZjOZeGghFfWrBaU00zYEvcE5sMHq9AqgpwKhRVVVFFx9YoFZVLv2TZzOhiu8PaDfK8k2m6NPdrgIMegEoj2BUFCUfC4Ti6IxT7bHmKNbYcalx9lvttiI7ljsQGkRilTJpVLxSDIayGVT2hOcToUrvA3oRcnuGbY4vXqdnuhXiG9RSBSKhUwuEppOxyOqkteeaAmiweDo2yDbvHpBhMqlZxGmc4q+RioR8WcSUSWX0Z7gdB5c4S1FJ+hlm8tidxstTkF/gn01lLmq5nKZZNQ3nWlJZK4XRZPFaXF4jFbnYtSwOhRUNZ9Pp6LhOdR5US1o85xOgiu8RQh6vdFkNzvcZqtTNKC2Be2JEqqqFrIZ1LTeaMToV5tdNOZKNhcPzSZjYVXJaU80AYPJ7PBuMMl2US/VmO5iIZ/PZkqRhVWbWoIWlVw2m47HQwuZVEyb5HQMXOGtQDQYHd5h2erRGUSdrkrbRVpQMulYYDadjBCdTrb1ofduNNcKqVgopFLhmH+2GdvsaLpx9bG5B41Wh05XdYCKXkQ6HYv6Z5VMQqcXba5B2e4RJaP2dIlScM724GKBhVw6ht679gSnA+AKby56g8EkO2RHn8nqEKq1jaBNRvEkY/6CojCd4N9DEERRcg6Mmi2uSmOOFFFF2VQsMJ9JRZR8w4y5ZDQ7+keNslNkUXeVvNGtCPoOZ5OxwuJGAC5PoiQ7PAPoxuOyVZ4sU9I5zWeTEf9sPpNAo689wWkrXOHNQi8aJKMsu/vkZVpFikohnY7Gggv5dBRddG12EVwXrI4BVNJKxjyfSkbj/jk0/NrUyYKvymi2oHMhWew6UrX6oFeey8SjgTl0GSitfXn4LzPbPWarQ7Z5tKkKCnklm46g057PppaWBk674ApvPIKgRz/W6hqwONwCxrRQHdMW1VwqHg/Op1MxtbCqAAj6xAaDq38M43Y07BgDa0+UjXkmWZJfTDnZyBxNt3Og9MN1VT8cwbg6OHcom44dZw8f/434r7R6Bk0mq9Hi0GYXoeizY/CRiibD/kySB+fthCu8wRiMJot7SDY7RKNcdcpdQslmosHpTCKKJlKbOi7MmLsGzTaXyWSrXigAV4dkIpJEp71OY46m22CUXQOjJotTm1oEo4ZsGtcOllRXjhqOj4DoJZtnWLa70bBrs4swnedy4eAUvlDutLcLrvCGodeLesnErC4qR7dM2/lczDedzsTQhaXFE4tnCaLTYSxv8wzJdg/G6KRC6FRV87lUxD+TS8eU/Jr8YXT77X3DZptbR3Q1pjufToZ8R3LpZKFOvwBljkuG3TMsyXa93oA/WHuiBOo8k0rGQnOln8x13mq4whuAIIiCweDwjlhs7hqPGkFjm8+k8COeioXXYhhXBH+FzT1odrglyVrjGmBknkBjHl5ghnf1tYPtC5gsroFxyWzRphbBF4ghQyIwk0mf/EY9/nyrq98o22S2wNXuKbLgPBWJheezycTywJ7TPLjCTxVJMtv7RsyyQ280aVOLMBubZQFzLpNYo1t+HFh4bzBZ3f0WmwcXFPzbaU+UIvNCLhP1T6eS0RWDZ8kkO/tGLc5+bVxBDpU3fzibjheUU02D1+kEnd6APoLJbDEYbbplxhx1HvJP5fB35fNc562BK/zkEUSDQTR6hrdIcq1VRNAtj/qmsplELt3ISxrMmHv6zXavZLTUnF2zbfZ4FO0kLii4uJQnMXYwGC3uoU0rmW4lk4nHAtPZhm6GsRM1o8nqGpQtLlE01JzAlc/8cNXLpCKoc22W0zS4wk8GtKb4KXb1j1ocXm2qAlRaOp1KhOZTsYA21VCYMUcJOQfMtvKhdIUxpxhEZ2L+2XQ8hH9ZkfkXw1ZHrenGYCGfToT9s7lUtNCcG2yocwzL7a5+SbaKgrE2Sa6osjQ4/0wmk2xx1v16gyu8PohOpxdNzv4R2VZ7yk2LKBw1j3Y0sJBKRpqaYYqgMbe6+iyOfkmSib468lfYSVVeyVntntq8lCJVC4VsNhFeOJxPJ7XZpqE3sPwYNOboQayQFFAopFPRRHAunY4vOR2cxsIVXgd6gxHDYKvNazDJ2tQi+DYquXTMP4MfViWb1mabDC43RpPN6uyTbW7BIKDqtSdWAy1nJhkLLqCFV9UWXT5HY15+38wWjyhJtZEFxfUmFw/PJcKBYhHXSK7zBsMVviaYz2myuAbHTRa7NrUIvoHoc6JPnk5G0vGINttCBL3e6hiwuPvQJ1+eGKtBIZ9Dv9ifiPhz7cgbx8XIJNtY9q7NaRAM+IZqT5RgwUU2Gw/PJ8O+5Rl+nFOBK/wEEKLDoNc9sFG2r5ChyaDFVDw6f/hNbdgO2Jk5CsjZLzu8enYptTropSpLjgnONWlfYO3g67S5Bp19I2jVtakK0Ibnc6no/FQqFeFOe6PgCj8ekoklcrDEcqk2YWuJokpTMZ9vap82bh+CoEeP3eIZkAwmCgItFnQgoDeeigcjgelC4y6rnAp60eAZnrA4+rTxMtCGZ+LBZDSQjIW0Kc4pwBW+KmabCz+LBsmsjY/B4sWlqxqdo3AEPQ6D2WpzePQGUzYVF0RDJhFFhWtPdwA1CmcfP0KqXA6GisF5Mo5ux0FtgnOycIWvgNFi9Q5OSPLykBuoWsgruWI+a7a7y5MdpfAygiCgP3zqGSzNoFbhhaJaLBA9ywREJ748WYa92bkMqjwWmNWmOPVT9Z5yJJNlcNPOoU1n1sibFikquZBJo7vrO7LnVLI7WwCrGNOR8l5OkSqJiC84cyCdjBVpoTKrFxWvl8yeoU3jOy60OFf16jnHhytcQzRIfSPbhjbtkm0eXfWONLo5ipKLBqZnj7wR8U0VFF54sJFgNJEI++YPvxVl720OFyjtiRIYdwgGaWBs++DYTsls02Y5a4YrnGF1eoc3n21x9etW6uyRTSV8h98MLxzukM2qnoQWi+GF6YXDe8K+GW2qGgyLBjfu6B/bTqqLVXCOz3pXuGS2bth2bt/IaYJo0LH7lFWbPvl0cmrv72YPvpZrVRLLOieXSYTnj8xO7k5FazfS8U8jiKLV4R3Zerajb7TmAh9nNdbv2yTJtv7RbUPjO0WThQgo7iptK7lsYPbgzOTuPC/633Iyiej8kbf8R/fmUlWXdpiqCTEYTa7BDUMbT7c6+0l15gxnOevxDcKQ2zUwNrBxu+z0YpBXc1RTVJV4eA7NSCwwy2uAt5F4xDd94NXg/CFFyVTtwKGsid5ksXuGJ9CgL69Uw6lk3SlcxnBu81l276hekHQ6ocYtT8dCU/tf9U8dKPCqQ51B1DftO7I/Fpgr1hS3EHSCXrQ4PN6RTZ6RzXpx1ZSkdc46UrhJtvePbukb3mIwGEsnxtVueSYTmD2wMLW3kOPa7iyyqWhwbnL+0JuJsJ8WqrwqXKNZASlHX/+GLTb3oNCp7ZnbyLpQOPp1rsGN3g1brc4BYVnBQCWbCi0cnjn0OjMU3C3vVDLJqH9mn296XzoepYVKe06IXjRZXey6vrNfWKkP3HpmXSgcQzWne5jlny7bmImFZjHkjvpmeB2CzocWi8lYMOQ7FAkcyWeS1X47YXVp7e7lt9DXOb2vcCIIss2xvMUn2oQjb78Ynjuy1G+E0xXkUolIYNY/ezAenFOqirey2je6EzZUXGesAxtOaW2OWrHIQu4jewpKVuVueReCf8FsMhbxHQ3NHq48zqT4ca7eXuGsCy+9CvT04gEMuY/Tb4TTFeDqnE/HeXh1fNadwouE8iSWnqEI/GbkCVh/NpzDWU9whXM4vQxXOIfTy3CFczi9DFc4h9PLcIVzOL0MVziH08twhXM4vQxXOIfTy3CFczi9DFc4h9PLcIVzOL0MVziniyEUCir+J1d+FBWFFPldlCq4wuuHQlFl3bbKj6Kq1BYJ5BwXVaXH3r1C8VTKb6hqIR6cDcwcKD+CvkP5HO9IU0XvdyYkOl3f8Gare7A8LFI14jsaWZguD08OyWQxGLUO2Pj+KflcLl1V2ZuzGoKgF01mUdRqLeFKmcsmC3l+x7tZcIVzOL0M99I5nF6GK5zD6WW4wjmcXoYrnMPpZfhOW9sgggAWszY4OZJpqlb10+dwauAKbwPEZIRLzoILzgaHTZs6OfZNwk8eoine25yzKlzhbYBs3Qhf/RxxWLXxyULzCvzqOfjF4zS1ftM88O+rEzqgzwmlakHRvu4kuMJbDZEMcOMV5PrLtfGpQY/Owd/cSkMxbbxuEETRbHGIktlgsujF9rccpcViOh5NxQKdllTHFd5qiNUCn7ueXHKONj416IwfvvFdGopo4/WB0Wy1e0aMFpsoSCB0RBsjVDgtsmYbvpl9SraD4ia+l95+aE6h8dRaH8p6z4FH6+3wjsgOt2gwdoi8ERYs6AVcdPpGtxokkzbbAXAb3mpqbDhNZ+GhX8OTL5aHJ+a8HfCRy4nbUR6tQxtu9w65+jcI+to+8B0CCiqTigVnDnZI8yxuw9tNXoGjMzQYXuMD3pqETGVL3XWH0WStbBJOVbVYUNryUAt5qta6VIQQk2x3D28yGE/tKLRBcBveampteDQB3/8ZffHN8vCEkJFB+NPfJyMD5eF6s+GCXt+/cafZorkwhbwSXpjMtulin04Q7a4Bq1v7W1SCskonI6GZQ/lcmy1579twAjqWW7IExWH7t145J4comlj4vQhV85lkLJ9Nt+WRTcXQIddeSjVoyc0Wp2tok9huS977Cjewu9wWbYD/YB0xm61Gs1XohEPUBoFLGBHFFj0ql0vO6qDIZbvLMzRukGRtqh30spcuSmajyWzvHzOajikcobRYVAupeDgenFNyGVUtaE+0hGZ46SDq4fxdYGrJ5pMvBK++RePtcT4xCO8f37FkxpVMau7wW0q+bRsTNtdA34Zt5a+ZlIoqBhL4FcpbmwRIx0Oh2cPtctd7U+EGg1E0WV39o5L5eHljaiGfigdjwflCLtsynTdF4QNu+NLNxKNFp02F5vLw1Etw1yNtyZbtaIUXaSGXzuUzZpuTxYZLIqc0hSKfP9yWc/Je89JFg2R1egfGTx8c33F8eSOC3mBzDQ1tOsMztEkyod/O4/MTw3Ly3n0GXHCGNuZUUFALwbnJZDQIRdS1ZjuZu25zuwfH0aksz7SS3lG4IEoWu2dgbEf/2A6DaVnkoxbzuXQmGSsWakuCoc6t7sGhidNR5+wkhuv8hOgNIPF3aWXQHwzPHUpE/eix14p8qA0i7wWF6/UG2e4Z3LRzYHynJNfe1sL3OZtOBBeOhGYn/TP7gvOHc+l4sVBAn0r7jhIlnQ8MbtnlHprAuF3orv2kYhHyOZYb16RHoaVbFd1OQcmHFw4nYkGg1SK3e5jIW7u73t1xuE4QTRa7a3CDZFzBIS8WVYx80GXKJKPZdFybxShdMhtlu9XdL0ky0QlEV5v5qBYLqWgoFpwtNGEfrilxOP4LztwGctM+Ohjn79pG+lzlEbvK9tOH6cPPlYetpMPjcPyYzR58vTxEm4FeocXhBiJUbrylYsHw3JGWbbx1q8LRxpqtTod3VDSbdaT23IvtlefzaLrjgelsJqnNViNKJtnmsti9BqNMBP3in+AYtKgk45GofxqXiQZWRO/GjBdiMsHHryDXXFoecoUvcRyFI2WRmx0eHZqR6t314Nyh1my8dZ+Xjtq2urxDE7u8G7ajT14jb9Q2SjsZCwbnJkOzB1aTN6LkMtHArH9qX3jhCPPblQJ77ysgOtHq6BuZ2NU/tl0yW/k5MKde0M6gktPRancdwGxzewc3teaCSjcpnBBBtmGYvKt/5DTJbNPpql+8WlTySjoWCs4eCEzvx2VyLQ52Pp+JBlHneyP+o5lUXFWUWp0LIoZPIxNnDoxtN5pthPTO3iSnBZRFnoyGqjbeAEw2l2dos9j8ZJiu+bxa7O6RrWcPbkJzaoMabdMiipkF3HMHfNP70rEwrdOpzucykcCMf+qdSHAml4mrqrpM56XFZfOuwfGd6Nxrs42BQl0FDPR8iekyyiJnG2/VR2gmm9Mzgpa8uRtvXfBxQRM6tuP8/vGdGDijk67NlqFQKKqpZCwws3/+yDupaKBebVei5HNR3xT+nJhvOptOUtZSS3uqjE4nmG2uwc1nDE2cYcKFpiFIEpyzk2weW+MDJkZBOnazitMVoMjD84cTcT8tqbw8iSI3W5zeEbTkTXTXO3qnzeLwOrzDksm2fLsbXzUFNZ9MREJzKGxttnEIeoPdPSDb+0TJTAjG5LUvoFgs5rOJ0Mxkps6LTTU7bacI32nr5J22GgRR9Axukh397BO1tPFGaQbdz5mD+VxTNt4614aP77hwYOMOo2yvUVf5HDufZpfsZ4+81Qx5I2zR9U3NHXoD4/N8nr31NefnOp1OMtq8G047YebcMnAdb1ydFpsMAvfbuwNVUYLzh1JRH2GG9ZglN1kcfRu2NMmSd+KHgxBhw4536VaJTvOZZGB6/8zBN+KhhWZXC0edR3xH5w/uRhdLUWor7OFvj4fn6+46mlcgm9O+PnWsqHC+yd81lEWejATxU65NlZBkR9/o1maIvBMVbnF6RNG4fNc6m074ju6bOfh6LDR/Kk2n66VQUNCez+5/PTx3WMkc07laLGQSUW1QF6ksTTXIsXzqJUjwxsbdBBP53GQ85FvyCZnHTqnJYuvfsE00NljkHWnD2T+56oVheBOam5w98HoistBKbVeiqkrYPzUz+RquwUo2VSzko8G53Orn7avB7mbd/wTc9wQNhGgmS4PRk3889xrc+SBN8p74HQIV9SLaYb1oPP4DvdRkzF8ZYOInnlLCdhlGtzXWknfiTlvl7kWZyd2/bpewV0QQRJPNWchmspmTtJ9EYNt3pS9P4f0vwqmcHawdvtO2GlU7bbSIQlUKefzTlmeOA+pZjx+C6rNPFCMKMh71+6f2aVOnTCfa8ErY/mQq2VHyRtCeJyP+k5Y3wnKcCmrpUTz5R0vkzVkjJceTiHpJrzec8CGKYo28Eeau63Qmq8vu0coKnjqdrnCEUt58j9OhqMsuI586oqA3LpaaPHW6QOEcTseCrphaaNzJSAmV0OKyIs0nDVc4pwdhpSmtcuMfhtoT3Fw6Hpo/ksukCkrupB+4RlTWXScqgWLD/NZO32k7YZ4QpwV03U4bsVng09fBYmeYhvHGfnj0eVpxYopg+F2q23vyOtIZJKd32OpcvBFcKMYi88HZg+XhKcIVzjkx3adwtxO+/gUy0qeNGwTdvQ++cxcNnVQSxOoIguDwjDoHx8rDxiqce+kcTi/DFc7h9DLrQuGiZNL1UIcTzomhKqSSNJlp7KORFwpaRY/H4ZJkkmSbbO9LRH3JiF+b5dRJ98Xhej2rHik1uglMOgvBMFUaXJyzqXF4zypcj+I222yeIZPsKKo0Ew/5Z/arqqI9zakHnrXaVPhOW32IBjTbLu/I1r6RLShvnNEJxGRl5ZPL38DhrB96SuGCoEdte4a3eEdOk62uyi7COr3eZHFqAw5n3dAjCidEMFnszqFNnpEtst2tr849Ym1PUrFExKfT8WIJnPVFLyhcb5DQcveNbHO4B5ciNA2VKtlsgkU1h5IRf7FxyYAcTlfQ3QpHt9zi8A6On+4dPa2mOAbabSWfi8cDwdkDoblD2XprLXE4PUG3Khz9bYvdPTi+s29sq2SyaLOL0GIhEw8FZw+GZidTiXBnmm4iSWRskGzZSExGUlMBnsNpEN33wUIxmG3u/rEd3g3bjRbHsq5GxWwyGvFPBecnU7FgM67vNgTitMO/+ST526/Bf/kj+Ld/AFvH2BEup3GwTmGd99BeXAvpsvNwyWJzOAdR4cLySqwqLRTy6VQkujBdrn/cyZBzTyd/fkv5a5ovgD8Ijz4PT74IBbUDK7d0X8aL0QBbxutrJtMaDh6h8drafjzjhSmcEMHq9roHNgr6ZYlKKmUbaqlYLOLPxOtuadR6iEWGT19DLr9QG5egOQVm5uH+p+DltzutXze/W9Yo6ANPwc8fo+mqF7zeM150oEOvfMO2c/pGttbImwJVi4V0MhKcPeyf2p+OBru3dBmRRDKxAf7oE/CVT5MNDSvTxVnndLzCCejNZu/INtFoZoMKilTNZ5KRhWnf1DuJyELDW/m3BWI0wrk7MDIn113alrCN02N0usIJeuc6gdWgrISysvLJ0MLcwd1R/xRrFdpDEL2euZc3Xwv/82vkjC3aLKcuCGsdhQ5epz20l9dCOj0OrwHDctCRVCzkP7qne9NXauJw9gfA4IKtYlVLGfvH+sOw/xD99p3aVJvovjjcYYPPfxSGOu8mwnOvwMPP0Wzr4vAuU3g2nQjNHUbfXBt3J7UKjybhjb0QjsH73sU+mouU/jKlNoa+EDzwDH3it+X51sPvljUVfreMkU3H/Uf3zux/tdvlvTJv7Ie7HoH/cwd9+mVtBnVVau9EBAH6PXDLDeQLHyOjfAeOUx+drnB0MTCeCs1Nzux/LR7xabO9B3rkqkrfOQj/9DP6vbvp4WltvgQRdETUw3vOY9vsN7yfaZ7DWRsdb8MpemLJiH9GG/Y6NK+wdqI/vI/+7FFtahFiMMBwH3z4A/DHv0fO2o6y157gcFanZ2u8dDIrxOG330t//Wp5WIYlsZ61DW68EiZGag7NWBWhWR+8tgfufZxmWFouEUUwN6W/vIbDBldeTD5wQXlEE2l4/nVYtgY1kqJKEynt6wp4HF4vXOFtYC0KR1h/Ur0IH74MLrsAXPbK43GqFCGfg4NH4ZfPwJsHYHwEbv4QOKza0w2HCGCViV0ujzCggGQW4vHysCmEEnDbz+hCUBsuwhVeL1zhbWCNCi9DRAFO3wL4zedsZ7a6GvriG/C9u2HDIHzpZuJpdIuP9kGjMfjmbXSyaj8C4QqvFx7LdTpUUeGNA/DLZyGz0ud4wAMGfimtlmb1LTv1R8t3SbkNbwN12XCEjAzAJ66Gs04j0jIb/uSLcPv9sHGY2/BKSn3Lrm1837JT59HfwCt7am4WcS99/Sqc3ZGa2ADXvRcmxpY3lKfPvwp3PkJ9QbJ1HG65Hjwu7YlmIBmW1hd2vQc9i1wz795HE/CPd568wvndskW4wtvAWnfatm6Em66E0UFwWGqKwLDmeN+9CyZnyhvOLD63y9C8OpMYC1z9HnLujvKIJV0+9xrc+2R52BRUFRJJdnO+Gq7weuEKbwMnVDjxOmHzRrj+cjI+rE0tQlNZeOUtePg5ODzTsquy/H54o+D3w9c7aKvJzgm45Ub44k0ryPvoLPyvH8CP7qOTU917E74VNKdv2ak/oOW1PTrRhptsLod7sVs6hXwuHZ4/Uh72BqvZcLZVdtomuOmDZLD2UhQNhGHPIXjwGXp4VptqId1nw1nfMi9InXfKEEtBJMYSCipYd166TicI+mMhJdqqji2oeHLUKhyX9mdegtf2wtUXk3NPL09WQvcdhjsegIUgjdWW+GoN/G5ZU1l3XnqxqCr5/NKjx+S9ApIBLj6bZZtXyxsXX+oPs/Ow795N9x1pl7w5XQ2Pw9sPEQXisBGXXRuXoAWVZZ7/47/AD+6lMwvaLIdTJ1zhHQc6afToPHznLrjtHvr2QZrrvq70nM6BK7yDoEVKowl46XX44T302d9Rf0h7gsM5WbjC20FRhULtWRdVFNhT2lG77T403dosh3NqcIW3g5wCCyF2A7SEZrpffANuL5nuOG+iyGkYXOFtgB2H7t4L0/M0labROOw5CD99GH5wHz3UhrPuXmWpVVhHPbQX10I68Tx8PcDqrm2bgE2DEE+hc059taUOOoruy3gxiLBtExg6r6Dd/imaWPd9y9pOaa0lIBBwOljCTSwJaic2DGwZPC+9UfC89LZBBHSidKyq6aAX3vMudqnrv/9b8u2vk//3F/Dtr+OQyFoNIw6ni+AKL2l72zh89Ar488/DrX9JvvUfyZd+j9z4QTKmXfwgThtceAYMe8tDDqeLWKcKJ6OD5P0Xkk9cTf7ij+DH3yR/9WWCVvrs7cRi1r6jBuah83Cme+B9yxZZR3E4axhy+gRcdA7ZtlGbWjN072G49W46vU6zR7svDnda4Q9vguHO61v269/Bg79e733LGgIreTc6BJuG2C3C0zbC+DDoRBDwH8vibe2b1gz9Xz+iL+7WBusPfresqfCdtrVCDCLZMkYuexf54ifgH/8L/OWX4PM3wrWXwrZxIklE1BGdcDLy3ncE5nq3oRKnp+luhROTkWzbRC49j9x8Dfn6F+B//hn8+R/CH3wULjmHOKzEaCCinuiXtR9fBo3G6Svv0Eeeo//4L8vbhsH0PISi2tccTlfRfV46MZtg4yC4HKw79OmbYcANegFEEUS0z3VkONBwHCan4HdvwfO7Wd0/fB/Kj4vPYeUZ8OeXvw1jb5T9wanycH3CvfSmwuNwIMN9rK3HCD762PYJilyvB4MIRv0aVc0qVAdjcHQGgnE4dBReeAN/KtNzsViZyoJOAfzrm+Ddu5Z+LH3uFVYXbX1XX+AKbyrrUeGsHMKAB6wyM9SDXpgYAdkEJgMYjSd0uZegOQUCEZidh3cOw1MvLlrpIqisZbH2TdWQM7eik7+UC0VTOfjWD+nr+8rDdQtXeFNZLwpnjjHa6k2jMOSG0REwSyCJ7L9NpjVqmmay4A/DQoD992v7YHK6ZKVVYEeRVbXvVoNc/3742AdZH98SdPc+VkEpGC4P1y1c4U2lNxXOTrPcDnBawW4FrxMG+2BsiBlth42gqtcMTWdgIQgBFHYYXnqTtd1FK11AQ113JjkZ6oMv3ES2T2hj/OF/exu88jYtdtlWRcPpOoWzTxcGXB1IJrvc2PSOwllrDpcVrCVJb9kIE6PMROPDKhNjHX8P6gvDzDzM+OC3r0M4zmpQq2irC8wtPwXI1e9l+ecWrRE3nZyBb/2ILvBCK12ocJsVbr6mE/uWPd5zfcuIwwoYVNttTNsbR2GkH8zGkq22sKLWa4PGUrDgg2iSmevnXoF4GpQCCptmG1bDjDjt8IWPw5lbl7pD0gd/DT99hGYy5eF6pvsUzu+WLdLE83BiMZPzz4DP3gD/6uPwhzfALTeSKy8iOyfI+DDxOI4vb1b2JJKgbx+gv3iMfuVv4Ot/B//7R6xRNr47R+dpJEaTqQbKm3HWabBx6Ji85/3oIHB5c7qdZma8XH4BfPET5KKzyMQI8bpZzYPVQb+FBiN0zyR98Q161yPwZ38L//Uf4Nt3wj1PoNhY2XAUfKLRql6EhQ+7toHNoo2RfUd5HhunB2iWl86KbPznL5LTxrXxSrCwOZaASBTeOggvvQ1KnjWsLaiQytJ8S7sgkDO2wRc+Rvrc5SHN5uHvfgi797ex6gORtP18hDa1j+8a6D4v3WWDf/cZGNJ6Y3UQGIff91Qv9B5lVvFLn4TzdjKprwST97QPnvgNvD0J8RTbEm8f5A8+Au+/kBi1PXxW6vTvb0evoTxsDUQgYLez/idmEzhl2HWa9gTy/OuAoqJFiCdpnLUTbjHdp3CMAQe9YDy2SnYK+KHqmb5l5F2nw+c+yrrtrQRT+EIQnn4Z3tqHRhuNOVVa3ZaxDLFb4c8+R7Ycu1JK/+7H8PJbNRuezaOkbStsGoHLLgSbDF7nUs5sGdZROBBkZ/t7j8IzL7a+YGPXKby76NadNti9D/7hTnrvk6znVrVbghBJJGOD8HtXw9c+D5//KFx8FnHaiKEdzSI/cFGlO8f22PYcaqG8dTAxhkshfPnTuCaSbeM18kaIbCQbR8j4KLz3PLa1cfoWYq3YMuBwVqeJCqd5hb59AH72K7j1p3D/k/S1vXTGX7NVxnTe52Ie6ceuws8uvP8i0u8ipjoyXk4R9rt2bgZjRSjxu3cg06JGQsyZxN/++RvJBbtYSvyJKEsdvvpZ+ORVLNTkcE5E02+PMp1PLcADz8CtP4OfPwqv7qGz/pqtI9aar89Fzt4Ov38tfP2P4LrLiNtBbBbUv/YdzeOSc2G84pAsHIXfvd2aVmHMOd+ygR0ijmsF4ZZgFX+y+WOP6kCK3a579znwwYta8f5wupymK7wMVRSW3f3SG/CTX8Jtv4D7n6H7j9JUWnt6EbRpZMANN7wfvvEV+PLNcNkFxGpunuvOqkGcfRrb3FrirYNwZEb7utlYZLjyIjJ0rMAjVQv4LtGX34Lb74cf3nPsgYvOgaP4rPZ9+MplI/PYhzouo4PTabRI4WWoUmAn22/uh188CrfezVx3DNHnAzVlq9CisrtlZ2yD6z8Af/Jp+NClxCYvmdlGcvpm2DpO9IsGPKfAC7tZy6HmwxYXjKu3b9bG+NvTOXhlL/zofnbX5aFn6ZMvLj3gH/6ZZfu89DYNxWhR24YlXhe+P0TWcmw5nBVpqcKXoKpKj86hJYe/vwN+8hC8to8uBGt1riMYapIzTyM3XwP/35eYsW0orO3BtZeCXBHzz/rhnckWnYF7nPCR97E6zSWYfX7nIPzwXpbws6xvGU1n2dv1nbvgiRcgUfEunb6F/RwOZ3Xao/AyTOeBMKuycscv4Yf3wSPP01IrL+3pCsjoAHzw3Q024xMbYMs4ESpCgF/9BvKtOrHD0KNyPzyUgKdeOv41VXY39sFnYNZ3zIxbzXDBLlI69S23xWrSA0Q91FM/h9M5tPRu2QkhQ/3wnrPgI+9fnrVOZ/zw1f/RQANLvvIpuHAXEbTNKpZJ8pX/zk56WwLZOgb/8Ytk0YOgL7zBThbXsMNHPvx+uOHyJeecPvA0O60wiLBhmFWzahIOC5y/i5y7ozzi5+GNpbvvltUFi04tMvzt14iz9ryXJavf+xhVG/Nq2S/6/l9VBrH0Xx6C+59u3TH4OaeR//Cvy18zm/zPDzKtrgGyY4IdiQ94ykO67xD87x+zLbcv3bxaclHDoYk0uwL00DPauIVwhddLO730Gpi3eeUl8BdfqJQ3Cpqdtx08Sn/+aKPkzfjkNWA4FoGzLYAHn22dvHEVO3+XNkDiGYjGta9PSDzN7sMvIVva4D+jyyCf+PS+GRTZrcNjfhz7QLShY2+DQSNLmybETlE4k/eH3kc+dz0ZG9Kmyn+/dBpe2E3/07fKMw3jojOr/ulPvsyKPXHWiKhjIm8HRVWp7C6lNxjsriGj1WmUrd37MFkcor4yhb6IK5n25SnTEV46u/Jx7aXk41dp4xLshWG8d+vd9LcNbjZC0FP4/EeXln5aLMA3bqVvHtDGzYfZ8E9fSy6/oDykkSTcfi997tXy8PiQkUH4098nI1qaLdue+MZ3od8Nf/x7LSppQghMzsA/3U0PtypxoAJBNAyOny4ZLWz/r0cpKEp4YTIeaszl5fbbcHb0/ddfqZQ3LjlM3vEk/M33Gi5vxkVna1+Ueflt2HNY+7o1KAq7bLOEUTz5omKkiKs05HLgD4GvJY93JuHOB9oib0RV8ul4SK1w1HsMFoWoSi6zwonSydFmG048TtbTd3SgstkQBt7AsmIepweOalONg113+ea/B90xE0D/70/gN6+28io4u/v98avJdYtXtTI5uOMB+tjz5eHxIReeBZ+5jr1vJeiLb8D37qaJNlwpbReCKA1t3CnJVm3cWxQLhfDC0WiwYQto22w4MRvJdZfB178AGwar5J3NwmO/od/8flPkjbq+5lL8dcfkHY6zOL+1lR5YWv7zr9LAYo1HDFIuOGNJtCcA/fPKXa5EmjVsWU+ghfPP7E8nI0XaquSFVqGqaiQ43UB5I+2x4Shv+PBl8KH3giiy65OLsMzNR5+jP3lQGzcatpTc/tesOsUi7BDunsdbX8uFDPfDn9zMLoSWYCfMdz1EH/lNebgaZOtGVlej3720JtIfPwC/epYq626bUC+ZTGa7xe7S6434ERIqM5e6kEIhn0knEpGFXKrBdUfaoHBit8CNV8B7zmPXJyqgU/PwTz+DA1Nr7F5QL8yAX3UJ+ewN2rgE/fR/aHHFqDIsX/WWG8gFZ5aHrHe8LwiPvQBPvbD8Ln0Zdkfly5+C8eFjHZfm/fCN71H/em/YwDkOrVY42TAEn7oGtm2qaXtAj8zAP/2C7j+ijdcGC2g3j4IkwZ5JFs0eF5b0+s2vkg3HusbTJ1+C793VroYH7NLoH39y6XSQ5b1E07DvMLy+h7VMRM0nFxPsRvphxzhgBD7gJeKx029631Pw80ebVJ2S0xu0VOFM3r9/HZw+UZkNztJF8TN939N0ek6bWhvEKjNf4JydgJ/5yVm4437qX7V7ATPg5++CP/lUZT4s/cv/R99qTObQScDOCK9jocqSL8MseUGBTBaSKNpS55YyJiPYTLiQVW1YvLYXvvtTdqGdw1mdFimcWMxwyTnomTMnsyJ9msn77l/B0y/VW06UlTH6+BVwybnlzFOqFOHBp+G+J1ZLLGe/9GufI2drmdUI3b0Xvnlby/LYVoT0u+Az17OCdnVC5wPw17fShaA25nBWoRV76SzBg3X8u4Js2VAl70CYlTp44oW65b1tE/zhjUvyZjOiDraPszKGq4GOLv6/KnnutfbKG2HtmX50P334OeqPaFNrgJ0yfPP7XN6ctdB0hZN+D3ziKrj0fFLZbwA/pm8fZA0PflO3zMi2jfDpD8H5O2uLH7gdrA7xSrDY9X3vYhv4JViNpGiC9TzrAKg/CL94HB54ir0hJ4LOBVhbnP9zO53za1McznFprpdOJkbgIx+As7bWNB5kn+Z/fhAOTdd1TMXaze3YBNe+DyaGq+51l2ArxX/7Ln1nUhtXQCQJvvVnxLWYJYIu/a+epT++vzzsBFg/Y4eV7RRYzeC2w6YNbHbJJZldAAxn5gKsAkQs2ZoycpzeoFkKZ7vcm0bg41fBtmNlkhAaTcJdD8Orb0EsVZ+8MfD+5NVw3ulgWzUnmeKq8dAzNXXX2e7UuTvI127Rxvht6Qz88V+tdijVRtguoF4HuHix3gwUlipeKHm266YorBkLh1MPTfHS2b7ajVewVp6nbayV9x33wbMvsyZkdcnb7WRnbBefQxzWSnnTTLYq2WPX1hVuX0gifPhy7Wv8v6gF2L2vA+WNoBvCKqum0jQUoaEo9Ye0h9azjcubUzeNVziT98euhCvfTYb6qk7Fjs7B938Ov91db28TsmUMPns9vPe8mjrq9JW3MYyHQEW+h8cG1cE5M+CbRqHiRiqr0/TES9rXnO5HNJiMZmv5YTBZhGXVgdY5TbDhN1wOl53P+uBUQN/cBz+4B53zuuWN+vzyzfCundW+QII++yrc8QA8/Bz4KhSOv7Tm3jIa8KsuLlcyQ6iqwP4jsHeFWJ3TjQiiwdE37B3Zqj2GNqHgtec4JRqscNaH8KJzao0t21d7CPYerit9mlVK3zEB//4z0HcsDRth2+C3/QJ+fB+d9cOcHw4ePfZjzWYYqzpvhz4XVDQkg2yBORH5VtRL5rQAQohBMktmS/mhl0xQ8VHhII1+O6wWqN42ZxycgtmF+gJvuwU+dR35r19ijccr5b0QYPJ++a1yyWGWwT61wJLASrDeCWduA4ddG0oGeN+F7P55CZadGozAS2+VhxzOeqDRCk+m4Z2DtFBtqzePwQDG5GstysH6eH/iqqUSKEtorv5Lb1ZdTUGpJyqu4zgsx0Lxfg+8+wztaySXg9f30+Q6ukrN4TRY4eyo9sf3w9sHqkQ+PgQf/QB4tP77x4eMDsIXbiIfuEgbL8Jc/dvuZe0Na3yBcASCFbnZsgylOy0s9r747Ko+npE4PNqGAsCc5iEaZGGxHjZnRRoftFBfkGWz7Dm4FO6yTnpnboWr3kMW/ecVIQYD2TjEssfP2KpN4U/DRyJF73wIvvdTOrtS5apMHiqPkdC9Hy5VjDFJcF5FFjq+mP1HWJ5sJyE0o1VTSxD0ekLa+eLxt5stTsfgBn1FASxBx6PwWpryhtAjs/DLZ2Fmge1dl2Aiv+w8uOa97IuVYIH3hy+DP/3sUiVwhJlrdMLv+CW953E6v0oadjYHc76lLXq2yYerSb+bXbREd2AJ1PaDv9a+7gB0giDbnI7+jZK0ei59p2KQjH3D26x2T7tWKEHQW9yevtHNsmzXkcrjMR0lXONVNO3t2HsYHn8BAvGl29dM25ecDRuHK3fOyrByCBh4f/zKanmrMO+Hux6hT72oTa0EM86v74dwTBsjRgnO3gEfu0Ib4vdgyPDOIXp0Vhu3FSIIJtnav+G0gbHtdlefZOmyXv+oartnRHZ63KNbPCNbTFYHaaGodDq91eEdmjijf2irXjJrsyWKRTUe9eUzSW3MKdGsvw1rsvWb11hPsuSxqpHE7YDP3wCbS0nXixCvE266sibwpgUFDkzBD+6lj/1WmzoO+CsqOwoMeuHis2DjiDZEwnH43Zva121FMsruoU39Y2fIdg8RRJ3eYHcPdVdRQUFvlK1sSwWlbnV6vMOb7e4BFF752eaB64jZ6vSObPGMbpPMtupTMbWg5JKRQNQ/i19pc5wSTVx9mcjv/hXs3lt5U4J5zp+6jmzUeuKT8SH46i3kA+8uDxF28SuTg31H4dt30jf2a7PHBx31pXIo+DP7XGTLGOvaV4IZ8Hkf7KuvekzDwQ+o7HAPjG93uIf0FWk5oslsxM9rl6AXRc/gRv2xA1HBYJQ9gxODEzutzv7mRebo+LgGRgfHd1hdfTWhAS0UU7FYZOFIcG6ykG9R27kuorn+FRP5Hb+E3furkkzGBuDGK8j4CNk2Bl/9HCtmtAi7BhOJsRtU3/kp27FbI/EkC8WXKqLUgOb92Zfbm4hukm2D46f3b9gu1kTdFIoFQJEIVS0vOhhKQCeoheoMeUFnRJ9kYHxgbFvD27zjqoFrx9jWcxz9Y6TGU1CpUsgloj7/9L5YaKGo1pcuuU5oRY0XVlf0Mx+GXVuWX/mshO2rhWLws1/Rp+rOGyfbJ1iFpmXXTlhdJPT2v31HXeUKLXaPQTLHwwuFmo9y/Rgkk80zbHV4BLE6z48WoQjZdCIZ8yXCfowhtSc6Hskkm21Oh3eU6ATdspZpaiEbDc5H/TN1JTitBrrl6PYYTLW3CSn7sKiZRCwWms3E6yiesQ5pVRWnLWNwyw2waWS1XRm2r+aPsMLG9csbIdvG4d98ihVFqobdx7rnMXrPE9p4DRgM5r4NW40Wey6VQJEnYv7iyZaCke0u79BEzYYQg4KSSyeiwVhoRlW6Mm6UZJvdOYhxONs3XfY3zaaSseBsMuqv7CJYF/g58Y5M2NwVV4aWUIu5fCoe8ceDcw1ZR3qbVincZIRLz4crLoShvuV76ezvdHAavn83PVxfMcYlmPW+5Ubyrp3aeBF2bvfdn9LJaW28BmzOAdfgpnKojO5oNh0PzR3G/yk/u0aY1zq8yWiUaxqDlk8Wcqm4b3afku36oFF2eOyeEbN5hf6naMyzyYRvan8R45B6QG3bXP2uwQ2Cvjb9GT+qRUozUb9v9kCTSm73Hi1SOMJEfu2lcNkF4HaQRZ+L/W58AW8dYIH3KaSjsBT0m68jV1+sjUuwH/7zx+ldD5WHa0G2OD3DW8Tqi3FKLovmKBaaK+TXVFwFHUuHZ4Toly1ktJjPZaKBuWSkviz9TkZEpx196cFNpPQ5qnGnMcxBSxsJzKxRkCb0CgbGlx8ulH0BdA2CC5O55Jo7MXNaqXCEVUq76UNw2blLeS80HIOX3oRfPn3qZf3JWaeR/6T13C/DLp/d9gv65to25EvY3AOewXFd9b4XGt6iijJPhxeOZlPHq15sdXldg5v1ehFXl+WFaOKh+fDCkYLSg4UcJJPV0TdqsaPTXh0w0yIhNJdKhvzT6diqta4RDOk9QxNWVz/+JZe/dUo+EwvOYXivjTlrpqUKR4jbDte8Fy48m3jYrhj9zr+wtgSNgG22/fktlTlzdPd++Pvb6+raJ4iSSbY5+keNpiozwj6pQNDzxOg5GphZ3hrSJDswaMT/KxGE5XsN2UTUN7VH6UVtVyLb3E7viNFiq43MKeSVLCo8snBEXbbjjVGb1dnvcA8ajOjt12obl9dUPLBwZI825tRJqxWOEFmGnZvAYoa3J+s4EjsRxOuCWz5Kzq3IRb/rYfrzx7RBPegNks05iPZElKoLSOLHjQLKPBUPJiJ+dLnL886+EWf/mA4EistA9WcUA/hEaCEWnl8nZzlozC1OL8q15tyE4ptH1Xw2kwwt4FtX1jkuhWa70+YaNFocOtYuslreajGTSYTmDmXT3C0/edqg8CbBWoh84hpyzSXlIT08C9//eb1tkiqRJNnmGbY43IJY7bRTKKq5XDqVjoeVXNrRv6F0oL3CDadYYBYde3UxOX/9YDTbcMlDz73mJgg75SoUMolIPLxQpKrF0Wex9+l1AlR0pyyhKtkcRu8Y12gTnJOldxSOsAa917wPNg7C0Xl4+mXWC+3U0BsMJovL6uozW6pa/5aMOTvQxgBdMFQddJfJpZNzh96szQxZT7BMFYfb3j8iGeSauitF9Gdw1StSUS8uT5FQVTURmAv5j/CTsIbQUwpHWPMDIgBVG9hwV48BoqvPau+XTMtOtpeRy6QSkQVmo9rdUKUTkGSrxe61Ofpq1sHyp44snamUoIVCKhWLBWayqThbQDmNoNcU3iQwYtRLktM9bLK7RcOyMlUl8H1MhH2hucmiqrbxA0p0OpNsE/SGgprXEX0+m1Da2kEBX49kttrdI2aLXajo3F5JkRYwRI8GZjKxENpwbZbTCLjC60AQMTR3ynaXbPNqUxWgqvOZpG96X37ZTnvLMJitVptLdvQTHaFqAX3gfC6djgSS8XAbQwZRMrn6N5jZffIV0pZVJRfxTyUiAX4trBlwhdcHhpeCXm/1DtptfXpjVWIMC84BRZ6K+mez6fga02MahV5vkF19Nke/XpTQVOJflUARDWhpcyufScQxcMjnUi1+VTqdYLTYLQ6vbHMIenTUq9xyDGSSyXAiNJ9NJ3iOWpPgCj8ZmMoNRtfAqNniWr5XpOSz2XQ0EfKnE624FCHoRVSRbHObrW79Km4wu4alpNLJRDLqz2WTrdkjEI3s1o3F6hZR29V1OItFNZdJRP1z2VRE5RsWzYQr/ORBa2l1D5gsDrOl9k4b2y7OZ6LB2Uwy1rz8c1xoDGbZYvNYnJ7lWdw1oIuBqAray1gqFsAXpj3RBNCJMJlsNs+g0eJcXjpNyeeivqOpeEgtqJRy091cuMJPCdQY0Ys214DN7q1x2hH0PNFdjwXmstlEY91jnR6XFxNqW3Z4DKJUc/GDKbmQK+YVvYQee+2t1bLOw/NHlFwO7bn2RINAt9xgttqc/WabC3Vek8RSyCvpVDQZns+k49wtbw1c4Q0AP9aiweQaHDXJzuVZq+i0o7ueivgzjTgEwp+PkrY4+sw2N7rB+Ku1JxZRlGwiMJ+MB/F34atyeIclk3VZ0k6xiOF5Jh3yHVVyaSXXmPIYmltuceHqU5OfhnrGf348NIf/vZ7TBFoPV3jDEFF4nn6T2W6WnTX51cxq5tPxwBz6xku5rieBaDBY0DxaPUajZfndtUI+n4jMJWOhQi67lP4tmWS082aL3YivahlqsVC6aj2Vz2QLhZP3MvT4ygxG19BGCdc4be4Y7G6ebxrdmUYtJZy1wxXeSNBpR9fU4h6SrS5JMkK1MUedZ5KReGAhnY7W66OiERYNRodnSLa5V8gDQ8OdTSbCC5lEePnGlSCIgsFg94xKZtloWqG0K8vBTcfjgZm8ksWlSJtdGzr86Qazo2/IbHXpMGap/iejW57JxOL+2cxx7+RxmgdXeONBnYtGs90zaLK62E3SCoeVBcj5bCw4k4nHFCW/ln0mFnLrJVvfsNXpra4NzkBt53PpZMSXTsWU45apEEqhux2ddslmqL4AX0bJpvCHJEIL+VwWfQ5t9rigW253D8srZQFpexDB+Wym1QeHnEq4wpsFOu2yc0B2uCSjpWY/mTntmVQkOJtJxNTVfWOMsdEjsLmGrS4vLho15rFIC0ouEwv4cqnY2jfMUOeSUbZ4hsyyA3967XXuYumkLxVNhQPZTEU3uGXo2Xphdg+NG+XacwQkl0lH/dP46vLdX8em2+EKbyLs2Lx0zQo9WEEv6WrOhJUCyjweWUgnojW3LIgOLbfB7h0yWzyiZFxeEaGA6gnNZ1OxbDp5Ert36E6bZIfdMyCZrDq9oTo9XNN52DeVXWlXDNcaFDdrimB3Li8Ry1yUdDIamMLFS5vitBWu8KaDplK2ey12j9Fi0VW30UM7zLbHgvOJqE8tFMtOO8a1Fle/1eY2yiu0eVOVXDwcQBt5/JIpa0FvYOf5ZovDIJmXh9AU/YxMkpniVHLpAqwBFwbvkMmCbvny0rE0m0nGw/OZeLjA8087Bq7wVoA2GZ12q7NfdngwqCb6qnC6WCwq2WQ0NJ+JhXWi3j00IVtri8YiGHIrSiYWXEiEG3ZrGp0MVu7CNSDJdqbzZWdvTOfJeCQ0o6TTGL07B8ZNK6w7xXwmHYv4MtFQnvck6DC4wltH6ZaVzWrvM9vRadcvl9NqqCrLkEuGfYl4CP1zbbZxsJDAINm9IwaTTZQk3dpbl1B8bWynD93yNHfLOxKu8FaDckKP3WLvM5otupUqwyyBri/+cdC+x0P+VCKUa3LPPZ0gGE02q2vAyC6f1u4a1MDccqrmUql4zJ+MBNZJjapuhCu8DRC2R260Or2yq18vGFZseo3qLhZziUg4FQ9kEq07TEbPwmx1os5NspUdztXWVypRpPlcMhUPxUIL/CSsw+EKbxuE6IwW5rRbnF60nzhRni9ViFLz+Vw8OBtvXMhdFyxvBx0NR5/BZBFwAVrahKNQYId0iajvSCZ1vOM0TofAFd5mMDi3uQbs3iFBlAgVCFUVVUnFAtHAbL3pZQ0Ho3N8bbLVYzAaKdHhJ6WQSyWi/kTYx698dgtc4R2BZJZNsk0y2pR8OhELK9k6arw3FVyADGaLLNv1BlM+k0zGQ9wt7y64wjmcXmalfRQOh9MrcIVzOL0MVziH08twhXM4vQxXOIfTy3CFczi9DFc4h9PLcIVzOL0MVziH08twhXM4vQxXOIfTy3CFczi9DFc4h9PLcIVzOL0MVziH08twhXM4vQxXOIfTy3CFczi9DFc4h9O7APz/bfhCqLMrb6oAAAAASUVORK5CYII=;" vertex="1" parent="1">
          <mxGeometry x="-153" y="1406.5" width="101.75" height="79" as="geometry" />
        </mxCell>
        <mxCell id="vCrRRUYNwniXk347K93_-223" value="Prompt" style="shape=table;startSize=30;container=1;collapsible=0;childLayout=tableLayout;fillColor=#E6E6E6;" vertex="1" parent="1">
          <mxGeometry x="-63" y="1259.5" width="130" height="147" as="geometry" />
        </mxCell>
        <mxCell id="vCrRRUYNwniXk347K93_-224" value="" style="shape=tableRow;horizontal=0;startSize=0;swimlaneHead=0;swimlaneBody=0;strokeColor=inherit;top=0;left=0;bottom=0;right=0;collapsible=0;dropTarget=0;fillColor=none;points=[[0,0.5],[1,0.5]];portConstraint=eastwest;" vertex="1" parent="vCrRRUYNwniXk347K93_-223">
          <mxGeometry y="30" width="130" height="27" as="geometry" />
        </mxCell>
        <mxCell id="vCrRRUYNwniXk347K93_-225" value="Conversation History" style="shape=partialRectangle;html=1;whiteSpace=wrap;connectable=0;strokeColor=inherit;overflow=hidden;fillColor=none;top=0;left=0;bottom=0;right=0;pointerEvents=1;" vertex="1" parent="vCrRRUYNwniXk347K93_-224">
          <mxGeometry width="130" height="27" as="geometry">
            <mxRectangle width="130" height="27" as="alternateBounds" />
          </mxGeometry>
        </mxCell>
        <mxCell id="vCrRRUYNwniXk347K93_-226" value="" style="shape=tableRow;horizontal=0;startSize=0;swimlaneHead=0;swimlaneBody=0;strokeColor=inherit;top=0;left=0;bottom=0;right=0;collapsible=0;dropTarget=0;fillColor=none;points=[[0,0.5],[1,0.5]];portConstraint=eastwest;" vertex="1" parent="vCrRRUYNwniXk347K93_-223">
          <mxGeometry y="57" width="130" height="35" as="geometry" />
        </mxCell>
        <mxCell id="vCrRRUYNwniXk347K93_-227" value="Action Groups, Knowledge Bases" style="shape=partialRectangle;html=1;whiteSpace=wrap;connectable=0;strokeColor=inherit;overflow=hidden;fillColor=none;top=0;left=0;bottom=0;right=0;pointerEvents=1;" vertex="1" parent="vCrRRUYNwniXk347K93_-226">
          <mxGeometry width="130" height="35" as="geometry">
            <mxRectangle width="130" height="35" as="alternateBounds" />
          </mxGeometry>
        </mxCell>
        <mxCell id="vCrRRUYNwniXk347K93_-228" value="" style="shape=tableRow;horizontal=0;startSize=0;swimlaneHead=0;swimlaneBody=0;strokeColor=inherit;top=0;left=0;bottom=0;right=0;collapsible=0;dropTarget=0;fillColor=none;points=[[0,0.5],[1,0.5]];portConstraint=eastwest;" vertex="1" parent="vCrRRUYNwniXk347K93_-223">
          <mxGeometry y="92" width="130" height="25" as="geometry" />
        </mxCell>
        <mxCell id="vCrRRUYNwniXk347K93_-229" value="Task (User Input)" style="shape=partialRectangle;html=1;whiteSpace=wrap;connectable=0;strokeColor=inherit;overflow=hidden;fillColor=none;top=0;left=0;bottom=0;right=0;pointerEvents=1;" vertex="1" parent="vCrRRUYNwniXk347K93_-228">
          <mxGeometry width="130" height="25" as="geometry">
            <mxRectangle width="130" height="25" as="alternateBounds" />
          </mxGeometry>
        </mxCell>
        <mxCell id="vCrRRUYNwniXk347K93_-230" value="" style="shape=tableRow;horizontal=0;startSize=0;swimlaneHead=0;swimlaneBody=0;strokeColor=inherit;top=0;left=0;bottom=0;right=0;collapsible=0;dropTarget=0;fillColor=none;points=[[0,0.5],[1,0.5]];portConstraint=eastwest;" vertex="1" parent="vCrRRUYNwniXk347K93_-223">
          <mxGeometry y="117" width="130" height="30" as="geometry" />
        </mxCell>
        <mxCell id="vCrRRUYNwniXk347K93_-231" value="Agent Instructions" style="shape=partialRectangle;html=1;whiteSpace=wrap;connectable=0;strokeColor=inherit;overflow=hidden;fillColor=none;top=0;left=0;bottom=0;right=0;pointerEvents=1;" vertex="1" parent="vCrRRUYNwniXk347K93_-230">
          <mxGeometry width="130" height="30" as="geometry">
            <mxRectangle width="130" height="30" as="alternateBounds" />
          </mxGeometry>
        </mxCell>
        <mxCell id="vCrRRUYNwniXk347K93_-232" style="edgeStyle=orthogonalEdgeStyle;rounded=0;orthogonalLoop=1;jettySize=auto;html=1;" edge="1" parent="1" source="vCrRRUYNwniXk347K93_-233" target="vCrRRUYNwniXk347K93_-222">
          <mxGeometry relative="1" as="geometry" />
        </mxCell>
        <mxCell id="vCrRRUYNwniXk347K93_-233" value="Amazon Bedrock &#xa;Foundation Model" style="shape=image;verticalLabelPosition=bottom;labelBackgroundColor=default;verticalAlign=top;aspect=fixed;imageAspect=0;image=data:image/png,iVBORw0KGgoAAAANSUhEUgAAAEUAAAAzCAYAAADB9sX1AAAR3ElEQVRoQ+1aeXTU53W9aJnRPtp3jaTRBtpAEgiDMQZhtthgjIvTJil2T0yT0zY5TRPHNqWHxmlP23OaeCEpdmsnqVM7bbCdYzC2YyAYDAhJgCS0S2iXRtuMdmm0jETv+8JgIUYLg2z4gy9HB5/Jb37z+93vvfvuu+9bdJUL99YNCCy6B8rNEXFXgSIh2z82gpEJKzROLvDTus0YwxMTE+jp7YOT0yJ4uHvAzU27YPF+V4AiYExcncTg+Djyu5rRNNiLMA8fPBgWAzdnFzgvcsKia688OTmJ0bExmM09OJdXAI2rKxLjDYiJ1kOjcYWLi8ttg3NXgDI2OYEr/Wa801COij4TxhgpOhctDF467DSkwuDtr8CRZe4mGLkF+OWbbyMoKBBW67gCIik+Dps35WDJ4iQVPbez7igoAkb9QA8+bqnByW4jsrwDkBEQpqKkZ2QY+Z1NaLMMYU2oHpm6UJhqm/GHT0+jtrYBaalL8MDq++Dq6oKq6isouFiE9o5ObFi/Fg/lrEVoSLDDUXNHQJlgwWtlilzqbkdZbxcs1lHoPLyxNjASCT4B0GncmEpjqOnrwuWeTjT0dAFVrbDWd8CZIbA4KRHZyzOgj4rkizujs9OEiqpqFBWXouZKHYKDA5GemoJl6SnQ6yMJnOstBY5dUCR8JccXMZddnJzhsuj2wtH2RAJG75gFFb0mlBKQ1uF+uLtqkeUfinT+Bbp5wtXJ6foLyPXm0WF8UlOGD998BwGTLnjska3IyloGH28vPt/nzzVOPmpobMZPX/o5TD3kJEZKArkmeUkS0tNSEBjgf8P1s6FkF5RmhrQ88Bi/GejmgWgPHTxcNdfJ7pZg58VCpBbmvpH3vEgwSsztGLKOIdk3COtCY5CgC5z1lp1dJrx04FVEhIfh23uegrOzxMvNq5t88+KBg+QUZ3VNX1+/iqT7spdjaXoqvx8KrXbuKmUXlGNNlTjSegWNI4NI1gVhd0wqkvyC4eRgxFgZddUk0LevFOOk2YgnIpOwJTJeEejUyJgJmU6TGQd+9p8ICw3Bnm/uVjxib5nN3fi3nx6AISYamzasU8Ac/8MpHDt5GrH6KHxrz5OIiozk559Ho7372AVllOnTQ73QOTIEIcNoEl+guycjxbE0sjAqTrbV48XKPOxLX4s03xDyhlaV2vmsWwUlmlyzZWMOYmL06KWWuVRYoiJt7/PfQ8bSNOoa91l/dkailXweJyDyr4Z57sqQtK0+AjY4PgofEqIXOWEuqIZJmqfa6/FGzUUcXP0o/LXu8wZEflNAefmV1xAWFoJvPf3kjJFiYqT867+/ghgBZXMO4uMMStMI+T6/78d49gffRcayNHh6eDgGykzfmiRD1PZ343xXC1otg9geEY9obz94uLjOGEnCJ1Je360vxb9kbyU/zXytvd+Vl331tV8ilOnzF7v/DM7kCbuc0tODA//xOiIjwpCz7gHEMo2EgGvrGvHs37+AZ77/N4yU1IUHRUizdagf5/iS5whMui4AmyITEcqS6jJDOkjEtbAES8XZFJUEDYXYXNE19aWHhoZw4tRZeLHi3L9qBbTcAHtr2GLB2dw86Hx8GCWx8Pfz+3JAmZpC5T0dKKWO2BSZAB+mkfQsVspwDQkuiOV1KjHL58PkFrnG00UDrch3Ks/58JR8t6yrDSaW50AvLySyWrk72wfG1vTbyvX4uBV1dQ14Zu+P8Nwz36V2SYWHhwOcYvMSZttN4RorI8BGlhdNRlzuboPwTai7F54wpKmIsK1efl7GSKlluV/s48+U84cfy71mClddZWqOEwAxM1wImO3eAsbrNZdwur0BcfzeXy9egUSfwDmrofRJFssIFW8t9u7/Z+x99m+ReY1Tpmqc6VFnv/rwZSd5pYg2VzspIcJOUkiASND5I5I65oSxnmW3iz2KM7tbDwWKO3sSWyR0Uq4L2X7cWsuqNoht+iRsjUhAlKfu+jOJdinoalURJS8dx9SUjTlUV4JC/tYAyT2IQGZT+W7UJ85J1qJ08/Iv4v0jH+HM+Xz8yWPb8Nj2ryhB5+4+cwduF5TPuCOXKLBGKL8NXr5YEaKH3tP3+s70jY/gAh/y9y212MGHS/MLxciklS8zji6+/PnOZoa3C7ZECdd4qYeX0t47OqIUqpR7EYVh7t7wpii0rbMdTfhdSxWMQwOIYrTFk8CFkk+zc84OikSgxl31SvJbTyctV9WxkVwldkMIr18aGK42sZuK9lxuPs4SiJ7uPsTFRsPf3xd1jU0QfoqMCMfK5VnIzEiHp+fNlcguKBW9nSghV5iGBxDI8pkdEg09wbFxhPBCGytPw0Avkhgpwh+2ki0vndfRjBMUf9FMkw3hceSAgBtKugAkS8ByniIIBZRDTRUqOhYzTXosw5TmgA+fYTU3xpcSoKy7A7kEXcsKNsk8c+JfM3/Tg9d8J34ZAiacceh3Ryj5m+Du5qYINy01GX5+vmhqbkF1TS1aWo0YGRlFSHAQtn1lM6ta8A39kV1Q5KV7Ri3o45/Iq1BPH3jzgeZTMWT3OgnYZ20NaOG/D1LGL2VfI+Q712rgrv+qtliR9sbQWJgpHiWNY7z8lOHkQr3Uy2cqJcEXcdNEDUskFdN2GOd/71uyEsFWZ7x7+Ci9FQ3TJFH1P1KNbMtkNitgzp0vQGFRKXZ/bRdWr8qGNyubbX1hXbJUgZqBbvgx5AO4i7YoExKXaiIRMrU6KdeNaflyeZ5y3b5BTgqhiu4mCO1MyT42kmI1+fJeEr0SmS4EWqKm2NyGIPLYLuExXtM/OMgKQzfuWp8zMTGJgYEBJfuFS8R/Kbpciv9649eKeHeQZwLYMH7hoNiLCgUIbcR2RpCQsLer7P4ijPKzMQLVOtSHQw2limsej0lh+R7HJ/Ra8vjSfeQjSaVAvvx95I7HCcAEq9ULJWd5Tyueik1FGiNy+pLfHBoaRi6NKXHmDIZolTaict/+33cQZ4jFo9u23jlQJELaWbUOVORjkmn2UIRBVZjjLVdQyahqo/hKZ+e8JTKO0eWBw3TipKt+wpBCXgpS4OWZWnGirQ5/RaJN9QvBr1iq2wjmpvB45FAvTU9xidi+/n68+94HOMHGUFoFcej8fHU4zKokqveOgiI6RJpNIXEzUyKYBN0+bsE/lZ/H/XzplUFRfNFgpXOq+8x4s6YQmwnQClYef4IkxCq8c8JYp3jrLwlMMwH5oKVa+bqrAiOwMUrKvC+0U/SP1WpFF+2HakZHSVkFjMY2dHaZ0c32Ycf2rXiEZOvv7/fFpo9EhPgxddz9YfYewikGltdgtgKyLEwL+Vys1BpWsIPc7UGS6mp5Ke52NCudaKBfVF/CP2asRyS9WpvIE5NKtMx/E7AfZW5QzWVRTzukcrXyXuFePvhmYhbC2dlPX8PDw2huMSr7MpdEe4EW5p9/44k/gsLqtKCcInk7NWylehWwLyokFwyNjVKF+iE7OBIxtBqnLvmeVLkiXnemsxFdg/28LgqrQqMV7wgo30tZTYEY8LlxTe/2HK99j6n1D8vWs1PXKrM7V36PQGpZ5vdn0jbgb85ULfv7B3Dm3Hlyyrt4aMOD2P7wloWJFJHjQxR3XXxI2S0pozatIilyWexGhvYEr4tkSRd3zZ/pYm8pm1KkfGUBhd0o1ocbEMXo+E1tCXdehxyW9RB+V66rGTCr9BGt/PX4pSrN8hg5Hfy+WByLCcb26GQlDmdb5eVVeOs3hxBHHbMgnCKAiAFVRAf+GGX7w1SuWQERChxHl/DN0cYqfEQSXc402sF75lLJ/qSqAA9TsyRT9otivsRUqSZ//JCaRETj/1DXyGZs0y9W6tmXEmA+eqqsvBJvvX0I8dQxCwJKOYnySHMVck0tWB+kx4aIOBioXj3Y/TqyhEAH2O8cLDlH9eqGtWEGpJBw5bP8zhbkUYs0MerEs0ljxbmf6RXLiMjj//chlXMKK9afcj7kLJ0W67ZUnNkaPnnG0rJK/Pqt/1OKd+eOR26/JEtzJ2w/wrIaw/CWCHFjKz9VoImUH6LjNilTAf5PFK2XMr9v3keJgFPst97krj8QrKdO8UQz7y8VJDMogrzhrl7U5gaOkqh11DjSLPy2sRzhrFZfM6TDnXzS2tqG3x87qazIZTSUgjkwm75aje04dvxTfPDxMex56uvzU7TC8C3UE/InK90/RAkqG/rywuPUDCK7xReZvmTne3iPI83VijDl5ZJIsptpVtvzZYWYhWwPVl3EVZakILYUvryvH/9tZ7O3M3oJy7Q3CbVLNaKjBFsAiWA1y2UKSxuwOzYNehmisRl8/8jHaDEaEcIxx/LMZZwBJSvhJiZUUXEJ8gsKYWzrUAOzr+56lMAF3WBx2pX5l/nD+fwzWgYQyrzNocgycHo33c0XC8FEopWXEh1h63gFFJHsAoo0jlJOBZRNTDN7oMj14rccpd6oZYSIak3l9dLbHKy8QM5KUKlZzR7HzN+LZ6oKIQ/TSmhg6RcR9ziBi2Epl8F7pUwMLxSikQ2gmNQptAqiORSrqa1XQ7MRC7t/irZV961gbxR7U6rZBSWPoXyZkztX9iDJvoGIZ0kUj8QW+BLGYlw3M5LEYpTSupKlVPLcdo0Qp0z5RLPIhwKMvNhsJNjPe4pqlRbAi9dK8/c61a+FbaGAH8JnWBcWi5Xs2gXEAlqiHUzlOAKYSekvnGNb/QODuFRUjDNn89DW1o4Af38KNhNiY/VYu2a1Si3pou0thxpCMYOK6bf8lka0KErxOnZwp8QmnA/zz5eM5XdOsvwerC1SPdNX9UtIqBxRzODR2ruvpMnRj47h56++wUHakxRqm5SfMttyCBTZTSOjpIo5nsomTGa/srszGdfzBWH6dRJtI9YJisBWHrnQ0OjSqW74VoAfGxtn81eP5/a9gB/+4DvX7UiHQBGeMDE0O8gJVj6caAebISQcIGQ7wqrhTUXpNOX8iL0fE49FBuoVNIhyqD9u1c3vp9lU39AELx7OkUnfrRy1mDriEFDEuPZ0xLgWLjjV0UC+6ICGLywt+brwWIcjQeY+FynE3mf53J+1Ubn5c+mIqeDKTPid9w5Tivtj28Ob1Xx4vssGynPX5j7CJQ4Nw4Twjhtrld0oZU/OjAjjS0Q4sv44IazDL9j4vb5mJ6uURNf8k6DTZLo2IQyddUJoN0qvDcOeeW4/nuWIw+EJoQzEpVGT3fRVRpBjYNgeUiLlNJ38V6suYH9GDmJZOkXILcQsWYxoK3lHo9XcVE3Grh0DKy4pwysc0O/b+31VdRyeJTsSETN9Z0zMIXaxr1ScRywF1lZOCZMp4/3EVhQ+miNqujhLlpeafupA5jolJeUQ3zWYbpr0MVp6s3I/SZsW2gRnaREcO3EKE/RU9j3/d8qznetcnEPV51YBU5YgU0jOtZ1ir1JCDRTN9mAtu98MErgM6mdbcsTi5QOvITwsDHue3n39KIWAcvpMLj6hrDd1d3OkuhJbtzwEDSuhqNZPjp9EM5Xt8syl2LVzO103nk8haHOtLwUUeQipWGIpdLPFr2cl+oxHM0S96in4dlF/JFIkzpROzR0dePGlgwgJDMS3CYpO97mBJEctWuikiYotLL6MVkaHmNbeHK/GREchJXkxDJz7iC8rETJXVMqzfmmgTN2dIXKMHOKRUUUzZbrT5FV1+C8rKFydYBA1K41kH6V8JTvy822NKDj6KTRd/chKSEJGRpo6suXl5cl5tBPTpxv5Fy7h/cMf4goPCa7mEF56niWU95E8/TTX7Hh65NwRUGwPIY1nFc+/XeDpJuNgn5otJ9EGiCBA0glX0UBq5+cW6hzfbgssVc0wNRrVQeKExHikMQoEvEaedWugjrGMcPIYEICVK7PIHXHqXJwj646CYkurPkqAvPZGfMpehg9EW0CLUQLRTiMriR3w2nA5FxcES08/TyVdVjwiKSNeyOjoGIYGh3imNgDr161RESKnIeeTJjMBdsdBmfpg0gHndzSihKLRnSV7C03sOPZT0zWNjDwLaQEc/uAjuJInHliziiSbrbhkIdZdBYqQsbQEopPEjNLSmLJHvmI4ydhCokR14IyM242OqWDeVaAsxC4vxD3ugWIHxXug3ANlfsn1/7df7+B8YxsrAAAAAElFTkSuQmCC;" vertex="1" parent="1">
          <mxGeometry x="46.99999999999994" y="1409" width="102.15" height="75.5" as="geometry" />
        </mxCell>
        <mxCell id="vCrRRUYNwniXk347K93_-234" value="ReAct" style="shape=table;startSize=30;container=1;collapsible=0;childLayout=tableLayout;fillColor=#E6E6E6;" vertex="1" parent="1">
          <mxGeometry x="176.99999999999994" y="1354" width="70" height="172" as="geometry" />
        </mxCell>
        <mxCell id="vCrRRUYNwniXk347K93_-235" value="" style="shape=tableRow;horizontal=0;startSize=0;swimlaneHead=0;swimlaneBody=0;strokeColor=inherit;top=0;left=0;bottom=0;right=0;collapsible=0;dropTarget=0;fillColor=none;points=[[0,0.5],[1,0.5]];portConstraint=eastwest;" vertex="1" parent="vCrRRUYNwniXk347K93_-234">
          <mxGeometry y="30" width="70" height="36" as="geometry" />
        </mxCell>
        <mxCell id="vCrRRUYNwniXk347K93_-236" value="Step 1" style="shape=partialRectangle;html=1;whiteSpace=wrap;connectable=0;strokeColor=inherit;overflow=hidden;fillColor=none;top=0;left=0;bottom=0;right=0;pointerEvents=1;" vertex="1" parent="vCrRRUYNwniXk347K93_-235">
          <mxGeometry width="70" height="36" as="geometry">
            <mxRectangle width="70" height="36" as="alternateBounds" />
          </mxGeometry>
        </mxCell>
        <mxCell id="vCrRRUYNwniXk347K93_-237" value="" style="shape=tableRow;horizontal=0;startSize=0;swimlaneHead=0;swimlaneBody=0;strokeColor=inherit;top=0;left=0;bottom=0;right=0;collapsible=0;dropTarget=0;fillColor=none;points=[[0,0.5],[1,0.5]];portConstraint=eastwest;" vertex="1" parent="vCrRRUYNwniXk347K93_-234">
          <mxGeometry y="66" width="70" height="35" as="geometry" />
        </mxCell>
        <mxCell id="vCrRRUYNwniXk347K93_-238" value="Step 2" style="shape=partialRectangle;html=1;whiteSpace=wrap;connectable=0;strokeColor=inherit;overflow=hidden;fillColor=none;top=0;left=0;bottom=0;right=0;pointerEvents=1;" vertex="1" parent="vCrRRUYNwniXk347K93_-237">
          <mxGeometry width="70" height="35" as="geometry">
            <mxRectangle width="70" height="35" as="alternateBounds" />
          </mxGeometry>
        </mxCell>
        <mxCell id="vCrRRUYNwniXk347K93_-239" value="" style="shape=tableRow;horizontal=0;startSize=0;swimlaneHead=0;swimlaneBody=0;strokeColor=inherit;top=0;left=0;bottom=0;right=0;collapsible=0;dropTarget=0;fillColor=none;points=[[0,0.5],[1,0.5]];portConstraint=eastwest;" vertex="1" parent="vCrRRUYNwniXk347K93_-234">
          <mxGeometry y="101" width="70" height="36" as="geometry" />
        </mxCell>
        <mxCell id="vCrRRUYNwniXk347K93_-240" value="..." style="shape=partialRectangle;html=1;whiteSpace=wrap;connectable=0;strokeColor=inherit;overflow=hidden;fillColor=none;top=0;left=0;bottom=0;right=0;pointerEvents=1;" vertex="1" parent="vCrRRUYNwniXk347K93_-239">
          <mxGeometry width="70" height="36" as="geometry">
            <mxRectangle width="70" height="36" as="alternateBounds" />
          </mxGeometry>
        </mxCell>
        <mxCell id="vCrRRUYNwniXk347K93_-241" value="" style="shape=tableRow;horizontal=0;startSize=0;swimlaneHead=0;swimlaneBody=0;strokeColor=inherit;top=0;left=0;bottom=0;right=0;collapsible=0;dropTarget=0;fillColor=none;points=[[0,0.5],[1,0.5]];portConstraint=eastwest;" vertex="1" parent="vCrRRUYNwniXk347K93_-234">
          <mxGeometry y="137" width="70" height="35" as="geometry" />
        </mxCell>
        <mxCell id="vCrRRUYNwniXk347K93_-242" value="Step n" style="shape=partialRectangle;html=1;whiteSpace=wrap;connectable=0;strokeColor=inherit;overflow=hidden;fillColor=none;top=0;left=0;bottom=0;right=0;pointerEvents=1;" vertex="1" parent="vCrRRUYNwniXk347K93_-241">
          <mxGeometry width="70" height="35" as="geometry">
            <mxRectangle width="70" height="35" as="alternateBounds" />
          </mxGeometry>
        </mxCell>
        <mxCell id="vCrRRUYNwniXk347K93_-243" style="edgeStyle=orthogonalEdgeStyle;rounded=0;orthogonalLoop=1;jettySize=auto;html=1;entryX=-0.014;entryY=0.743;entryDx=0;entryDy=0;entryPerimeter=0;" edge="1" parent="1" source="vCrRRUYNwniXk347K93_-233" target="vCrRRUYNwniXk347K93_-237">
          <mxGeometry relative="1" as="geometry" />
        </mxCell>
        <mxCell id="vCrRRUYNwniXk347K93_-244" style="edgeStyle=orthogonalEdgeStyle;rounded=0;orthogonalLoop=1;jettySize=auto;html=1;" edge="1" parent="1" source="vCrRRUYNwniXk347K93_-246" target="vCrRRUYNwniXk347K93_-259">
          <mxGeometry relative="1" as="geometry" />
        </mxCell>
        <mxCell id="vCrRRUYNwniXk347K93_-245" style="edgeStyle=orthogonalEdgeStyle;rounded=0;orthogonalLoop=1;jettySize=auto;html=1;" edge="1" parent="1" source="vCrRRUYNwniXk347K93_-246">
          <mxGeometry relative="1" as="geometry">
            <mxPoint x="246.99999999999994" y="1426" as="targetPoint" />
            <Array as="points">
              <mxPoint x="296.99999999999994" y="1332" />
              <mxPoint x="296.99999999999994" y="1426" />
              <mxPoint x="246.99999999999994" y="1426" />
            </Array>
          </mxGeometry>
        </mxCell>
        <mxCell id="vCrRRUYNwniXk347K93_-246" value="Action Groups" style="shape=image;verticalLabelPosition=bottom;labelBackgroundColor=default;verticalAlign=top;aspect=fixed;imageAspect=0;image=data:image/png,iVBORw0KGgoAAAANSUhEUgAAAH4AAABSCAYAAACSTWDFAAAU3ElEQVR4Xu1dCXxN17r/JzIQ81hjVI2tIYQYEmMkCAlian86XVr0avW2rravfa/vuq2+21u3dKCKGquUKlpCUUrRqnmqmSAxR4ghc3j/b52zjp3IcBLnnJwMSyN69t5rr7X+65u/9R2Xe2wobkVuBVyKgS9ymKsJFwNfNHEvBr6I4l4MfDHwRXUFiui8rZbxWvl3cXFBsSFg292i11R+O6rlCngZ2N279/iTBjVYR42yEL5HIBZD2tXVhT+uFmJyFPhWAy9rL5TuqIEVQqydakpWA3/37l0F+tWYa5i3YDHi4+NRokQJtWuLW+5XQLh6UlIy+ob2hF/rVuSipvV1FGFZDXxKSirc3d0w6bMv8fc3/gelvEojOSWZbED9V9xysQLC5t24lklJSQjr3QM/fr/AeYFPTU0hhbvh3//5HOMnTMTY1/6KgA5tkZLCzymjipt1KyDiUmR6TOx1vPPuBLTz88XyJfOUGNXXrOvp4e6ymuJTU1Ph5uaGiZOm4s23x2PVDwvRp1fww729CD995UoMmvl2hL9/O6wg8E7L6jXwH308BW/993tYsvArDOjXB6lpaXCjrNdN2L5JY70HN9cSSLt3V4kC9Zn598PifZd9u5NqUigXXR1oAj3suOV5AVgoPvLMOXTo2hsB7f2w4rv5zqvVp6P4d/6Jpd/OxsD+oQ8AryYn7IyAXE68g6qepfhvk7nysIqL0ZcQm5yESh6epn5lU/Evqka2wMaufRiBb9epJ/wpLoXijXOz6wDMneeN1WcCvB44JRX/uCAxLQV+6xagZcVHMKdtL7hxI8hmyCv40r/eUJ8c34PPj/yBld2GoGn5KkgjFZWQzSVvdnIOUOiAl41kBGfw76vw/dGd6PJoU6zvOgiu/COY5JU1675FkRy7dxMm7/0FTWs+hp1BQ+FpFjXCWZy9FTrgBRiR5yLXl0edwICN38KnWh1sCHySLLmkotaH1f6lD3mP9NN36wqsPLYHHwaE4q0mbZFKb6JQfTHFW7f1bcbqBRRpqWS7vusX4PDVaESQGkNq1LOAklEBlP/XfuqsFD/j5yLBU5XS6Ip916/Af+18eLh74FDIMNQqVcYiCpwZ/EJF8UKBmqL3xF5G69Wz4PuIN3YHP6M+F8AEjDShVrMMzhjo0WAJ1xDKzexedQ/70OAP27kWcw9sw+zAIRhWrxm1/DRq+/ctDOv2vmPvygp4pzfnlB2fiXKXImYdN8AHh//Au9tX44MOvfFfj7dTipeAoRWv23QEJaYmo0rJ0uk0/eg7N1G5pBdK0Umklbg7vDfBfK/WIQR8Yesiz9dfOoOQdV8j7LEWWN6xn3oHmb1Ts/t05lyXEHSgObd88dyCqdULxQuFCvBhW5ZjVeSf2N7nBbStVF19LhQv92y6EoW//B6BKwm3MbBeU8ynth9Ht++wHWuwknpBzVKl8b5PFzzPa3LvcN57ifcOePQJWgY9TTJc+QPEXHTFtaQEeK+aiQrunjgT+qJpg4nP24k9iWkkEIlxnDx9Bs1bd0Lnjv5Yu3Kxsu+liY3viGYTGa/NNKFGP8r33WT3p/u8iEfLlFcyX64npKWi5dqvcepmDGqXqYCoaxfxS8hw/BoTjX/8sQbNazXgtWukVlcc6z0cvX5dhkOxl1CnbCVExV7E0sCnMLBOI9VfCYHfbLI3pFiJjr+N6LBRqOxZUjmJ8mo5OGLBNcXHxd3EqjXrUbt2TXTp2KHgUryW0T5UuA7FxeAMga9Tupxiy6LpX0q4g3qrZqBxucoIrOaNT2mOfd4pHFtizmPpyX1YTJv88xP7sOniaWyiUhi+9QfU9CqDXtXrKdNtQrsQig7R3gk8Y9iCsLyz7c/fYNe1S5aNJnSj9YiMQGonkjIN8zm0JBxLu5tEr7F1u9+7aZ0yNptTfMcNi7CNbPoogW9crpIy8ZT2zp/AX77D5nNHiYy78DTsIWUfvxWLpzYuAaidg964x6t7Y0+PZ5XI+JkiQ33ORdoU/DQ6V61tUvpM5oDqt9Hq2Th75xYu9B2pdAQV6MhkokbQnVnrt9UGMLnRsvZk2gR4o4wfQEpdfvoAdoaOQGt67QQoJQo4o/OU1+MPbsOFO3F4oZEvBtZuqCT21BP7sezcEdQrUxFvN22P+qUrIDrhFt47tA1Rt29geENfDCab15qvpuordAl7r/oK1T29cJI6hXgHFcBZyEmtNN5MScLBG1fV5ikIbt7cbAbhiKXd3dXaZ+cGtgnwEqTRWv17h7dj/PY1+Jd/qGLN8rm7Sth40J1qNPWMk8vpXsXuCZoogIFr56Fn3SewpvOAbO14FfY0K4Yhm5dhffRx0ysLWyaJmLNcm29p5Qyp09jiVLMLqzdS/A4qbe3IflvSjt8R9DSpnVzdbGJpJ49ab/5R/nXl8TNxBU2R+t/3o3r37zU6cUbv3oBp+zfjyy4DMbK+j9InsrLjtVKVQBNRxMMFcpTeNetbzMeCzv5l7dy4npHkpjsvnMbEdr0wrokfCY/mdIkHLQWbUbwGVYD0+3kh9l6MxLKgpxBeq+EDnjuTiDaz5QxZu5l9bvxM/AKyMaLib+HxiK84KTf8Sc+dKIL3mAiaVfqSZnvJfF6AjyO7v9TvJZTk84WpfX5iL17dsgJTOvXH6AYtLWa2XSheWL2mXLHl1108g54065pVrYXfqKGXpYKWRlAe1ldvfMfIXesxc/8W/IPa/vhmHUzavlmpy4x6tfhIouhpGDEbN1MScYq2fwVzHEEZCiqNzOR6NimIzh/m1YDK/N04iUnHduPN31bhMwI/pmErtS6Cid2AN4lLU+hUAA7f9iNWHN2FUCpxSynvhQ0JIHm1sY2gv0sFccLun1GDCsyBns+hEmP+glp2zg8NfCL9CY1Wz0FcciIiCXzFLAJIwllEVsqGyGfLzyqGpAH++NguvCHAU8aP4drbHXidEKE8dVywOJpmrWjTNylfGUsDwuDlSpb6kMAb4/EfHtyKVYz8+Yl3UNn22Sd7pKN4snrR7DXwck1Y/9DtEajs5ok3nmiHFhWqqgWXhbOEk81Zpc6oDxiBH7dtJX0k/fGKLSlep159t2hWlhk42nt2+nYcqtO29nJztwRrrNq+OdwkC3+OMt7bq2yu+pXnFKvPALy8bvOVaHRdN19yo5Tv4Bm6jcc2boNW5CrSLBzAMDZn2gAOA15y7rJKvTJp7Sb/vLBg7a+3BejGviXfLzeiQ7xlSXdTCfycByh+W8wFdKEXsHrp8iafAz2KLgz1Ps+o35jGreGrNwAdUtpKsUU6ma3WxO7A/2fyVLzx9j/x4zJGxXr3tNW47d5PdqxeXv47gfen3/9JssfJLbviM2rHM08dwDXG/UGuJRxgHBM+fCpWU2N1JtC1SBIlTmS8TVm95M+70yM04cPJ+ODDSQgO6oqqVSqrZMvcUJ3dEc7AiuMTEtDKpzneHPuK8tJlRvHyyG9XLyDgJyaQMsS7NKCv6iWSomrGqf1YcOYwom9d5/w98DQjhf/XojMe4WaQ5ixzt5bi9YbNtR0/c9bXGPfOeHh4eNC1zpM0Tqz1ipYfd+smQnoGIWLZN5TfPLZ0L4Wsfm46Vq+AJ2sPoAgY1MAHi9r3QTKdQaKbSNtw+SyG/fETopgzAMYW5jDB5C/kANor6cjNnNW77Aa83inJycn488gx025XMtwZpp3FGLgp0+i5Kl+uLB6rVzcHiifwP83BAFL892aKP3XrBj49vgtzIw/hFkO/1ctWxKiGLWkf+6IicwAexkqx9apZC7x+r9UUb+uBOro/7bLNSqvXMn4oQf3QpxP+fWSHkvHJZPEVK1RTNvHLBL0aM4cKsozX62A18Oli2eZskbyBZ5INwi0seXbUE5SxbKeAiXbjZiXjZW6i1XelVl+DSSI36IO4feMKqlKTf5Ua/QvkAjWYHaSVKPEQGt3IeVsH2z5lLcXrDCCrgbfVMPUGSkhMxLIVEejWJQA1a1S3HC2y1Xsy9pOTVr/pchS6rZsnx4BQieCPaeyLl+q3RHUD4KLIyU924U57jT+nfq0FPtcUn9OLrb2ud9zRYyd4aLAzxrz8IiZ/9D5lMa0DAxewtj9r78sOePEIxtKFO5aZPvWYNfQK2X1Vs9YumbuWfH0zR3Imx42ev7XA51qrt3aBc7pPn8HbvWc/uocMRHi/3pgz4zO7JxtmBD4nX70cyFQsPacJOcn1B3z1tgrS2Gp+muL37juILsFMFhjUD19Nm+wwildBmggGaRidOxM2whKkEYBVHp7UpTHLcFvN2RH9pKP4rSsZncs8SJNvFJ8V8PY+UJAxHi9BGknJLm8JyxYU2s58G2ngJ/K84luMzkmQxibxeFvtWiPwgb3CMWhAX8z8YpLdCwPcz8BJRQO6Zi/G30RLRvYKSxP1Q+Lxktd4MfYKJrYPMWfgmFLfMjaHa/Vaxu/ctQ9tA4Lx9NBBWDBnmmL1Kl5vpwMFOudOsn5Df12OLfTGpUi6V2FBXhnJgCfXj9kJmN0+FP1q1X/4DBxbrY+m+MjIsxjHkiod2rXBuNdftjvFy/i1fLvN0zuXmKFrOtqlrvCnYLN6mYOooqnc2F5MXxe/Q3Zmp8MpPrsNZM+Il+5bJ3PYaiM7az85zdPhwBs9gBYN05B4ac+FNG6seKniJe+15wsd3LfwLMl90MGl7Agp34EXFitlPe3tDbtLFiis8CJZ/LM8zStZugp0zeEL8g4wz8FFCgHR4eRXpRZm+gWr1PGszhI6HHgHE4Hldfrs/IrokwjnMS+ULMXsX1PxJFO7L+Ml01ZV3zBcUYqn0+oBppHKGG8lJaq4h/go6jKbSOcj5rtWr9mPVMq8cSMOniU9UK5sWbtTfCrDs3LYcjXz/fuu/wbPMJ/u41ZdVTEF45l603FvF5Rx8zAUcYA67SvOH30czJkYhFFkdv9lCY4yZyCSZxdrMnXMaShea/X79h9Cj9AhGBgeimmffWR3rV47OAT4Pj/Nw+jmnTC1TfcsFfo/eCLoJEOyKdwIj9J/35zVtSpLGreTtxY8UnboRgyiSPG1vMpZTiflO8VrO37P3gPo1D0MTw7uj9nTP7W7Ha+Bj+DxolBW0RjV1B9ftAlSRRLlsKUqmkhHxzye0J10dAcOXD3P3GpmGKmz+OQAjNiN4DGt91p0RGnKTn3syxn2gVGJ8yHwh2/G4iy9krWdCfj8ctmmo3jm+49qGoAv/YJU/X2xfT0I+vs88Pm/O9bRBeYG/+qPojOrdpVh+tV+nqxde+ksbvJ3IFOufujY36I56zBtfkbsjMALxf8Zdw3neFq5ljn9PLO8QIcrd84C/EvN/DGtTTBiWU5FTuJMY3GG0dT2q5Qqi4U8ABJM4I3tAl2hYg1sJEcIZ3LGEp4OcnGSgE6BA75rj/4YPNDkq7fGnNNZL1qDva+RZ85wjfcrpY0sO4IyPpQU/1LzjgQ+CENZZ2do3ccxYtc6XKZsnB7Qjyy9uTpBo5u8R8SAZOZ027gY+y5FYjFLswzxbmwRFcUUn4PQM8r4gG59KOPDGY//1ByPzzplV/vxjRtE/q2LBj2gvJj9/vp+XT5NZHwYD3SOaNoBM/x6oOfm77Hh/Cm4MnU8ha7cw5SNjZhUKc9JCRf9vOgCIg5WnKc5uGYuAinvf+422KSU8uX2ijFYo0PkluLV/fzLoZaJZvUHDx1G/8HPo29YL5WBo6Nn1kw0L/foVOgNsRcQ9MMMjCSrn07gj1NzD6B5F0OHzhSevP0r06tlSYxyUTadLuIQzxq93547Bh+erZOqE7oVBIo3Eo3DgbfY8ax/L5WfPJmf7+XFCteMKu0/cAiz5i1ESU9xrJjdKrSp7/BrUHoEdkH/vr3Taf9RUefxyZQZJsXb7FwRACSfz6dFU4wYxgKLmmXL5zduYsScGVhUJRGjnmiPLynjpS2nUyc2OYFJlc2zNSvF+2esl2us6GHPOENOG71AUHxmk9CndBYsXIJnnxmBUuVNHidpbqzmEH/9Ol574zXFGURUqM+pef/2+w50pEnoQTat2Zac10vghgpjnP/HpfPVRpEmteXOn4hEy7+9gpjnOmHkY76Y3rYHknldWLhRnmfMoJWF1Y4Q4RD9fv0eXan8TWsdpMaZ3xk71gKv5qHzBh3N6vUg9SCMi3zh4iUcYRKmHNXSJC/XZWPU9a6DBvXrpaPI2Os3II4gAdVysoP3y+aoVqUKmjd73DJRoc7UhERM3bkVf4/agVFN2tGcC1ZKnPjvl7EaVy+WRmlolu/62LVsCK0f7Lp+GUFU7qSoAgeFWTTrhj/WzFKUIb/YfW6At2Q6ORr4nNiWva5nlPFaq5f3fcIqEq9v+g5D6JxZ3CFUuXFFdOgKGyrxkiLnJ1oEz7Cw020CX5fu0NYMhiz2D8v3ytnWAp+OqzkD8Hrgshuz0jVtrdWL504oXjJyYmjLt+aXKpynOTeJRYNep52eWZt56iBep9l3l+JkFytxSLEHb7pzpeXn4Ulrgc9X5c5eFJ1Tvxk9dy81C1B2fBIDL550wW68fA5hpPr4xHg8TeDH8qcx6+5J5u1Zavxf0MEzjd+MQaGORZ374ynvJuqVRtHl7Kxej1d+O1yrzwkge13PCniTo8Zks68n+KN5KvYka+2DqUverKObci8NF+WULA9NlmOlzuk0+Z6i40ZX0C522doLMRv1mzFIM5Ksfmrr7hbFLI3gS+kzSdD4gpS9msmYcj7eg2xdwpth/BqU5/g1K1KmVbiEnK5xlmZk9a1YzsUpgzT5tVgZw7Kv+nTGp76B2Q4np7y1/JpLdu9tSeAPXL/KsOxI54rH59diaa3+R7pnw/l9Of403eRrU6QAglExE3tdlWyjWSjfbSdmr0TvdB2f/FTislo7GaOUZROhNYUlXG7T1DzWe5hSPI3f9GF8vsjJeDHJQtYvVHIdZNnZtwfTsvJr41r9XuoqJRmHPx36AiuOmVKsM4sjFBngtRwU+bw0+gRuM8nC3cW5v7/GarANNyZzflJbsCtzCYzmW8a+igzweVnEgv1M9odEigzwRntb5F5hbqoSpyEjODP/QpEBvjADnZe5FQOfl1UrBM8UA18IQMzLFIqBz8uqFYJnioEvBCDmZQrFwOdl1QrBM8XAFwIQ8zKFYuDzsmqF4Jn/B+K4DcXEbvTPAAAAAElFTkSuQmCC;" vertex="1" parent="1">
          <mxGeometry x="356.99999999999994" y="1298" width="104.44" height="67.97" as="geometry" />
        </mxCell>
        <mxCell id="vCrRRUYNwniXk347K93_-247" style="edgeStyle=orthogonalEdgeStyle;rounded=0;orthogonalLoop=1;jettySize=auto;html=1;" edge="1" parent="1" source="vCrRRUYNwniXk347K93_-249" target="vCrRRUYNwniXk347K93_-261">
          <mxGeometry relative="1" as="geometry" />
        </mxCell>
        <mxCell id="vCrRRUYNwniXk347K93_-248" style="edgeStyle=orthogonalEdgeStyle;rounded=0;orthogonalLoop=1;jettySize=auto;html=1;entryX=1;entryY=0.5;entryDx=0;entryDy=0;" edge="1" parent="1" source="vCrRRUYNwniXk347K93_-249" target="vCrRRUYNwniXk347K93_-237">
          <mxGeometry relative="1" as="geometry">
            <Array as="points">
              <mxPoint x="296.99999999999994" y="1536" />
              <mxPoint x="296.99999999999994" y="1438" />
            </Array>
          </mxGeometry>
        </mxCell>
        <mxCell id="vCrRRUYNwniXk347K93_-249" value="Knowledge Bases" style="shape=image;verticalLabelPosition=bottom;labelBackgroundColor=default;verticalAlign=top;aspect=fixed;imageAspect=0;image=data:image/png,iVBORw0KGgoAAAANSUhEUgAAAFYAAABfCAYAAAByWTA/AAAcpElEQVR4Xu1dB1hVRxb+EUSKXUFAEbDRVCwh2FCxRtNM0U0zxU02JtFUjWsSN3E3bWOKMZqiRmN6NcUaGwrYCyIWQGwoClJFAWm6/5n35uXyggICalaun9+Tx71z7/zzn/+cOTPnanOeB2qPakfAphbYasdUNVgLbM3gWgtsDeF6dQCrZd7GxgbnzJJvY+ixfG885Hz5Tj7P4TzqwMbys/W5NQVcee1eUSmwBlRAtatTRz1zyflzpQAzdkTAK+G5tgbA1fk2vFYPjNVglAdEdf/+igBrBFT+LSBpQI/k5qDgXAk6NGhiAdiWgEnoIryV84sJYt06tordu7JOIrCxC3+ug5Jz5xRz65jZrJzIFQL4sgNrBFVYJojZEpTswrP4ODEG/9m7EcUlJZjSsRcm+AXDwdYORQTajuAKkAKagLUrOw1P71iN8OMHEebeBq936YsezTzUYBQTYGGzlosrAe5lA/ZiZr/4+AE8vzMC+04chBPZJ+fm52Sgv3cgZnUfiIBGzRUbZQCE3e/Gb8OUmAgUnM2FK88/mZ0O2NljnF93vBjYE24Ozmb95aBdIfbWOLAXM/utmSl4fc9G/HJ4j9LGUW274PWgUJw8m4eJ0eFYfywBDpSENzuH4qkO3RF7Kh1PbV+F8CNxsHWqj6mdQjHGJxDfH03A1NgoZHEw3Ju0wCsde+Phtp0Vu63Ze7nkoUaBtUzqlLen/vGPdDa9IB9Td6/H3IOxOHvmFDq5+2AqTf+2Vu0tPiSvuAhvx23FywQMPD+0tR92ZqXiNMHt4+WP6V0HoHvTFpbzD7CdNzhIn+7fQc9XjH5s67XOfdHbpWVpeeAznOefmpaHGgPWGBIZndPcg7vI0k04RKcDu7p4nEx8u2t/OFJLtfORjtuKq+IgCKsf37YS204eRT17B/yLAzDJP0SZuGajhFzi4ORYkXIYL++KwqbkRNhQEsb7dsO/AnuhWT3Hy+rcagxY6aQGV/69Pi0Z/4pdjzVH9gKO9eHp3AhHyb41g+9FWIvWKCguhr2trQJHO52i8yWwr2OHbZmpCFkyFyPadMJPvW9R7DeFZraWe8jPcj/R4Vyyfc6BXXiNDE7PPonWzVuSvaG4zztAtW98ruoOs3R7NQasDvRzigrwdPRaLEjcCRQWoJuHN+aFDMPsA7H4kGa+eMhoDKcUGD2+lhCJGmzIxI3pxxG6dB5Gtu+Kb3oONwFoZqgeBN2hYokc+IMAHJeTibfitmD+/mjKQwkGenbA2136o7M4SDmnBkOxGgO2WEIkMmopw6EbV34Jj0YueDWoD+5q7a/M/pGtKzB39yYsHXY/hrl5KzMV/RXZkE7biS6bZ1UbCGyfZfNxZ9sgfN/rJvW9DU+qY55M6BhXD441C5edOISXqelbj+3HQJ+OWNV/pOV+NaW1NQZsUck5AmuD35IP4I5VX2FcUF86nDAU0rEImx7fvhqzd2/A0qEEloyV2NXOLAUW9pkHR4DtLYxt10UBaz0rE6eoBoGDIRbyfVI82ytGd0pAsNnB7T+dBb9Fs9GHg7g2bJQaPIlE9OBUtyTUGLDiWGQ2JcDeSsaO69QH7xFYYXI9MvZxhk1z6MQWDx2NoS28lHmXsHdTKA9nec7rPF8mBwLWxYAVQERzZV6WwehhwNofsJtWAn7nUL8xlpCdA6jhh85ko81vH6MfJxMCrLaQvxxjNbC/0juPWEnGEqgZ3QaggExyYDQwetNSfEnv/dtND+NmjzYK2AKy1uXXD3GmuBAZI8ahaT0HRaTyGCsMFtl5hRYwdctyjPK7Xk2J36CzdKvfCEPJ0pMFeVjM+Ld/y7YIJ7AiGzJF/ssCqxk7nl5ZgC0SkyeTdzEiOELn0sPVEy4MheQoJMv9ls3DaQKbOPxhNKprrzp+MWDP8RrhqziiuzctwcKEaGy8+R8qxnX79WOkctKgEjNKZmzIWB+sHfC3vx6w2qOrGJMACmNvX/U1njAzVjkYdtGobQKOAJhPNvtSS8+UFOHgjQ+jCePWijBWIgFJwsxliPXIup/g5dKKVmGHeMa+YZxYTAnsgaN5p/HAhsUIJXvDw0aqHIUEBaLPNcHaatNY66mrmLV0bnVKEgaRhc9RX9/u0g9nGa8KCGKHQiTRUNFISfnJv70XzcGp4gIcuvERC2MlBpao4A5zVKBmTgqYPxItMgCizc/HRGJ2YrRykgMI4rc9b4KLgxOO5J6CDxkc5tEWq/vfqRI7kseVwTc+e3U5sWoB9k+zLIkxCdyJ/DP49+6NmMNYcoinLz4KHgIv54bq2YW5OjwSQOVYnXoEt0X+Aht2VhgrsyVpe2PGCfQhk+9u3w1fMY4Vna7Le2imWWexkvJy1KysDZ2XHKLBe09lojMnGf5NXPFdr5vRibGsHDpzZoyHq4PBVQbWCKp+oDOc+cw9EINXOfPJoI6CjGEqih/1MY7gjCXz2jYwdVqOdTTZ9+K349ejcWoSEcJ5vjgYe4InjJLf91++AD2oj7+E3oYWbE+iC81y40KzcXqrVhjMqw1nORg3RCxE5JF96nnGdeiGf3Jq3NKpgZIFHa6pKNpsDVVhb5WB1ewTzslU8jNmqqYTpANpx1QH/sbU31hmmlanJuEDpvtOncqAPUEdxYnCDe5e+OlYIn6W7Bbzsa2buqsO/51TV9FXmSwIm1OZHgxd851q06eZO6Z1CcMdnqaEjTBOkt76OYxgaK+vdf1UUSHmHYrFtL1bcCIrBe683zNMNT7WrivqM1JRJFE5iqpAarq2ysDKw0iwLeY5LHIh1jE4R10H3OMTgKd9r2OA7mZ5SnEgH+7fyYR2NLK5UgDGqWBA35KpvvEE9GECKuYvh7YErb/HKSuTd0Xi8wRmr9jzMb7dVTpR9FPlb3l/J4JjvNZa97VFHWQm7M19mzGHiXUwDOvMOHo+p9ldKRPGqXVV4K0ysDoBLTlUr8Wz4WxbF0v63o4QMkszyrRUwmmqeQoqIP1jy+/4nYPwZMee9No90dgcAYg2as2V603OzcRcOX5i7nUCc7WH05Ph49qa0sL8QVIckjkB6NjYFZ/1GAYPZrXUmpiVY7JeBorlKsS4HWsQQYv5d8hwFT1IOCihW1VnZFUGVgfamTRl78Vz4M7MVcLwMYxJJTNlMlF9yLmF5mhhHJdVZsVEIeLmhxHKqadkt+oy1rQO2vUMSaxCLzZKsD+ZKw7zqOPgfejt0MDRGacZs/b1CsCqfnealmaE2+YBsV7B0M8xl8mgR9f9iGm9b8YzTGHqRcqqOrBqAdaUvM4jsHPhWs8J+2/8u+qYmP7zZJcs9r0Y0EM9tHgGcTqPMsc6V6a0Q+5TuQKdDRNWf8RM2LqUI3iHyzItOVDaCQmLBGjN/Ak71+F9/p3M8yRRHsx4eTu1fA8nCAGNmlnyr7pttV5mHmVlGWxPpOnJqF8I7E2Y4BtcasXhikqBNlNZFWjNJEcrxwZYyThRVgc+oB6eYqLah8DFMNniTA3Upq5zBUuZKxji5oVz50ymK+31Xv0Nthzei6aUk5cCQ2ju3S2rsHKOsE3A/eFoPO7iufcH9MRIpgTHb1+JpNzTOExgPRnW6Wm1tdUIwGLyYiEzOVMbL8AyBJvgd93VB2waGdthyTxKgDgRe6RnpMC5YVM8Rg0c2y4IPkxsa+ZJh8ZuYxKGc/vlwx7AYDoPkQIBSzidTA2WBcMZXJqRaOE65hJe5frWUHemFyVHq/KENsjkYPZe8y0SGP+KHIiQTyJ73+AsT69aiPavYNrQgfcMpSZLqKZjaLnfLDJ2XOTPeJtS8BydrXGN7LIz1hi7ykMKi04W5KLjsgVIM3v7Z+m1nyCoOkg3hkXC5n/uXIsMntuVnZ0TPJhzezcL8NKeHBEMr6bKqgMXFW3oFN/jBONJtqnDMGGeaPsnBOcwnVdP11Z4kPlWbRV7qbk3rf0RRzJPKNAD3HzwO63Jg/Ii58gM8CNGBiIFbzEdqTVW7m6c1V2K3lZaY0vtC2DOtYTOQ4CQDrbj1LUembOczqObOQ8qHRBdk3MkzBGP/rOEOZwsXE9T38I4Fg6OipET/YOVw1PTTYImqwSSmHlr3xZMYWL8ZsbDv4WOUJMD4wqCkVkWz8/r79iwCAu5ejCG+p7LcOw7WsBjnftgZreBKjwTaXovbjueXfs9XmMkM9n/ehTScnQuQzRYbRIxOMGKsrjSwF6o4WxmpFosnMlQpz4OUeNkt4ryynIBO7mAIY0saWcwxJFV2RndB6EvV1BnUOMmcY9AYS4Z16oD3mUGrAcBF0uQNa96XPOK5sJjN+r3KCa6v+15Y6kVBG3WGgANigxo4PLPcIxMzh31LHMFOWj3yyyEtPBG1KC7VTdkEH7hwE7n/ccy7LvbvCZWaqB0HyqKqPm8SgOrdFIyV9SsVWvWIXzdegwdHIbAjv4oaODIBUE7NOcaq5wnoy950kmxEXiHKwayiDghIESt+wtbdPC/hynE8YwnwzndtGfY9HpQf+4j6GZZmpGV2l7MFcjSzA/UQq2DpjEzbY4zHlpfxzA3O5+5il5eftyrkI9EtmNTty4Gu3jiFepwMAfQuGqRn5+PnTG7sXJNBNxauGLMg/dYdt5UVg4qDayAKoeYyfARd2PZ8tVwcnaEd2tPhPXqgUED+yE45Dq0bGmaIMixis5l0rbVeJMZrsEePkrvJNWnlrDN+7DkPNlH8BIXHu3s7ZmEeQSukmPgsYirELdweWcU8wzfWS3NlEUkHV4dYkZrLCVkFVOX4tzCqLHJ9AUJOWmIHvEoujg0RnJKKqKjdyFqw2asCY/Anr3xKCIhPNzcsDlqOVxdmluIVBnSXhRYIxOMDksz5ZY7RmN7dAzC+vVWD7Rrzz6cLy6Bp2dLdOvaGf369sbA/qHo3JHLzob5dzEfXORB78MyzZJUZlRNMmTdKnPEE8ji5/vMO8zgJowsmvJIauz3DIuMa166s8ZnlVupNs17E3YRyMbU9NZ1HZUvWLApCi1TTmPZynCsi9qApKRk5Ss8W3qgR0h3xCccQGFREdat/BUuzZspYLUzq2gWrEKMNa7DaymQz1tH3o8dHO2dW8LhUK8e1m/cgoj1m9RnbOxexrBZaNSsCbp07og+PUPQq3cI+vQIRsOGzCiZD2lHgBYLyGfn/KmLZ5gseZ15gOkMuVQoxVANTPDcQQ38kfsKNLDWDNLPJm0Zp6TnC4qwL34/VqyLxIoV4YjfvQ8HTxyHPS2jQ/u26N3zepKjD3r1DIZnq5boP2QEko4mY+O6ZWRsM3Ub4wyuIrJQIcZKQydOpKJ+A2fUd3a23GTEqPuxafN2xGwNRwtXV0s/i4qKyeA4/L6KjIjcgOiYWKQkp8DWvi78fTugb58eCOXf669jOObjbbnuLGNg30WfIokOB0VnVZJmNLV2EEOyB9f/ijuZpPmOiWu9/C3PJWwSibW1/SM/Kw1mcFBjdu3G4mUrER6xHgn7DyAv+xQ33TVC504BGNgvFAPDQtE1qBMa8zvj0W/wrTiWfAK7t0fA0dEBBYWFyMo6hcaNGsLBoV6FEuMXBVaYJE5q2YrVeGzcRMW0Zk2bKlP38WmN5SvWKMBnz3oHvh3aqd83bNCATDBlmfSRxQ5FRm3Eb0t+x4aNW5GQeAAlZwvg6uFOtgRjAOVC2OLn74s+W37FTsavt7m3x/g2QehPULfR6QRzhfU2auyP1FgJx8TM7bhCYTwOHU7C6rWRWLl6LS0pFokHDjGXcA5e3q3R4/ruuGHIAA5qTw6mV6nr8vLykEngTuXk4OTJdEyc/ArS0jMwbOhApKWl43DSUWRyoIK7d8Xnn86CfT2uxRlYXJb2XhTYIupMXXrRN9+egamvTiOgHigsLOZDZHFzWg7TrU6w5+/PFhQoQN1auKjRF61q3boVmlOf2pKRbTgI7u5u6nfZWdk4ePgIItdvVlHF7j1xZEM2nOs7I8jfD/U6tUHgdUGYMnwEGpAhckSfzsDgJZ/hFu4snBdyg6UfBbzvjp2xqp3NW3dg774EpJ5MUyzz40CH9u6htF403s3NFTk5p3GUJn74yFE+QxLN/RiSj59Aenqmui6dYBaSnSIRIiXC1EZ8hkbsm4Du6uKCDWuXKAKJpVwsA1Yhxr4/aw6enfASFsybpUKrpKRjytSOcCTT0jLUiB49dlwBJA8qDJVBKcqnOfNwbFAf9TjKTRo3hg/ZI4xpxajB0dERubm5bCcZW7btwEmyw5aTDifqtTO1OURYNigM3boHoZW3J9hdZLDzUdTwSGr51m3RdDSJyOd9hEVObE/al79NmzThnjs7JNOkhbnJx1MIbA7O8H7naS1Ej/MSBziTHE2bNObAc1WXIZaHh5vSWQ8SoSX/LZ/ynDfddg93KZVgPYGVa4y6W2nGihSIuU2fORvPPPsCvv36U/ztzlvLakd9d/bsWWSTySkpJ5kryKROHccJhjPiCIQdqalpyOD3qQQw//QZ1KFk1COITuygHZl/jqDWFRkR7WQn8vPy1ZbL5pSf7mSeg4MDdlCvhXWir8IsLTuFhUX05IWKSTJVymNMKs7MZEmuaEFrEg8vg+otwHOQxao8W3moAREWWkuL7qiQJCT0BkWWjRHLlJ8xOvRLBva9Dz5RjP36i9kKWHFOor2mYTNFUmr6Z859Xgh5iQ/TyfD0zEwyLxOHjiQpEzxC0xRncYqDkpqWhjNnctU9xFFImwUFhcjnoAliDtzEIaYu8iPhmZzTgDIiwIkDdafJt6IUeRG0VmSe+p2rSaLKO0yOUHYtypmmSYeKVvIL0GfAjRbGNqhvSmVerL/lSoGFsc+9iG++nIO7RnKubmay9YxHPY56MNND6U8NennAi76dog4eo6wI4E88PUmZ4byP31deX57lx58XYdp7M/HEo2Nwx4ib4ErQBDgnJ8c/BrsMBPVzGZ9Px6YXM2u134FS0zvsRtXvDeuWVh9jlRSUApb5ULvSqwPWfbGeUOjflwbezAxJuJhXD4zt+HfpRalwwM7Nayxfz53/JR4Z+zS+ofXcNer2UrdVu2LMM0PLIKrktuw/KP2E1kvmZbFZ9+GqArY8s9OMtp7ra2CkM917DSITnRC9iXkG87Hgi2/x4CPj8enH0/HA6LtontRlOil9VHRmVJnn+8sBezGW5NFxBfcZAvn8x5jRaNfWm2FetgqtFi1diQ+nv8kkyb00z/KtpyIg/l8x9mKdyc3NQ8/+w3Gc4ZuEWDaUivNkZ316b8ntTnvjFTwy5r5aYCvKGq1rwlSRAjHt1155AYkHD6lM09bt0Zj96Rf4eMY0ldarZWwFkTU6jC4hYX/S2M+osQ9RY+fPnoEH77+7FtgK4mqJD4Wx3XoOVBOIzRG/M540baKYM+9zPP7UJIZg0/HQA7WMrSiuFmDFE3ftMUDNtratX2kB9pO5CzB2/ETM/+T9WsZWGFXzpEIH5bXAVga5cs41amwtsLXA/gmBS8wVXJ6gvJaxtYy9NMZKovu5iVPw1eefqLTh5QrK/28Za1yamTzxWXz25dd44N5RKldqTHxUI2GvjXBLr+vsi9uPbdt3qpVVby/Pctd7qgL0NREVVAWgS732mgBWrxR8v/A3zJw5By9PeV6txddqbBXXvLTG/vfdmfjncxPw+VdfYPQ9I2s1troWE01RwUvmqEDWvK7dOFaWv2twMfHaAzZ0IDfjcTExMnzxlV1M/H9wXjoqkhRm5+D+3JdXhNgdEYqxVd4JU/by97XFWHHin3/1vdqwIQuYsrOyhvYVXBvAXqrVyXUVSsKI85rw/BR8ueDamtLWGLA63HqDuw1fmPgMPvviGzxw37U3pZVdjY8/OUltMfrwg7fUXq8qSYEW6L374rkbMBr9QnupnXzlCXdVRvpqmnkZnVfXEL7PhrvKY7aurbrzqgpAl3rt1QSs8Vkk3BInFlUd4dalglOV665WYKt1U5xoimxWW7M2Cj/+9BvGPHQvrusWpPZLye6/mjiuVmCrlbEW5zWNzuv5a895lZ4g9OMEobh6JwjXarilrUcsV6z2PIv9pBBFJk1VigpKbZWv5P7YS5WJq0kKLrUPFZ4gXMrG40t9qKsJWP0sQrCFvyxRtb+yi1wqiaqFsboGQRYTZau8OC/jju7ytsBXBuQrDaxxJ7re6p+bm4+gYGosAd6zM6rqcawuoBONlaqZhT9+gdtuGaZeMyLFD7rGVMo7ZNNaWUdlQTdu49Sb4rZE/q6iENkUJ3u3qmNTXFlb+Y11CvLcxoKVkNChrAErQuSaRVUvR9JRwTvvf4TJL/4HU16coKa0zZo1tTRuBFPVAEhhh7mipLKFvdJWeds45y/4GmMefarS2zitgTSCaF17q/skTksqeWJZ5Pf4kxNV6BkVzgI61q1VWQqksQ9nz8eTz7ygSn+kHqoF66YC/HzRMdAXvu3b8dNPFaBJTVVZh7zN2PL2Sym2sKq0MP5svfFYrOGbBR+rykLJi0q+4vX/TsecD98tcxtnWUwUC9NmLbe2lFIZHlZAlOK//YmHWHB3EHHxiYhm1WPSMdansQz0LHc/SmX4isU/qAodae+SKxP/0Bi+1JbFvpu3blfFvgksOz+RmorcnDPyThI0athQFaIFsBbW36+DKlIL4KeqEGzapMx6KOmIBsFYFqQf2LhVXrZ0urm1wOnTp9Urp6XQTm+Vlz0OWu9NLNRlUCyrl0qcMmrPclk7m5GRhb1x8YgXAFmUl5B4UNWbSfHfOXl1Cq9tyVpfqRsOYGF1gH8HDLthkColNZbZX8h/VKis3vpiKdyVEs/9HFkZVSkOlkSNfJfDzp9nZ53IbClmE5ClllUA7xToz8I2T9ZmNVNvi7c+5J1aUpEov5Mqx5C+N5CleUz+9MZh3kMGKSs7G1tYN/v+26+RsXdbFja1Jlq3KcV4SceSEReXgPj9B0mKRMTs3qNqyaRYpISZK3lWKUcNJDGkGj2ocwACAvxYB+ylSj7LsqjyHHKFyuqlEYkEZPAvVIF4miWcYkoHDh5GTOweVTCswRYwSij8DjQhF9fmaOPthaBOgQp03w5tVam9yItIjT6Elf5d+YoTroju2LjKUrQ3jxr7d2qsVGGP5q4c45GekcGy0nRV0r+bf2P5YgqxMCk7zWJFJN9TAkduZPbippN2bbzh69uepaR8dRXrdGXA3WkVZR26fkxr8R+ycuG3S1aIsbohfdM/hN/0jd7GXhZbUlJPKsBjdu3BHrJaOrqfZifl60V89WkdxoQuzZuzs60UY/zYWRNzvHD7XQ/xf+uwx6aI5awyZy0XR1aignHPTMY7b05VaUwp9kjkYEqx8j6yUoqRheX0onwhWlO4sCCkM99XIy98kHYDyUSRrSYsTC7rMEmU+W3IZfgDuaYikU6FgL0Q7cvytKZQ7MJgy+gfP5HCiu9jCuw4vvliX3yC0m2pKM+l6XKk0JygiEZK2X67dj6mel3+LDJ0nO9IkPDrDEuWzvAaW9bWis63JQtlYDq0b8NkURe0pj5KXa3xjR4Wi7DUzZpqYq3LP8vz+lWSgvIuNv7emtV/ZrepA2V5ZLn2JGtnj9Nkhc3yJiFhn5TDi3OS9wZIWCFMknm6sFje9iGaLQ5THIpouFR5SwGz9SHtCxPVG7mlqNqKiRUp/6wMForVvGnpdytVtoVyzi+reaOUXCj8kWblBQ1S5W16hZPp/+cw/Z8HULG0AGx9aFPWJmucuNQEgBfqfo0DezHcjaBbz3rkPd3G98iW1Y6lKNnwRiQNaFVNuar8uqLAliclFzMmowO5nEysKOBXDbAVfeC/ynm1wNbQSNUCWwtsDSFQQ83+DzAyqBDGNqWAAAAAAElFTkSuQmCC;" vertex="1" parent="1">
          <mxGeometry x="356.99999999999994" y="1485" width="91.88" height="101.5" as="geometry" />
        </mxCell>
        <mxCell id="vCrRRUYNwniXk347K93_-250" value="Functions" style="shape=table;startSize=30;container=1;collapsible=0;childLayout=tableLayout;fillColor=#E6E6E6;" vertex="1" parent="1">
          <mxGeometry x="346.99999999999994" y="1196" width="100" height="90" as="geometry" />
        </mxCell>
        <mxCell id="vCrRRUYNwniXk347K93_-251" value="" style="shape=tableRow;horizontal=0;startSize=0;swimlaneHead=0;swimlaneBody=0;strokeColor=inherit;top=0;left=0;bottom=0;right=0;collapsible=0;dropTarget=0;fillColor=none;points=[[0,0.5],[1,0.5]];portConstraint=eastwest;" vertex="1" parent="vCrRRUYNwniXk347K93_-250">
          <mxGeometry y="30" width="100" height="20" as="geometry" />
        </mxCell>
        <mxCell id="vCrRRUYNwniXk347K93_-252" value="Function 1" style="shape=partialRectangle;html=1;whiteSpace=wrap;connectable=0;strokeColor=inherit;overflow=hidden;fillColor=none;top=0;left=0;bottom=0;right=0;pointerEvents=1;" vertex="1" parent="vCrRRUYNwniXk347K93_-251">
          <mxGeometry width="100" height="20" as="geometry">
            <mxRectangle width="100" height="20" as="alternateBounds" />
          </mxGeometry>
        </mxCell>
        <mxCell id="vCrRRUYNwniXk347K93_-253" value="" style="shape=tableRow;horizontal=0;startSize=0;swimlaneHead=0;swimlaneBody=0;strokeColor=inherit;top=0;left=0;bottom=0;right=0;collapsible=0;dropTarget=0;fillColor=none;points=[[0,0.5],[1,0.5]];portConstraint=eastwest;" vertex="1" parent="vCrRRUYNwniXk347K93_-250">
          <mxGeometry y="50" width="100" height="20" as="geometry" />
        </mxCell>
        <mxCell id="vCrRRUYNwniXk347K93_-254" value="Function 2" style="shape=partialRectangle;html=1;whiteSpace=wrap;connectable=0;strokeColor=inherit;overflow=hidden;fillColor=none;top=0;left=0;bottom=0;right=0;pointerEvents=1;" vertex="1" parent="vCrRRUYNwniXk347K93_-253">
          <mxGeometry width="100" height="20" as="geometry">
            <mxRectangle width="100" height="20" as="alternateBounds" />
          </mxGeometry>
        </mxCell>
        <mxCell id="vCrRRUYNwniXk347K93_-255" value="" style="shape=tableRow;horizontal=0;startSize=0;swimlaneHead=0;swimlaneBody=0;strokeColor=inherit;top=0;left=0;bottom=0;right=0;collapsible=0;dropTarget=0;fillColor=none;points=[[0,0.5],[1,0.5]];portConstraint=eastwest;" vertex="1" parent="vCrRRUYNwniXk347K93_-250">
          <mxGeometry y="70" width="100" height="20" as="geometry" />
        </mxCell>
        <mxCell id="vCrRRUYNwniXk347K93_-256" value="Function 3" style="shape=partialRectangle;html=1;whiteSpace=wrap;connectable=0;strokeColor=inherit;overflow=hidden;fillColor=none;top=0;left=0;bottom=0;right=0;pointerEvents=1;" vertex="1" parent="vCrRRUYNwniXk347K93_-255">
          <mxGeometry width="100" height="20" as="geometry">
            <mxRectangle width="100" height="20" as="alternateBounds" />
          </mxGeometry>
        </mxCell>
        <mxCell id="vCrRRUYNwniXk347K93_-257" style="edgeStyle=orthogonalEdgeStyle;rounded=0;orthogonalLoop=1;jettySize=auto;html=1;" edge="1" parent="1" source="vCrRRUYNwniXk347K93_-259" target="vCrRRUYNwniXk347K93_-246">
          <mxGeometry relative="1" as="geometry" />
        </mxCell>
        <mxCell id="vCrRRUYNwniXk347K93_-258" style="edgeStyle=orthogonalEdgeStyle;rounded=0;orthogonalLoop=1;jettySize=auto;html=1;" edge="1" parent="1" source="vCrRRUYNwniXk347K93_-259" target="vCrRRUYNwniXk347K93_-265">
          <mxGeometry relative="1" as="geometry" />
        </mxCell>
        <mxCell id="vCrRRUYNwniXk347K93_-259" value="&lt;div&gt;AWS Lambda&lt;/div&gt;&lt;div&gt;Function&lt;/div&gt;&lt;div&gt;(API caller)&lt;br&gt;&lt;/div&gt;" style="outlineConnect=0;dashed=0;verticalLabelPosition=bottom;verticalAlign=top;align=center;html=1;shape=mxgraph.aws3.lambda_function;fillColor=#F58534;gradientColor=none;" vertex="1" parent="1">
          <mxGeometry x="524.75" y="1296" width="69" height="72" as="geometry" />
        </mxCell>
        <mxCell id="vCrRRUYNwniXk347K93_-260" style="edgeStyle=orthogonalEdgeStyle;rounded=0;orthogonalLoop=1;jettySize=auto;html=1;entryX=1;entryY=0.5;entryDx=0;entryDy=0;" edge="1" parent="1" source="vCrRRUYNwniXk347K93_-261" target="vCrRRUYNwniXk347K93_-249">
          <mxGeometry relative="1" as="geometry" />
        </mxCell>
        <mxCell id="vCrRRUYNwniXk347K93_-261" value="&lt;div&gt;Amazon Opensearch&lt;/div&gt;&lt;div&gt;Serverless&lt;br&gt;&lt;/div&gt;" style="sketch=0;points=[[0,0,0],[0.25,0,0],[0.5,0,0],[0.75,0,0],[1,0,0],[0,1,0],[0.25,1,0],[0.5,1,0],[0.75,1,0],[1,1,0],[0,0.25,0],[0,0.5,0],[0,0.75,0],[1,0.25,0],[1,0.5,0],[1,0.75,0]];outlineConnect=0;fontColor=#232F3E;fillColor=#8C4FFF;strokeColor=#ffffff;dashed=0;verticalLabelPosition=bottom;verticalAlign=top;align=center;html=1;fontSize=12;fontStyle=0;aspect=fixed;shape=mxgraph.aws4.resourceIcon;resIcon=mxgraph.aws4.elasticsearch_service;" vertex="1" parent="1">
          <mxGeometry x="497" y="1496" width="78" height="78" as="geometry" />
        </mxCell>
        <mxCell id="vCrRRUYNwniXk347K93_-262" style="edgeStyle=orthogonalEdgeStyle;rounded=0;orthogonalLoop=1;jettySize=auto;html=1;" edge="1" parent="1" source="vCrRRUYNwniXk347K93_-263" target="vCrRRUYNwniXk347K93_-261">
          <mxGeometry relative="1" as="geometry" />
        </mxCell>
        <mxCell id="vCrRRUYNwniXk347K93_-263" value="&lt;div&gt;Amazon S3&lt;/div&gt;&lt;div&gt;(Document Repository)&lt;br&gt;&lt;/div&gt;" style="sketch=0;points=[[0,0,0],[0.25,0,0],[0.5,0,0],[0.75,0,0],[1,0,0],[0,1,0],[0.25,1,0],[0.5,1,0],[0.75,1,0],[1,1,0],[0,0.25,0],[0,0.5,0],[0,0.75,0],[1,0.25,0],[1,0.5,0],[1,0.75,0]];outlineConnect=0;fontColor=#232F3E;fillColor=#7AA116;strokeColor=#ffffff;dashed=0;verticalLabelPosition=bottom;verticalAlign=top;align=center;html=1;fontSize=12;fontStyle=0;aspect=fixed;shape=mxgraph.aws4.resourceIcon;resIcon=mxgraph.aws4.s3;" vertex="1" parent="1">
          <mxGeometry x="681" y="1496" width="78" height="78" as="geometry" />
        </mxCell>
        <mxCell id="vCrRRUYNwniXk347K93_-264" style="edgeStyle=orthogonalEdgeStyle;rounded=0;orthogonalLoop=1;jettySize=auto;html=1;" edge="1" parent="1" source="vCrRRUYNwniXk347K93_-265" target="vCrRRUYNwniXk347K93_-259">
          <mxGeometry relative="1" as="geometry" />
        </mxCell>
        <mxCell id="vCrRRUYNwniXk347K93_-265" value="Databases, data lake, IoT, other actions" style="whiteSpace=wrap;html=1;" vertex="1" parent="1">
          <mxGeometry x="655.5" y="1302" width="126.5" height="60" as="geometry" />
        </mxCell>
        <mxCell id="vCrRRUYNwniXk347K93_-266" style="edgeStyle=orthogonalEdgeStyle;rounded=0;orthogonalLoop=1;jettySize=auto;html=1;" edge="1" parent="1" source="vCrRRUYNwniXk347K93_-267" target="vCrRRUYNwniXk347K93_-263">
          <mxGeometry relative="1" as="geometry" />
        </mxCell>
        <mxCell id="vCrRRUYNwniXk347K93_-267" value="Context data" style="sketch=0;outlineConnect=0;fontColor=#232F3E;gradientColor=none;fillColor=#232F3D;strokeColor=none;dashed=0;verticalLabelPosition=bottom;verticalAlign=top;align=center;html=1;fontSize=12;fontStyle=0;aspect=fixed;pointerEvents=1;shape=mxgraph.aws4.document;" vertex="1" parent="1">
          <mxGeometry x="821" y="1499.25" width="52.25" height="71.5" as="geometry" />
        </mxCell>
        <mxCell id="vCrRRUYNwniXk347K93_-268" value="Embedding &#xa;Model" style="shape=image;verticalLabelPosition=bottom;labelBackgroundColor=default;verticalAlign=top;aspect=fixed;imageAspect=0;image=data:image/png,iVBORw0KGgoAAAANSUhEUgAAADUAAAAwCAYAAACxKzLDAAAPRElEQVRoQ91ZCXSN1xb+Mg+mxFQRQQwVRARFQiYRQwwhE0GaxDxFi3otVTVXPC1KS1FExDO1atYIYgoS8xTVlhBFCEoSSWR8e5+bc/339ia5aq2ut96fFTfuP+3v7L2//e19DErowP/ZYfA2oJTrwX8XFxfD0NAQBgYG6mVS/v1Prd3fAiXBsMESjJGRkdrmoqIiNTjltf+zoJRGsvESTOrde9i45SeMjAiBzTu1hdf4Wnme//6nvKa3p5Rg2GD+NTY2RmFhEWZ+sRiJZ87BvVMHnDh9Fn6+PpgcOUI4hs8bGalC8p8CViEo7VArKmIwqlCLO3QMazZsQT1bG3xEIOzq1cWvv9/G0hXr8CjjCUZFDEKPrp7iWn0BaeSpnvHKGaxctHJBaYYak4CBuPn323exfFU0/rN9FxbNnYaIIcHi9QWFhTAh7wnAh49j1bpNcGzxLqZOHgcLc3Pxvb4hqO8i6MJdJijlQ2Xu8HfrYrcLY8NCAnD8dDImjx+B9m2dRDiamJiITxmaubm5cHbrjX3b16FJo4ZQ5mBZTlAu5JNXuXhGv7QSOi/na82IoOpbVoWhIrwr9BTfyDR9/tJVfDxjARrY2SJq9ieoXasmgsPGYezwUHTxcNWgc0kSL3Ny0CtoGDZ89yUaNawvQpCfVd7B97I38+mz46FNyMrPg7mxKUroh9ChqKRY5XH6MSKsT/NfIanrIDSoXO21DWXVKWXd+Wb1BhyIP4oxw0Lh18tHPJRXfWBEJCJHhcPL3UXtBb5PGp+ZlQXfwKGIWfUVGts3UL+0PFAyQvIolFv8HI0NHXvCvVY95HGZIBCmhq9LR05hAQISd2OBkxvaWL9DgIltaUHK9JSSknsHD8WE0RHo6eOJgoICWkkjYjQDhAydIDylBMUGyyLMoDp3D8aO2JVo2ther/CTnnpFIBzjNmCfhz9SszPRtIqVALTkRjJeFhXCiUCMb+oMvxM7McexE5ytqYxwJJQHSq44h8Kg4R8gYnAQunVxK2UxQ0HTvgHhRN0j0c3bjai7UFC8kulyKKdmzl8i6N2mjqp2lRd+SuZjz7SMi8YRr2CMO38YgfWaooqJKSbT391tGuHQ4zSk9h4hPDW7JYGqrieo4mIunoYIDh+HYaED4NvNSxhvSCvGTLh7fzzatHaEHVF6RQZXxM4y7Pg5TAy84g33rkECgZp2JRF+to1Erl198QRftHKDd8J2xHkEYMDpvfi8pSuFnx6gxMNLKXhAxHgBisNPWafKYzBZN6Sx5RVfeQ1/FtB7TYnRlt48j0nnDuJBwARMvHgU/WwbC7BXnmcgysn9NahTezHT0bX88JMhwFxTTCHAxoSOmkThFwgfL1X4GXGYaQlYZQlQGimBlwVKF6Aoypvlv12AiYEhjnuHYPT5eATVexdWJmaIPHsQ3jb2OJbxB+72GSnCbxaFXxtd4fdX5VCkzhGffkMwcexw9OnpLZKdCZXDUnlPReGlPK8BmksQrWAh1zny0Nzrp7H61hUkdBkAfzJ4q2sf/Em0bmdZBeZ0PvrWVUEUDtVqYlADB/QjopjFRGFVS5C+mig0lcNrkfrH/Yf4Zk0Mks9dQiVLSwT798L7VHR51QsFxVLsU91RJnhZ4JSeUudPKf2T9IUJ5elC8tDqW5dxpMtANKhUFfX3rEZMR1+idFvk8vvo4ZbGJmoyyirMR3DiHkS1di+b0uXL2OAl365F7JYdGBk+CGNHhOL2nTTMjvoa6Y8yMG/GFLi0b6N+uKhb5fSaXDuUh65Q/DcBWpd6DWd8hsDK1IzqUiE8j2zFw5xMmIniqyq46uJLjzSkL3OKi+iewahnUVldH0WdUhVaVWtw4NBRLPtuPdoRq40ID1ErAanZ9h9MwOrozahapTI+mxKJpk3s9dJzypwrolAzIg/HpKZg4+3LKCDjckkpxHkGCUAFZCh7LuXFU1x//hhFpYuibNFF1JLNdSwqwau2nXrN2E4BSjIdh1KnboEIJ1IYPXSwuFC2DjLE+BpegO/WxiIvP5+033D8nvkMUTeSYECGGFFyG9M1hWQY5wn/Pc+xM2qaWyKbFIClkbFqRenlN+i+lBcZFFYGVHvsUZnqEN/DnmUW9EjYimp0fRVTc1UksHfoH75XFFqy71rmU+x3D4A9yyRZfAmQxoyiZ2AYZnz8AVzbt1WLVGVi8wIou1w+l/w0HV2PbBGsmElaDJTYMLNA5dL4T+szCvse3sbUc/E46RuBhpWqiTDiBVAebJRsI1gmNf95PXa790erarXK5KG+x3/C7FbEflaqOsURYMCglF7o1j8UH384WtC3roKqbOENyCguwnw/M5Ip/X82sddCMv5LNz+MbeKMfO6OaWVH03exv5zFrm5D0JoMqEthw6teKDpilQf4Uy4gy6TWcTH4sXNfkU1H0+8KUftezbpwqW6Da1SEHa1qwv/kbt0yScl+DGrqpLHo6tlZQ/pod7Da9Yf9bUQAP7+aiLlJB7DcMxCRTVVkMvFCApb/kgQjE3NaqCIRiik9I1CdvFne0Xjf94inPPv06kn8mfsStei+2znZSOwaAg8iEab9oNI6pSGTnjx5UmJtbS2ezfmiBMU16RXljQmFkYmJStfJoYrSGF4UXnETun8GgZp/Ng5fu/tjAoHKJxAZ1BOxp/an3cQ2kjZOVFMaUQ7cy8nCraxnIhdfk6eK55gshtNzkogNp1w+hoF2DnCoWp104CEc8x4Ir4RtiPcIFDJpJskkDUGblpZWYmtrqxMUG3v9l98wfc4i9PB2x1CSShYW5hpFV3pZCWpe8s9YRsYzqFwiBwtalGHJcVhP4Xe93xi0oMLJ920lkFvvXKNcNIVKlDGlMSEQdVPuHnp0F7/2GoZJl44i2K4ZHKpUR+SFwwJUFwJ1kEAFn9qjKr7a2k/Kfc4XVg8cfpxTUnlfupKCBYtXIDc3j4AFoy8NVnhOoSSQskBxveGWIZxCMva3i0jxG4Pm1WroJArtUJTh98nlE7Q4+bChWnSV2O40NYVuh7fgKIWfAKWt0iX7CZotDT9topA16vLVG4hasgIvc3KxfNFs1KdBi7pgK8OPPPW1lqdCz+zDppsXEOsVBJcaNqJYci1ixtIOZdH5MlEcjMEut/7IKSrAwQepgtI9a9dHZ1IY5589Qrvq76D/iV3kKa3w06b0HgFhmDVtIlzeayM8ZWpKoaE1w4sYOwVB/XxJC3YVdYwZkD3F6noqrepCArCEWoaJzdoJZWBGxkffuY5hlNR8mFPCp/Yeidr0yXWJ6w4fzJJycZnSm+xfi82uvUgmvS6ufF12QT4sqH5xy9/7xA586eypSenaxdetR5AwlkOQD2m0IAMCwCAjxk7GB2OGoi2pDi5zgtaZaMio1Ozn+JWUgCOtoi15Q1l7kp4+RNrLTAGmc01bUZiVB9cupnY+WA8OpLYiu+AVqhJr5tM5WcP4Gj7Pdz/Ky8G2Tn1EaGp0vmywDCMeRi5buR41qluTePWHm2t7jRdnZ7+EV+8QbI9ZAfsGdoKiuWms6FDKJHnt7vu3sPPeTSGzuJsdWL+ZIAghdQjB5T8z6PcxinUPk0QE1SP13q1Ow9KlUI3gNGYUyhdv2roTMSRonVo6YBRJpty8PBw7mYSjJ07DqlpVfPvVXJiZmWpg4QfyaskVk2MreRGvLqcQF1FjKtQ3KOlvkFdzigsxPyUZ05p3QLh9SxGS/NvswDrUoVpmbWYpIkF4sDQHGSeH60XShoneg0SJUCsKKWj5BjaK6xB/ylkCT5K+XbMRtWpYw6OzC4YM6IfmzZr87V6qLI8+e5UHBwIxn1r1kY2dkEV50y4+Fjvd+qFF1RplBoL/yV2Y0dIFbWkQ85fBi6w38m5ZZBlcQOgYakFCxIxCrJY6RFSJLQ995+UyItgI0SEwcxLJ3Ce10P3YD4ggb/3LoT0a7lmDPaT9LlEL70FjsvS8l5hL6iKP3s/h+pFDOzFN4oVord0kKpdBaaRU74NHfIihNFpWtfOqjQFd9ygbRqVGlHtW2nmlrHOswpk4OCRDz+xHWMOWWEv91TbqfMeQGplNBfbss3QkpN+BK5HMLhLIyaQ2+hIo7gL0miaVNXjR3lhTGqqLDN6EQLhdMSbSYYb0ObYdD+jzeq/hiKSx2PQWHZH49AFqUo6FNWiBXkTlB0hR+B2nuR+pdL3nfrLNkCMyMU0qbfDYWFlTrly7Iaje4d3GGqHJde7M2Yto49QSlSpRsgtF/lcqUwpq2SDeI0DND6zHNRK+40kaTW/eEacIFItgBsX1iZtKMcx8k7mfNIKHmcNJ93Xx6MRQRPipNgJK8CIzC4GUc0uiZsC5VQs1KA45ntC69xiAHzauqHBCK4CVDmHEJIv+35zGzntJUXx4MQGfkac4t5amnIFdZSvqlEtwiuQSg5rXisJP37kfv4gbQt+gCDH3C+7fS70dyoBYuX80fT5RfBXRWLJnZAPJHsnKzkZP/3DErF6s1yxd1Ev64VkET2idSSZxk8jdso15ZRq+FOLk43t4RWHK0yRW7cx+M4n9nHWxn3bsKwvy5h92I2bzj+hOSn0Mzc4tLVR90L64I0T3MdixaZXwnpwuSXZkUN37h2HT90vfaNeDvczyqvG+tfjK2YO0Yl3k8N4XfV+JFD3rFwbI4Fj9r2jnIya0MjX03sq5/zAdcxYuQ0bGU1GMXTu0hV/ICMz5dBI83VS7Huo5OdM0geb9qZ4BEYheuUh4SuZgeeQh84vZ8P2k/eDcMuW5hnbxpVA1KCF49LnFpbcYwOi1QSCTWrlZlkQzwJkLliA9/TFtWg/C+JFhAhC/1JhClb3EK8Y7is9fvICrTyD2blsrQOmz6SYJSN8dR10LVKGnpNJQ7hDyav646wBWrN0oBjRzpk8WuaTcHo1POEk7HosRRHkYOSpMhKdK05Uh5EqtU9YuVQ9c9iFrobRR3qv3RrYSnDSOB5zfrNogBp3B/r1JQvXHg4ePMCtqKR5TmI6jIWh3b483klRKetdWOeWFrVLNVAhKPkj7ZRxKUlmcOJWMlTQH5D3fzKxsdKJ84z0p9p5kRH0lVEXFWp/zeoPSBU4Zknw+etN2dGjnjBYOTdXUz8CUC6KPUW97zRuD0gVO9EB0QrKfrnFaRbn0tkCU978VKGWi8kMZnPZOiBKMkgSkEdq7Icqk1yYAfYGLCa18sGrv6fXBKy+Vt/ZKV2RgeQaU1a4ow1Q533/T8P0vJrZt+MrdJeoAAAAASUVORK5CYII=;" vertex="1" parent="1">
          <mxGeometry x="609.5" y="1444.5" width="53" height="48" as="geometry" />
        </mxCell>
        <mxCell id="vCrRRUYNwniXk347K93_-269" style="edgeStyle=orthogonalEdgeStyle;rounded=0;orthogonalLoop=1;jettySize=auto;html=1;entryX=0;entryY=0.5;entryDx=0;entryDy=0;" edge="1" parent="1" source="vCrRRUYNwniXk347K93_-237" target="vCrRRUYNwniXk347K93_-246">
          <mxGeometry relative="1" as="geometry">
            <Array as="points">
              <mxPoint x="296.99999999999994" y="1426" />
              <mxPoint x="296.99999999999994" y="1332" />
            </Array>
          </mxGeometry>
        </mxCell>
        <mxCell id="vCrRRUYNwniXk347K93_-270" style="edgeStyle=orthogonalEdgeStyle;rounded=0;orthogonalLoop=1;jettySize=auto;html=1;entryX=0;entryY=0.5;entryDx=0;entryDy=0;" edge="1" parent="1" source="vCrRRUYNwniXk347K93_-237" target="vCrRRUYNwniXk347K93_-249">
          <mxGeometry relative="1" as="geometry">
            <Array as="points">
              <mxPoint x="296.99999999999994" y="1438" />
              <mxPoint x="296.99999999999994" y="1536" />
            </Array>
          </mxGeometry>
        </mxCell>
        <mxCell id="vCrRRUYNwniXk347K93_-271" value="&lt;div&gt;Query&lt;/div&gt;&lt;div&gt;embeddings&lt;br&gt;&lt;/div&gt;" style="edgeLabel;html=1;align=center;verticalAlign=middle;resizable=0;points=[];" vertex="1" connectable="0" parent="vCrRRUYNwniXk347K93_-270">
          <mxGeometry x="-0.0831" y="1" relative="1" as="geometry">
            <mxPoint x="-4" y="26" as="offset" />
          </mxGeometry>
        </mxCell>
        <mxCell id="vCrRRUYNwniXk347K93_-135" value="API Gateway" style="sketch=0;points=[[0,0,0],[0.25,0,0],[0.5,0,0],[0.75,0,0],[1,0,0],[0,1,0],[0.25,1,0],[0.5,1,0],[0.75,1,0],[1,1,0],[0,0.25,0],[0,0.5,0],[0,0.75,0],[1,0.25,0],[1,0.5,0],[1,0.75,0]];outlineConnect=0;fontColor=#232F3E;fillColor=#E7157B;strokeColor=#ffffff;dashed=0;verticalLabelPosition=bottom;verticalAlign=top;align=center;html=1;fontSize=12;fontStyle=0;aspect=fixed;shape=mxgraph.aws4.resourceIcon;resIcon=mxgraph.aws4.api_gateway;" vertex="1" parent="1">
          <mxGeometry x="59.49999999999999" y="750.5" width="78" height="78" as="geometry" />
        </mxCell>
        <mxCell id="vCrRRUYNwniXk347K93_-136" value="&lt;div&gt;Amazon Bedrock&lt;br&gt;&lt;/div&gt;" style="sketch=0;points=[[0,0,0],[0.25,0,0],[0.5,0,0],[0.75,0,0],[1,0,0],[0,1,0],[0.25,1,0],[0.5,1,0],[0.75,1,0],[1,1,0],[0,0.25,0],[0,0.5,0],[0,0.75,0],[1,0.25,0],[1,0.5,0],[1,0.75,0]];outlineConnect=0;fontColor=#232F3E;fillColor=#01A88D;strokeColor=#ffffff;dashed=0;verticalLabelPosition=bottom;verticalAlign=top;align=center;html=1;fontSize=12;fontStyle=0;aspect=fixed;shape=mxgraph.aws4.resourceIcon;resIcon=mxgraph.aws4.bedrock;" vertex="1" parent="1">
          <mxGeometry x="612.5" y="750.5" width="73.5" height="73.5" as="geometry" />
        </mxCell>
        <mxCell id="vCrRRUYNwniXk347K93_-137" value="Amazon Polly" style="sketch=0;points=[[0,0,0],[0.25,0,0],[0.5,0,0],[0.75,0,0],[1,0,0],[0,1,0],[0.25,1,0],[0.5,1,0],[0.75,1,0],[1,1,0],[0,0.25,0],[0,0.5,0],[0,0.75,0],[1,0.25,0],[1,0.5,0],[1,0.75,0]];outlineConnect=0;fontColor=#232F3E;fillColor=#01A88D;strokeColor=#ffffff;dashed=0;verticalLabelPosition=bottom;verticalAlign=top;align=center;html=1;fontSize=12;fontStyle=0;aspect=fixed;shape=mxgraph.aws4.resourceIcon;resIcon=mxgraph.aws4.polly;" vertex="1" parent="1">
          <mxGeometry x="455.5" y="910" width="78" height="78" as="geometry" />
        </mxCell>
        <mxCell id="vCrRRUYNwniXk347K93_-272" value="&lt;font style=&quot;font-size: 18px;&quot;&gt;&lt;b&gt;1&lt;/b&gt;&lt;/font&gt;" style="ellipse;whiteSpace=wrap;html=1;" vertex="1" parent="1">
          <mxGeometry x="626.75" y="698" width="45" height="40" as="geometry" />
        </mxCell>
        <mxCell id="vCrRRUYNwniXk347K93_-273" value="&lt;font style=&quot;font-size: 18px;&quot;&gt;&lt;b&gt;1&lt;/b&gt;&lt;/font&gt;" style="ellipse;whiteSpace=wrap;html=1;" vertex="1" parent="1">
          <mxGeometry x="-165" y="1140" width="45" height="40" as="geometry" />
        </mxCell>
      </root>
    </mxGraphModel>
  </diagram>
</mxfile>
